<?xml version="1.0" encoding="UTF-8" standalone="no"?>
<!DOCTYPE svg PUBLIC "-//W3C//DTD SVG 1.1//EN"
 "http://www.w3.org/Graphics/SVG/1.1/DTD/svg11.dtd">
<!-- Generated by graphviz version 14.1.5 (20260411.2331)
 -->
<!-- Title: G Pages: 1 -->
<svg width="2996pt" height="560pt"
 viewBox="0.00 0.00 2996.00 560.00" xmlns="http://www.w3.org/2000/svg" xmlns:xlink="http://www.w3.org/1999/xlink">
<g id="graph0" class="graph" transform="scale(1 1) rotate(0) translate(7.2 553.05)">
<title>G</title>
<polygon fill="white" stroke="none" points="-7.2,7.2 -7.2,-553.05 2988.99,-553.05 2988.99,7.2 -7.2,7.2"/>
<!-- raw -->
<g id="node1" class="node">
<title>raw</title>
<path fill="#efe7ff" stroke="#6d5bd0" stroke-width="2" d="M282.54,-536.1C282.54,-536.1 12,-536.1 12,-536.1 6,-536.1 0,-530.1 0,-524.1 0,-524.1 0,-475.2 0,-475.2 0,-469.2 6,-463.2 12,-463.2 12,-463.2 282.54,-463.2 282.54,-463.2 288.54,-463.2 294.54,-469.2 294.54,-475.2 294.54,-475.2 294.54,-524.1 294.54,-524.1 294.54,-530.1 288.54,-536.1 282.54,-536.1"/>
<text xml:space="preserve" text-anchor="middle" x="147.27" y="-510.85" font-family="Aptos" font-size="19.00">RawQuery</text>
<text xml:space="preserve" text-anchor="middle" x="147.27" y="-491.35" font-family="Aptos" font-size="19.00">• When was &quot;Birthday Message&quot;</text>
<text xml:space="preserve" text-anchor="middle" x="147.27" y="-471.85" font-family="Aptos" font-size="19.00">published?</text>
</g>
<!-- tokens -->
<g id="node2" class="node">
<title>tokens</title>
<path fill="#efe7ff" stroke="#6d5bd0" stroke-width="2" d="M688.66,-536.1C688.66,-536.1 457.88,-536.1 457.88,-536.1 451.88,-536.1 445.88,-530.1 445.88,-524.1 445.88,-524.1 445.88,-475.2 445.88,-475.2 445.88,-469.2 451.88,-463.2 457.88,-463.2 457.88,-463.2 688.66,-463.2 688.66,-463.2 694.66,-463.2 700.66,-469.2 700.66,-475.2 700.66,-475.2 700.66,-524.1 700.66,-524.1 700.66,-530.1 694.66,-536.1 688.66,-536.1"/>
<text xml:space="preserve" text-anchor="middle" x="573.27" y="-510.85" font-family="Aptos" font-size="19.00">QueryTokens</text>
<text xml:space="preserve" text-anchor="middle" x="573.27" y="-491.35" font-family="Aptos" font-size="19.00">• entity = Birthday Message</text>
<text xml:space="preserve" text-anchor="middle" x="573.27" y="-471.85" font-family="Aptos" font-size="19.00">• intent = WHEN / STATUS</text>
</g>
<!-- raw&#45;&gt;tokens -->
<g id="edge1" class="edge">
<title>raw&#45;&gt;tokens</title>
<path fill="none" stroke="#687386" stroke-width="1.7" d="M295.37,-500C295.37,-500 435.3,-500 435.3,-500"/>
<polygon fill="#687386" stroke="#687386" stroke-width="1.7" points="435.3,-502.52 442.5,-500 435.3,-497.48 435.3,-502.52"/>
</g>
<!-- analysis -->
<g id="node3" class="node">
<title>analysis</title>
<path fill="#efe7ff" stroke="#6d5bd0" stroke-width="2" d="M1153.29,-545.85C1153.29,-545.85 857.25,-545.85 857.25,-545.85 851.25,-545.85 845.25,-539.85 845.25,-533.85 845.25,-533.85 845.25,-465.45 845.25,-465.45 845.25,-459.45 851.25,-453.45 857.25,-453.45 857.25,-453.45 1153.29,-453.45 1153.29,-453.45 1159.29,-453.45 1165.29,-459.45 1165.29,-465.45 1165.29,-465.45 1165.29,-533.85 1165.29,-533.85 1165.29,-539.85 1159.29,-545.85 1153.29,-545.85"/>
<text xml:space="preserve" text-anchor="middle" x="1005.27" y="-520.6" font-family="Aptos" font-size="19.00">QueryAnalysis</text>
<text xml:space="preserve" text-anchor="middle" x="1005.27" y="-501.1" font-family="Aptos" font-size="19.00">• domain = JOURNEY_CAMPAIGN</text>
<text xml:space="preserve" text-anchor="middle" x="1005.27" y="-481.6" font-family="Aptos" font-size="19.00">• table = dim_campaign</text>
<text xml:space="preserve" text-anchor="middle" x="1005.27" y="-462.1" font-family="Aptos" font-size="19.00">• api = /ajo/journey</text>
</g>
<!-- tokens&#45;&gt;analysis -->
<g id="edge2" class="edge">
<title>tokens&#45;&gt;analysis</title>
<path fill="none" stroke="#687386" stroke-width="1.7" d="M701.42,-500C701.42,-500 834.78,-500 834.78,-500"/>
<polygon fill="#687386" stroke="#687386" stroke-width="1.7" points="834.78,-502.52 841.98,-500 834.78,-497.48 834.78,-502.52"/>
</g>
<!-- sql -->
<g id="node4" class="node">
<title>sql</title>
<path fill="#eaf3ff" stroke="#1769aa" stroke-width="2" d="M1159.29,-394.7C1159.29,-394.7 851.25,-394.7 851.25,-394.7 845.25,-394.7 839.25,-388.7 839.25,-382.7 839.25,-382.7 839.25,-314.3 839.25,-314.3 839.25,-308.3 845.25,-302.3 851.25,-302.3 851.25,-302.3 1159.29,-302.3 1159.29,-302.3 1165.29,-302.3 1171.29,-308.3 1171.29,-314.3 1171.29,-314.3 1171.29,-382.7 1171.29,-382.7 1171.29,-388.7 1165.29,-394.7 1159.29,-394.7"/>
<text xml:space="preserve" text-anchor="middle" x="1005.27" y="-369.45" font-family="Aptos" font-size="19.00">SQL Step</text>
<text xml:space="preserve" text-anchor="middle" x="1005.27" y="-349.95" font-family="Aptos" font-size="19.00">• SELECT name, lastdeployedtime</text>
<text xml:space="preserve" text-anchor="middle" x="1005.27" y="-330.45" font-family="Aptos" font-size="19.00">• FROM dim_campaign</text>
<text xml:space="preserve" text-anchor="middle" x="1005.27" y="-310.95" font-family="Aptos" font-size="19.00">• WHERE name = Birthday Message</text>
</g>
<!-- analysis&#45;&gt;sql -->
<g id="edge3" class="edge">
<title>analysis&#45;&gt;sql</title>
<path fill="none" stroke="#687386" stroke-width="1.7" d="M1005.27,-452.65C1005.27,-452.65 1005.27,-405.24 1005.27,-405.24"/>
<polygon fill="#687386" stroke="#687386" stroke-width="1.7" points="1007.79,-405.24 1005.27,-398.04 1002.75,-405.24 1007.79,-405.24"/>
<text xml:space="preserve" text-anchor="middle" x="1043.89" y="-418.57" font-family="Aptos" font-size="12.50" fill="#425466">generate SQL</text>
</g>
<!-- sqlres -->
<g id="node5" class="node">
<title>sqlres</title>
<path fill="#eaf3ff" stroke="#1769aa" stroke-width="2" d="M1489.29,-375.2C1489.29,-375.2 1283.25,-375.2 1283.25,-375.2 1277.25,-375.2 1271.25,-369.2 1271.25,-363.2 1271.25,-363.2 1271.25,-333.8 1271.25,-333.8 1271.25,-327.8 1277.25,-321.8 1283.25,-321.8 1283.25,-321.8 1489.29,-321.8 1489.29,-321.8 1495.29,-321.8 1501.29,-327.8 1501.29,-333.8 1501.29,-333.8 1501.29,-363.2 1501.29,-363.2 1501.29,-369.2 1495.29,-375.2 1489.29,-375.2"/>
<text xml:space="preserve" text-anchor="middle" x="1386.27" y="-349.95" font-family="Aptos" font-size="19.00">SQL Result</text>
<text xml:space="preserve" text-anchor="middle" x="1386.27" y="-330.45" font-family="Aptos" font-size="19.00">• lastdeployedtime = null</text>
</g>
<!-- sql&#45;&gt;sqlres -->
<g id="edge4" class="edge">
<title>sql&#45;&gt;sqlres</title>
<path fill="none" stroke="#687386" stroke-width="1.7" d="M1172.1,-349C1172.1,-349 1260.5,-349 1260.5,-349"/>
<polygon fill="#687386" stroke="#687386" stroke-width="1.7" points="1260.5,-351.52 1267.7,-349 1260.5,-346.48 1260.5,-351.52"/>
</g>
<!-- api -->
<g id="node6" class="node">
<title>api</title>
<path fill="#fff3e0" stroke="#d97706" stroke-width="2" d="M1526.41,-243.55C1526.41,-243.55 1246.12,-243.55 1246.12,-243.55 1240.12,-243.55 1234.12,-237.55 1234.12,-231.55 1234.12,-231.55 1234.12,-163.15 1234.12,-163.15 1234.12,-157.15 1240.12,-151.15 1246.12,-151.15 1246.12,-151.15 1526.41,-151.15 1526.41,-151.15 1532.41,-151.15 1538.41,-157.15 1538.41,-163.15 1538.41,-163.15 1538.41,-231.55 1538.41,-231.55 1538.41,-237.55 1532.41,-243.55 1526.41,-243.55"/>
<text xml:space="preserve" text-anchor="middle" x="1386.27" y="-218.3" font-family="Aptos" font-size="19.00">API Dry&#45;Run</text>
<text xml:space="preserve" text-anchor="middle" x="1386.27" y="-198.8" font-family="Aptos" font-size="19.00">• GET /ajo/journey</text>
<text xml:space="preserve" text-anchor="middle" x="1386.27" y="-179.3" font-family="Aptos" font-size="19.00">• filter=name==Birthday Message</text>
<text xml:space="preserve" text-anchor="middle" x="1386.27" y="-159.8" font-family="Aptos" font-size="19.00">• dry_run = true</text>
</g>
<!-- sqlres&#45;&gt;api -->
<g id="edge5" class="edge">
<title>sqlres&#45;&gt;api</title>
<path fill="none" stroke="#687386" stroke-width="1.7" d="M1386.27,-321.13C1386.27,-321.13 1386.27,-254.18 1386.27,-254.18"/>
<polygon fill="#687386" stroke="#687386" stroke-width="1.7" points="1388.79,-254.18 1386.27,-246.98 1383.75,-254.18 1388.79,-254.18"/>
<text xml:space="preserve" text-anchor="middle" x="1441.02" y="-267.43" font-family="Aptos" font-size="12.50" fill="#425466">plan verification API</text>
</g>
<!-- gold -->
<g id="node7" class="node">
<title>gold</title>
<path fill="#fff3e0" stroke="#d97706" stroke-width="2" d="M1908.91,-224.05C1908.91,-224.05 1667.62,-224.05 1667.62,-224.05 1661.62,-224.05 1655.62,-218.05 1655.62,-212.05 1655.62,-212.05 1655.62,-182.65 1655.62,-182.65 1655.62,-176.65 1661.62,-170.65 1667.62,-170.65 1667.62,-170.65 1908.91,-170.65 1908.91,-170.65 1914.91,-170.65 1920.91,-176.65 1920.91,-182.65 1920.91,-182.65 1920.91,-212.05 1920.91,-212.05 1920.91,-218.05 1914.91,-224.05 1908.91,-224.05"/>
<text xml:space="preserve" text-anchor="middle" x="1788.27" y="-198.8" font-family="Aptos" font-size="19.00">Gold API Comparison</text>
<text xml:space="preserve" text-anchor="middle" x="1788.27" y="-179.3" font-family="Aptos" font-size="19.00">• method/path/params match</text>
</g>
<!-- api&#45;&gt;gold -->
<g id="edge6" class="edge">
<title>api&#45;&gt;gold</title>
<path fill="none" stroke="#687386" stroke-width="1.7" d="M1539.4,-197C1539.4,-197 1644.85,-197 1644.85,-197"/>
<polygon fill="#687386" stroke="#687386" stroke-width="1.7" points="1644.85,-199.52 1652.05,-197 1644.85,-194.48 1644.85,-199.52"/>
</g>
<!-- slots -->
<g id="node8" class="node">
<title>slots</title>
<path fill="#e8f7ed" stroke="#1a7f52" stroke-width="2" d="M1932.54,-92.4C1932.54,-92.4 1644,-92.4 1644,-92.4 1638,-92.4 1632,-86.4 1632,-80.4 1632,-80.4 1632,-12 1632,-12 1632,-6 1638,0 1644,0 1644,0 1932.54,0 1932.54,0 1938.54,0 1944.54,-6 1944.54,-12 1944.54,-12 1944.54,-80.4 1944.54,-80.4 1944.54,-86.4 1938.54,-92.4 1932.54,-92.4"/>
<text xml:space="preserve" text-anchor="middle" x="1788.27" y="-67.15" font-family="Aptos" font-size="19.00">AnswerSlots</text>
<text xml:space="preserve" text-anchor="middle" x="1788.27" y="-47.65" font-family="Aptos" font-size="19.00">• entity_name = Birthday Message</text>
<text xml:space="preserve" text-anchor="middle" x="1788.27" y="-28.15" font-family="Aptos" font-size="19.00">• published_time = null</text>
<text xml:space="preserve" text-anchor="middle" x="1788.27" y="-8.65" font-family="Aptos" font-size="19.00">• dry_run = true</text>
</g>
<!-- gold&#45;&gt;slots -->
<g id="edge7" class="edge">
<title>gold&#45;&gt;slots</title>
<path fill="none" stroke="#687386" stroke-width="1.7" d="M1788.27,-169.98C1788.27,-169.98 1788.27,-103.03 1788.27,-103.03"/>
<polygon fill="#687386" stroke="#687386" stroke-width="1.7" points="1790.79,-103.03 1788.27,-95.83 1785.75,-103.03 1790.79,-103.03"/>
<text xml:space="preserve" text-anchor="middle" x="1828.39" y="-116.28" font-family="Aptos" font-size="12.50" fill="#425466">store evidence</text>
</g>
<!-- verifier -->
<g id="node9" class="node">
<title>verifier</title>
<path fill="#e8f7ed" stroke="#1a7f52" stroke-width="2" d="M2282.41,-82.65C2282.41,-82.65 2062.12,-82.65 2062.12,-82.65 2056.12,-82.65 2050.12,-76.65 2050.12,-70.65 2050.12,-70.65 2050.12,-21.75 2050.12,-21.75 2050.12,-15.75 2056.12,-9.75 2062.12,-9.75 2062.12,-9.75 2282.41,-9.75 2282.41,-9.75 2288.41,-9.75 2294.41,-15.75 2294.41,-21.75 2294.41,-21.75 2294.41,-70.65 2294.41,-70.65 2294.41,-76.65 2288.41,-82.65 2282.41,-82.65"/>
<text xml:space="preserve" text-anchor="middle" x="2172.27" y="-57.4" font-family="Aptos" font-size="19.00">Verifier</text>
<text xml:space="preserve" text-anchor="middle" x="2172.27" y="-37.9" font-family="Aptos" font-size="19.00">• API confirmation blocked</text>
<text xml:space="preserve" text-anchor="middle" x="2172.27" y="-18.4" font-family="Aptos" font-size="19.00">• dry&#45;run caveat required</text>
</g>
<!-- slots&#45;&gt;verifier -->
<g id="edge8" class="edge">
<title>slots&#45;&gt;verifier</title>
<path fill="none" stroke="#687386" stroke-width="1.7" d="M1945.29,-46C1945.29,-46 2039.35,-46 2039.35,-46"/>
<polygon fill="#687386" stroke="#687386" stroke-width="1.7" points="2039.35,-48.52 2046.55,-46 2039.35,-43.48 2039.35,-48.52"/>
</g>
<!-- answer -->
<g id="node10" class="node">
<title>answer</title>
<path fill="#e8f7ed" stroke="#1a7f52" stroke-width="2" d="M2617.79,-92.4C2617.79,-92.4 2414.75,-92.4 2414.75,-92.4 2408.75,-92.4 2402.75,-86.4 2402.75,-80.4 2402.75,-80.4 2402.75,-12 2402.75,-12 2402.75,-6 2408.75,0 2414.75,0 2414.75,0 2617.79,0 2617.79,0 2623.79,0 2629.79,-6 2629.79,-12 2629.79,-12 2629.79,-80.4 2629.79,-80.4 2629.79,-86.4 2623.79,-92.4 2617.79,-92.4"/>
<text xml:space="preserve" text-anchor="middle" x="2516.27" y="-67.15" font-family="Aptos" font-size="19.00">FinalAnswer</text>
<text xml:space="preserve" text-anchor="middle" x="2516.27" y="-47.65" font-family="Aptos" font-size="19.00">• not published</text>
<text xml:space="preserve" text-anchor="middle" x="2516.27" y="-28.15" font-family="Aptos" font-size="19.00">• live API verification not</text>
<text xml:space="preserve" text-anchor="middle" x="2516.27" y="-8.65" font-family="Aptos" font-size="19.00">executed</text>
</g>
<!-- verifier&#45;&gt;answer -->
<g id="edge9" class="edge">
<title>verifier&#45;&gt;answer</title>
<path fill="none" stroke="#687386" stroke-width="1.7" d="M2295.01,-46C2295.01,-46 2392.14,-46 2392.14,-46"/>
<polygon fill="#687386" stroke="#687386" stroke-width="1.7" points="2392.14,-48.52 2399.34,-46 2392.14,-43.48 2392.14,-48.52"/>
</g>
<!-- traj -->
<g id="node11" class="node">
<title>traj</title>
<path fill="#f2f4f7" stroke="#687386" stroke-width="2" d="M2969.79,-82.65C2969.79,-82.65 2724.75,-82.65 2724.75,-82.65 2718.75,-82.65 2712.75,-76.65 2712.75,-70.65 2712.75,-70.65 2712.75,-21.75 2712.75,-21.75 2712.75,-15.75 2718.75,-9.75 2724.75,-9.75 2724.75,-9.75 2969.79,-9.75 2969.79,-9.75 2975.79,-9.75 2981.79,-15.75 2981.79,-21.75 2981.79,-21.75 2981.79,-70.65 2981.79,-70.65 2981.79,-76.65 2975.79,-82.65 2969.79,-82.65"/>
<text xml:space="preserve" text-anchor="middle" x="2847.27" y="-57.4" font-family="Aptos" font-size="19.00">Artifact</text>
<text xml:space="preserve" text-anchor="middle" x="2847.27" y="-37.9" font-family="Aptos" font-size="19.00">• trajectory.json records SQL,</text>
<text xml:space="preserve" text-anchor="middle" x="2847.27" y="-18.4" font-family="Aptos" font-size="19.00">API dry&#45;run, diagnostics</text>
</g>
<!-- answer&#45;&gt;traj -->
<g id="edge10" class="edge">
<title>answer&#45;&gt;traj</title>
<path fill="none" stroke="#687386" stroke-width="1.7" d="M2630.64,-46C2630.64,-46 2702.03,-46 2702.03,-46"/>
<polygon fill="#687386" stroke="#687386" stroke-width="1.7" points="2702.03,-48.52 2709.23,-46 2702.03,-43.48 2702.03,-48.52"/>
</g>
</g>
</svg>
