<?xml version="1.0" encoding="UTF-8" standalone="no"?>
<!DOCTYPE svg PUBLIC "-//W3C//DTD SVG 1.1//EN"
 "http://www.w3.org/Graphics/SVG/1.1/DTD/svg11.dtd">
<!-- Generated by graphviz version 14.1.5 (20260411.2331)
 -->
<!-- Title: G Pages: 1 -->
<svg width="1079pt" height="672pt"
 viewBox="0.00 0.00 1079.00 672.00" xmlns="http://www.w3.org/2000/svg" xmlns:xlink="http://www.w3.org/1999/xlink">
<g id="graph0" class="graph" transform="scale(1 1) rotate(0) translate(7.2 664.95)">
<title>G</title>
<polygon fill="white" stroke="none" points="-7.2,7.2 -7.2,-664.95 1071.72,-664.95 1071.72,7.2 -7.2,7.2"/>
<!-- request -->
<g id="node1" class="node">
<title>request</title>
<path fill="#efe7ff" stroke="#6d5bd0" stroke-width="2" d="M182.04,-628.5C182.04,-628.5 63,-628.5 63,-628.5 57,-628.5 51,-622.5 51,-616.5 51,-616.5 51,-548.1 51,-548.1 51,-542.1 57,-536.1 63,-536.1 63,-536.1 182.04,-536.1 182.04,-536.1 188.04,-536.1 194.04,-542.1 194.04,-548.1 194.04,-548.1 194.04,-616.5 194.04,-616.5 194.04,-622.5 188.04,-628.5 182.04,-628.5"/>
<text xml:space="preserve" text-anchor="middle" x="122.52" y="-603.25" font-family="Aptos" font-size="19.00">Query request</text>
<text xml:space="preserve" text-anchor="middle" x="122.52" y="-583.75" font-family="Aptos" font-size="19.00">• query_id</text>
<text xml:space="preserve" text-anchor="middle" x="122.52" y="-564.25" font-family="Aptos" font-size="19.00">• strategy</text>
<text xml:space="preserve" text-anchor="middle" x="122.52" y="-544.75" font-family="Aptos" font-size="19.00">• file mtimes</text>
</g>
<!-- l1 -->
<g id="node2" class="node">
<title>l1</title>
<path fill="#f2f4f7" stroke="#687386" stroke-width="2" d="M233.04,-448.1C233.04,-448.1 12,-448.1 12,-448.1 6,-448.1 0,-442.1 0,-436.1 0,-436.1 0,-387.2 0,-387.2 0,-381.2 6,-375.2 12,-375.2 12,-375.2 233.04,-375.2 233.04,-375.2 239.04,-375.2 245.04,-381.2 245.04,-387.2 245.04,-387.2 245.04,-436.1 245.04,-436.1 245.04,-442.1 239.04,-448.1 233.04,-448.1"/>
<text xml:space="preserve" text-anchor="middle" x="122.52" y="-422.85" font-family="Aptos" font-size="19.00">L1 In&#45;memory cache</text>
<text xml:space="preserve" text-anchor="middle" x="122.52" y="-403.35" font-family="Aptos" font-size="19.00">• QueryAnalysis cache</text>
<text xml:space="preserve" text-anchor="middle" x="122.52" y="-383.85" font-family="Aptos" font-size="19.00">• template selection cache</text>
</g>
<!-- request&#45;&gt;l1 -->
<g id="edge1" class="edge">
<title>request&#45;&gt;l1</title>
<path fill="none" stroke="#687386" stroke-width="1.7" d="M122.52,-535.22C122.52,-535.22 122.52,-458.63 122.52,-458.63"/>
<polygon fill="#687386" stroke="#687386" stroke-width="1.7" points="125.04,-458.63 122.52,-451.43 120,-458.63 125.04,-458.63"/>
<text xml:space="preserve" text-anchor="middle" x="164.52" y="-471.98" font-family="Aptos" font-size="12.50" fill="#425466">lookup analysis</text>
</g>
<!-- hit1 -->
<g id="node3" class="node">
<title>hit1</title>
<path fill="#f2f4f7" stroke="#687386" stroke-width="2" d="M418.84,-442.17C418.84,-442.17 370,-417.13 370,-417.13 364.66,-414.39 364.66,-408.91 370,-406.17 370,-406.17 418.84,-381.13 418.84,-381.13 424.18,-378.39 434.86,-378.39 440.2,-381.13 440.2,-381.13 489.04,-406.17 489.04,-406.17 494.38,-408.91 494.38,-414.39 489.04,-417.13 489.04,-417.13 440.2,-442.17 440.2,-442.17 434.86,-444.91 424.18,-444.91 418.84,-442.17"/>
<text xml:space="preserve" text-anchor="middle" x="429.52" y="-403.35" font-family="Aptos" font-size="19.00">L1 hit?</text>
</g>
<!-- l1&#45;&gt;hit1 -->
<g id="edge2" class="edge">
<title>l1&#45;&gt;hit1</title>
<path fill="none" stroke="#687386" stroke-width="1.7" d="M245.62,-412C245.62,-412 348.32,-412 348.32,-412"/>
<polygon fill="#687386" stroke="#687386" stroke-width="1.7" points="348.32,-414.52 355.52,-412 348.32,-409.48 348.32,-414.52"/>
</g>
<!-- l2 -->
<g id="node4" class="node">
<title>l2</title>
<path fill="#f2f4f7" stroke="#687386" stroke-width="2" d="M384.16,-299.5C384.16,-299.5 178.88,-299.5 178.88,-299.5 172.88,-299.5 166.88,-293.5 166.88,-287.5 166.88,-287.5 166.88,-199.6 166.88,-199.6 166.88,-193.6 172.88,-187.6 178.88,-187.6 178.88,-187.6 384.16,-187.6 384.16,-187.6 390.16,-187.6 396.16,-193.6 396.16,-199.6 396.16,-199.6 396.16,-287.5 396.16,-287.5 396.16,-293.5 390.16,-299.5 384.16,-299.5"/>
<text xml:space="preserve" text-anchor="middle" x="281.52" y="-274.25" font-family="Aptos" font-size="19.00">L2 Disk cache</text>
<text xml:space="preserve" text-anchor="middle" x="281.52" y="-254.75" font-family="Aptos" font-size="19.00">• schema_summary.json</text>
<text xml:space="preserve" text-anchor="middle" x="281.52" y="-235.25" font-family="Aptos" font-size="19.00">• join_graph.json</text>
<text xml:space="preserve" text-anchor="middle" x="281.52" y="-215.75" font-family="Aptos" font-size="19.00">• endpoint_catalog.json</text>
<text xml:space="preserve" text-anchor="middle" x="281.52" y="-196.25" font-family="Aptos" font-size="19.00">• gold patterns</text>
</g>
<!-- hit1&#45;&gt;l2 -->
<g id="edge4" class="edge">
<title>hit1&#45;&gt;l2</title>
<path fill="none" stroke="#687386" stroke-width="1.7" d="M377.74,-401.13C377.74,-401.13 377.74,-310.26 377.74,-310.26"/>
<polygon fill="#687386" stroke="#687386" stroke-width="1.7" points="380.26,-310.26 377.74,-303.06 375.22,-310.26 380.26,-310.26"/>
<text xml:space="preserve" text-anchor="middle" x="362.27" y="-340.33" font-family="Aptos" font-size="12.50" fill="#425466">no</text>
</g>
<!-- store -->
<g id="node8" class="node">
<title>store</title>
<path fill="#f2f4f7" stroke="#687386" stroke-width="2" d="M855.41,-657.75C855.41,-657.75 579.62,-657.75 579.62,-657.75 573.62,-657.75 567.62,-651.75 567.62,-645.75 567.62,-645.75 567.62,-518.85 567.62,-518.85 567.62,-512.85 573.62,-506.85 579.62,-506.85 579.62,-506.85 855.41,-506.85 855.41,-506.85 861.41,-506.85 867.41,-512.85 867.41,-518.85 867.41,-518.85 867.41,-645.75 867.41,-645.75 867.41,-651.75 861.41,-657.75 855.41,-657.75"/>
<text xml:space="preserve" text-anchor="middle" x="717.52" y="-632.5" font-family="Aptos" font-size="19.00">Artifact Store</text>
<text xml:space="preserve" text-anchor="middle" x="717.52" y="-613" font-family="Aptos" font-size="19.00">• metadata.json</text>
<text xml:space="preserve" text-anchor="middle" x="717.52" y="-593.5" font-family="Aptos" font-size="19.00">• filled_system_prompt.txt</text>
<text xml:space="preserve" text-anchor="middle" x="717.52" y="-574" font-family="Aptos" font-size="19.00">• trajectory.json</text>
<text xml:space="preserve" text-anchor="middle" x="717.52" y="-554.5" font-family="Aptos" font-size="19.00">• eval reports</text>
<text xml:space="preserve" text-anchor="middle" x="717.52" y="-535" font-family="Aptos" font-size="19.00">• source_code.zip</text>
<text xml:space="preserve" text-anchor="middle" x="717.52" y="-515.5" font-family="Aptos" font-size="19.00">• final_submission_manifest.json</text>
</g>
<!-- hit1&#45;&gt;store -->
<g id="edge3" class="edge">
<title>hit1&#45;&gt;store</title>
<path fill="none" stroke="#687386" stroke-width="1.7" d="M429.52,-448.67C429.52,-480.39 429.52,-521 429.52,-521 429.52,-521 557,-521 557,-521"/>
<polygon fill="#687386" stroke="#687386" stroke-width="1.7" points="557,-523.52 564.2,-521 557,-518.48 557,-523.52"/>
<text xml:space="preserve" text-anchor="middle" x="562.02" y="-471.98" font-family="Aptos" font-size="12.50" fill="#425466">yes: reuse</text>
</g>
<!-- fresh -->
<g id="node5" class="node">
<title>fresh</title>
<path fill="#f2f4f7" stroke="#687386" stroke-width="2" d="M706.61,-311.44C706.61,-311.44 569.64,-248.56 569.64,-248.56 564.18,-246.05 564.18,-241.05 569.64,-238.54 569.64,-238.54 706.61,-175.66 706.61,-175.66 712.07,-173.15 722.97,-173.15 728.43,-175.66 728.43,-175.66 865.4,-238.54 865.4,-238.54 870.86,-241.05 870.86,-246.05 865.4,-248.56 865.4,-248.56 728.43,-311.44 728.43,-311.44 722.97,-313.95 712.07,-313.95 706.61,-311.44"/>
<text xml:space="preserve" text-anchor="middle" x="717.52" y="-254.75" font-family="Aptos" font-size="19.00">fresh?</text>
<text xml:space="preserve" text-anchor="middle" x="717.52" y="-235.25" font-family="Aptos" font-size="19.00">• file mtimes</text>
<text xml:space="preserve" text-anchor="middle" x="717.52" y="-215.75" font-family="Aptos" font-size="19.00">• artifact version</text>
</g>
<!-- l2&#45;&gt;fresh -->
<g id="edge5" class="edge">
<title>l2&#45;&gt;fresh</title>
<path fill="none" stroke="#687386" stroke-width="1.7" d="M396.93,-262C396.93,-262 586.79,-262 586.79,-262"/>
<polygon fill="#687386" stroke="#687386" stroke-width="1.7" points="586.79,-264.52 593.99,-262 586.79,-259.48 586.79,-264.52"/>
</g>
<!-- l3 -->
<g id="node6" class="node">
<title>l3</title>
<path fill="#eaf3ff" stroke="#1769aa" stroke-width="2" d="M626.91,-111.9C626.91,-111.9 426.12,-111.9 426.12,-111.9 420.12,-111.9 414.12,-105.9 414.12,-99.9 414.12,-99.9 414.12,-12 414.12,-12 414.12,-6 420.12,0 426.12,0 426.12,0 626.91,0 626.91,0 632.91,0 638.91,-6 638.91,-12 638.91,-12 638.91,-99.9 638.91,-99.9 638.91,-105.9 632.91,-111.9 626.91,-111.9"/>
<text xml:space="preserve" text-anchor="middle" x="526.52" y="-86.65" font-family="Aptos" font-size="19.00">L3 Local database</text>
<text xml:space="preserve" text-anchor="middle" x="526.52" y="-67.15" font-family="Aptos" font-size="19.00">• DuckDB</text>
<text xml:space="preserve" text-anchor="middle" x="526.52" y="-47.65" font-family="Aptos" font-size="19.00">• DBSnapshot parquet</text>
<text xml:space="preserve" text-anchor="middle" x="526.52" y="-28.15" font-family="Aptos" font-size="19.00">• dim_* tables</text>
<text xml:space="preserve" text-anchor="middle" x="526.52" y="-8.65" font-family="Aptos" font-size="19.00">• hkg_br_* bridge tables</text>
</g>
<!-- fresh&#45;&gt;l3 -->
<g id="edge7" class="edge">
<title>fresh&#45;&gt;l3</title>
<path fill="none" stroke="#687386" stroke-width="1.7" d="M598.82,-224.18C598.82,-224.18 598.82,-122.31 598.82,-122.31"/>
<polygon fill="#687386" stroke="#687386" stroke-width="1.7" points="601.34,-122.31 598.82,-115.11 596.3,-122.31 601.34,-122.31"/>
<text xml:space="preserve" text-anchor="middle" x="675.02" y="-135.78" font-family="Aptos" font-size="12.50" fill="#425466">no: rebuild schema</text>
</g>
<!-- fresh&#45;&gt;store -->
<g id="edge6" class="edge">
<title>fresh&#45;&gt;store</title>
<path fill="none" stroke="#687386" stroke-width="1.7" d="M717.52,-317.47C717.52,-317.47 717.52,-496.12 717.52,-496.12"/>
<polygon fill="#687386" stroke="#687386" stroke-width="1.7" points="715,-496.12 717.52,-503.32 720.04,-496.12 715,-496.12"/>
<text xml:space="preserve" text-anchor="middle" x="766.27" y="-406.15" font-family="Aptos" font-size="12.50" fill="#425466">yes: load artifacts</text>
</g>
<!-- l3&#45;&gt;l2 -->
<g id="edge8" class="edge">
<title>l3&#45;&gt;l2</title>
<path fill="none" stroke="#687386" stroke-width="1.7" d="M456.92,-112.71C456.92,-161.82 456.92,-225 456.92,-225 456.92,-225 406.82,-225 406.82,-225"/>
<polygon fill="#687386" stroke="#687386" stroke-width="1.7" points="406.82,-222.48 399.62,-225 406.82,-227.52 406.82,-222.48"/>
<text xml:space="preserve" text-anchor="middle" x="431.77" y="-135.78" font-family="Aptos" font-size="12.50" fill="#425466">write fresh cache</text>
</g>
<!-- l4 -->
<g id="node7" class="node">
<title>l4</title>
<path fill="#fff3e0" stroke="#d97706" stroke-width="2" d="M1049.79,-102.15C1049.79,-102.15 809.25,-102.15 809.25,-102.15 803.25,-102.15 797.25,-96.15 797.25,-90.15 797.25,-90.15 797.25,-21.75 797.25,-21.75 797.25,-15.75 803.25,-9.75 809.25,-9.75 809.25,-9.75 1049.79,-9.75 1049.79,-9.75 1055.79,-9.75 1061.79,-15.75 1061.79,-21.75 1061.79,-21.75 1061.79,-90.15 1061.79,-90.15 1061.79,-96.15 1055.79,-102.15 1049.79,-102.15"/>
<text xml:space="preserve" text-anchor="middle" x="929.52" y="-76.9" font-family="Aptos" font-size="19.00">L4 External API</text>
<text xml:space="preserve" text-anchor="middle" x="929.52" y="-57.4" font-family="Aptos" font-size="19.00">• Adobe Journey Optimizer</text>
<text xml:space="preserve" text-anchor="middle" x="929.52" y="-37.9" font-family="Aptos" font-size="19.00">• Adobe Experience Platform</text>
<text xml:space="preserve" text-anchor="middle" x="929.52" y="-18.4" font-family="Aptos" font-size="19.00">• dry&#45;run or live</text>
</g>
<!-- l3&#45;&gt;l4 -->
<g id="edge9" class="edge">
<title>l3&#45;&gt;l4</title>
<path fill="none" stroke="#687386" stroke-width="1.7" d="M639.85,-56C639.85,-56 786.6,-56 786.6,-56"/>
<polygon fill="#687386" stroke="#687386" stroke-width="1.7" points="786.6,-58.52 793.8,-56 786.6,-53.48 786.6,-58.52"/>
</g>
<!-- l4&#45;&gt;store -->
<g id="edge10" class="edge">
<title>l4&#45;&gt;store</title>
<path fill="none" stroke="#687386" stroke-width="1.7" d="M969.05,-103.1C969.05,-232.22 969.05,-582 969.05,-582 969.05,-582 877.97,-582 877.97,-582"/>
<polygon fill="#687386" stroke="#687386" stroke-width="1.7" points="877.97,-579.48 870.77,-582 877.97,-584.52 877.97,-579.48"/>
<text xml:space="preserve" text-anchor="middle" x="997.02" y="-340.33" font-family="Aptos" font-size="12.50" fill="#425466">log dry&#45;run/live evidence</text>
</g>
</g>
</svg>
