<?xml version="1.0" encoding="UTF-8" standalone="no"?>
<!DOCTYPE svg PUBLIC "-//W3C//DTD SVG 1.1//EN"
 "http://www.w3.org/Graphics/SVG/1.1/DTD/svg11.dtd">
<!-- Generated by graphviz version 14.1.5 (20260411.2331)
 -->
<!-- Title: G Pages: 1 -->
<svg width="736pt" height="572pt"
 viewBox="0.00 0.00 736.00 572.00" xmlns="http://www.w3.org/2000/svg" xmlns:xlink="http://www.w3.org/1999/xlink">
<g id="graph0" class="graph" transform="scale(1 1) rotate(0) translate(7.2 565)">
<title>G</title>
<polygon fill="white" stroke="none" points="-7.2,7.2 -7.2,-565 729.24,-565 729.24,7.2 -7.2,7.2"/>
<!-- q -->
<g id="node1" class="node">
<title>q</title>
<path fill="#efe7ff" stroke="#6d5bd0" stroke-width="2" d="M218.01,-557.8C218.01,-557.8 56.97,-557.8 56.97,-557.8 50.97,-557.8 44.97,-551.8 44.97,-545.8 44.97,-545.8 44.97,-516.4 44.97,-516.4 44.97,-510.4 50.97,-504.4 56.97,-504.4 56.97,-504.4 218.01,-504.4 218.01,-504.4 224.01,-504.4 230.01,-510.4 230.01,-516.4 230.01,-516.4 230.01,-545.8 230.01,-545.8 230.01,-551.8 224.01,-557.8 218.01,-557.8"/>
<text xml:space="preserve" text-anchor="middle" x="137.49" y="-532.55" font-family="Aptos" font-size="19.00">Question</text>
<text xml:space="preserve" text-anchor="middle" x="137.49" y="-513.05" font-family="Aptos" font-size="19.00">• original query text</text>
</g>
<!-- d1 -->
<g id="node2" class="node">
<title>d1</title>
<path fill="#efe7ff" stroke="#6d5bd0" stroke-width="2" d="M125.88,-442.61C125.88,-442.61 11.61,-412.69 11.61,-412.69 5.8,-411.17 5.8,-408.13 11.61,-406.61 11.61,-406.61 125.88,-376.69 125.88,-376.69 131.69,-375.17 143.29,-375.17 149.1,-376.69 149.1,-376.69 263.37,-406.61 263.37,-406.61 269.18,-408.13 269.18,-411.17 263.37,-412.69 263.37,-412.69 149.1,-442.61 149.1,-442.61 143.29,-444.13 131.69,-444.13 125.88,-442.61"/>
<text xml:space="preserve" text-anchor="middle" x="137.49" y="-401.35" font-family="Aptos" font-size="19.00">starts how many?</text>
</g>
<!-- q&#45;&gt;d1 -->
<g id="edge1" class="edge">
<title>q&#45;&gt;d1</title>
<path fill="none" stroke="#687386" stroke-width="1.7" d="M137.49,-503.54C137.49,-503.54 137.49,-456.09 137.49,-456.09"/>
<polygon fill="#687386" stroke="#687386" stroke-width="1.7" points="140.01,-456.09 137.49,-448.89 134.97,-456.09 140.01,-456.09"/>
<text xml:space="preserve" text-anchor="middle" x="174.99" y="-469.52" font-family="Aptos" font-size="12.50" fill="#425466">classify intent</text>
</g>
<!-- count -->
<g id="node3" class="node">
<title>count</title>
<path fill="#e8f7ed" stroke="#1a7f52" stroke-width="2" d="M177.76,-305.6C177.76,-305.6 39.22,-305.6 39.22,-305.6 33.22,-305.6 27.22,-299.6 27.22,-293.6 27.22,-293.6 27.22,-264.2 27.22,-264.2 27.22,-258.2 33.22,-252.2 39.22,-252.2 39.22,-252.2 177.76,-252.2 177.76,-252.2 183.76,-252.2 189.76,-258.2 189.76,-264.2 189.76,-264.2 189.76,-293.6 189.76,-293.6 189.76,-299.6 183.76,-305.6 177.76,-305.6"/>
<text xml:space="preserve" text-anchor="middle" x="108.49" y="-280.35" font-family="Aptos" font-size="19.00">COUNT shape</text>
<text xml:space="preserve" text-anchor="middle" x="108.49" y="-260.85" font-family="Aptos" font-size="19.00">• start with count</text>
</g>
<!-- d1&#45;&gt;count -->
<g id="edge2" class="edge">
<title>d1&#45;&gt;count</title>
<path fill="none" stroke="#687386" stroke-width="1.7" d="M108.49,-380.31C108.49,-380.31 108.49,-316.13 108.49,-316.13"/>
<polygon fill="#687386" stroke="#687386" stroke-width="1.7" points="111.01,-316.13 108.49,-308.93 105.97,-316.13 111.01,-316.13"/>
<text xml:space="preserve" text-anchor="middle" x="117.87" y="-338.77" font-family="Aptos" font-size="12.50" fill="#425466">yes</text>
</g>
<!-- d2 -->
<g id="node4" class="node">
<title>d2</title>
<path fill="#efe7ff" stroke="#6d5bd0" stroke-width="2" d="M312.21,-310.8C312.21,-310.8 235.75,-283 235.75,-283 230.11,-280.95 230.11,-276.85 235.75,-274.8 235.75,-274.8 312.21,-247 312.21,-247 317.85,-244.95 329.13,-244.95 334.77,-247 334.77,-247 411.23,-274.8 411.23,-274.8 416.87,-276.85 416.87,-280.95 411.23,-283 411.23,-283 334.77,-310.8 334.77,-310.8 329.13,-312.85 317.85,-312.85 312.21,-310.8"/>
<text xml:space="preserve" text-anchor="middle" x="323.49" y="-270.6" font-family="Aptos" font-size="19.00">asks when?</text>
</g>
<!-- d1&#45;&gt;d2 -->
<g id="edge3" class="edge">
<title>d1&#45;&gt;d2</title>
<path fill="none" stroke="#687386" stroke-width="1.7" d="M249.73,-402.25C249.73,-402.25 249.73,-298.77 249.73,-298.77"/>
<polygon fill="#687386" stroke="#687386" stroke-width="1.7" points="252.25,-298.77 249.73,-291.57 247.21,-298.77 252.25,-298.77"/>
<text xml:space="preserve" text-anchor="middle" x="252.24" y="-338.77" font-family="Aptos" font-size="12.50" fill="#425466">no</text>
</g>
<!-- when -->
<g id="node5" class="node">
<title>when</title>
<path fill="#e8f7ed" stroke="#1a7f52" stroke-width="2" d="M333.89,-174.85C333.89,-174.85 121.1,-174.85 121.1,-174.85 115.1,-174.85 109.1,-168.85 109.1,-162.85 109.1,-162.85 109.1,-133.45 109.1,-133.45 109.1,-127.45 115.1,-121.45 121.1,-121.45 121.1,-121.45 333.89,-121.45 333.89,-121.45 339.89,-121.45 345.89,-127.45 345.89,-133.45 345.89,-133.45 345.89,-162.85 345.89,-162.85 345.89,-168.85 339.89,-174.85 333.89,-174.85"/>
<text xml:space="preserve" text-anchor="middle" x="227.49" y="-149.6" font-family="Aptos" font-size="19.00">WHEN shape</text>
<text xml:space="preserve" text-anchor="middle" x="227.49" y="-130.1" font-family="Aptos" font-size="19.00">• date/time or unavailable</text>
</g>
<!-- d2&#45;&gt;when -->
<g id="edge4" class="edge">
<title>d2&#45;&gt;when</title>
<path fill="none" stroke="#687386" stroke-width="1.7" d="M285.18,-255.83C285.18,-255.83 285.18,-185.29 285.18,-185.29"/>
<polygon fill="#687386" stroke="#687386" stroke-width="1.7" points="287.7,-185.29 285.18,-178.09 282.66,-185.29 287.7,-185.29"/>
<text xml:space="preserve" text-anchor="middle" x="236.87" y="-208.03" font-family="Aptos" font-size="12.50" fill="#425466">yes</text>
</g>
<!-- d3 -->
<g id="node6" class="node">
<title>d3</title>
<path fill="#efe7ff" stroke="#6d5bd0" stroke-width="2" d="M539.75,-181.67C539.75,-181.67 392.68,-150.63 392.68,-150.63 386.81,-149.39 386.81,-146.91 392.68,-145.67 392.68,-145.67 539.75,-114.63 539.75,-114.63 545.62,-113.39 557.36,-113.39 563.23,-114.63 563.23,-114.63 710.3,-145.67 710.3,-145.67 716.17,-146.91 716.17,-149.39 710.3,-150.63 710.3,-150.63 563.23,-181.67 563.23,-181.67 557.36,-182.91 545.62,-182.91 539.75,-181.67"/>
<text xml:space="preserve" text-anchor="middle" x="551.49" y="-139.85" font-family="Aptos" font-size="19.00">asks which/list/status?</text>
</g>
<!-- d2&#45;&gt;d3 -->
<g id="edge5" class="edge">
<title>d2&#45;&gt;d3</title>
<path fill="none" stroke="#687386" stroke-width="1.7" d="M401.72,-270.32C401.72,-270.32 401.72,-163.28 401.72,-163.28"/>
<polygon fill="#687386" stroke="#687386" stroke-width="1.7" points="404.24,-163.28 401.72,-156.08 399.2,-163.28 404.24,-163.28"/>
<text xml:space="preserve" text-anchor="middle" x="425.24" y="-208.03" font-family="Aptos" font-size="12.50" fill="#425466">no</text>
</g>
<!-- other -->
<g id="node7" class="node">
<title>other</title>
<path fill="#e8f7ed" stroke="#1a7f52" stroke-width="2" d="M655.64,-53.4C655.64,-53.4 447.35,-53.4 447.35,-53.4 441.35,-53.4 435.35,-47.4 435.35,-41.4 435.35,-41.4 435.35,-12 435.35,-12 435.35,-6 441.35,0 447.35,0 447.35,0 655.64,0 655.64,0 661.64,0 667.64,-6 667.64,-12 667.64,-12 667.64,-41.4 667.64,-41.4 667.64,-47.4 661.64,-53.4 655.64,-53.4"/>
<text xml:space="preserve" text-anchor="middle" x="551.49" y="-28.15" font-family="Aptos" font-size="19.00">LIST / STATUS / DETAIL</text>
<text xml:space="preserve" text-anchor="middle" x="551.49" y="-8.65" font-family="Aptos" font-size="19.00">• choose answer shape</text>
</g>
<!-- d3&#45;&gt;other -->
<g id="edge6" class="edge">
<title>d3&#45;&gt;other</title>
<path fill="none" stroke="#687386" stroke-width="1.7" d="M551.49,-111.38C551.49,-111.38 551.49,-63.86 551.49,-63.86"/>
<polygon fill="#687386" stroke="#687386" stroke-width="1.7" points="554.01,-63.86 551.49,-56.66 548.97,-63.86 554.01,-63.86"/>
<text xml:space="preserve" text-anchor="middle" x="596.12" y="-77.28" font-family="Aptos" font-size="12.50" fill="#425466">match keywords</text>
</g>
</g>
</svg>
