<?xml version="1.0" encoding="UTF-8" standalone="no"?>
<!DOCTYPE svg PUBLIC "-//W3C//DTD SVG 1.1//EN"
 "http://www.w3.org/Graphics/SVG/1.1/DTD/svg11.dtd">
<!-- Generated by graphviz version 14.1.5 (20260411.2331)
 -->
<!-- Title: G Pages: 1 -->
<svg width="1226pt" height="165pt"
 viewBox="0.00 0.00 1226.00 165.00" xmlns="http://www.w3.org/2000/svg" xmlns:xlink="http://www.w3.org/1999/xlink">
<g id="graph0" class="graph" transform="scale(1 1) rotate(0) translate(7.2 158.1)">
<title>G</title>
<polygon fill="white" stroke="none" points="-7.2,7.2 -7.2,-158.1 1219.11,-158.1 1219.11,7.2 -7.2,7.2"/>
<!-- eval -->
<g id="node1" class="node">
<title>eval</title>
<path fill="#f2f4f7" stroke="#687386" stroke-width="2" d="M140.79,-150.9C140.79,-150.9 12,-150.9 12,-150.9 6,-150.9 0,-144.9 0,-138.9 0,-138.9 0,-12 0,-12 0,-6 6,0 12,0 12,0 140.79,0 140.79,0 146.79,0 152.79,-6 152.79,-12 152.79,-12 152.79,-138.9 152.79,-138.9 152.79,-144.9 146.79,-150.9 140.79,-150.9"/>
<text xml:space="preserve" text-anchor="middle" x="76.39" y="-125.65" font-family="Aptos" font-size="19.00">EvalResults</text>
<text xml:space="preserve" text-anchor="middle" x="76.39" y="-106.15" font-family="Aptos" font-size="19.00">• sql_score</text>
<text xml:space="preserve" text-anchor="middle" x="76.39" y="-86.65" font-family="Aptos" font-size="19.00">• api_score</text>
<text xml:space="preserve" text-anchor="middle" x="76.39" y="-67.15" font-family="Aptos" font-size="19.00">• answer_score</text>
<text xml:space="preserve" text-anchor="middle" x="76.39" y="-47.65" font-family="Aptos" font-size="19.00">• final_score</text>
<text xml:space="preserve" text-anchor="middle" x="76.39" y="-28.15" font-family="Aptos" font-size="19.00">• tool_calls</text>
<text xml:space="preserve" text-anchor="middle" x="76.39" y="-8.65" font-family="Aptos" font-size="19.00">• tokens</text>
</g>
<!-- rank -->
<g id="node2" class="node">
<title>rank</title>
<path fill="#f2f4f7" stroke="#687386" stroke-width="2" d="M494.83,-121.65C494.83,-121.65 327.04,-121.65 327.04,-121.65 321.04,-121.65 315.04,-115.65 315.04,-109.65 315.04,-109.65 315.04,-41.25 315.04,-41.25 315.04,-35.25 321.04,-29.25 327.04,-29.25 327.04,-29.25 494.83,-29.25 494.83,-29.25 500.83,-29.25 506.83,-35.25 506.83,-41.25 506.83,-41.25 506.83,-109.65 506.83,-109.65 506.83,-115.65 500.83,-121.65 494.83,-121.65"/>
<text xml:space="preserve" text-anchor="middle" x="410.93" y="-96.4" font-family="Aptos" font-size="19.00">FailureAnalysis</text>
<text xml:space="preserve" text-anchor="middle" x="410.93" y="-76.9" font-family="Aptos" font-size="19.00">• lowest_examples[]</text>
<text xml:space="preserve" text-anchor="middle" x="410.93" y="-57.4" font-family="Aptos" font-size="19.00">• failure_category</text>
<text xml:space="preserve" text-anchor="middle" x="410.93" y="-37.9" font-family="Aptos" font-size="19.00">• recommended_fix</text>
</g>
<!-- eval&#45;&gt;rank -->
<g id="edge1" class="edge">
<title>eval&#45;&gt;rank</title>
<path fill="none" stroke="#687386" stroke-width="1.7" d="M153.57,-75.45C153.57,-75.45 304.31,-75.45 304.31,-75.45"/>
<polygon fill="#687386" stroke="#687386" stroke-width="1.7" points="304.31,-77.97 311.51,-75.45 304.31,-72.93 304.31,-77.97"/>
<text xml:space="preserve" text-anchor="middle" x="233.91" y="-76.32" font-family="Aptos" font-size="12.50" fill="#425466">rank low&#45;score cases</text>
</g>
<!-- patch -->
<g id="node3" class="node">
<title>patch</title>
<path fill="#efe7ff" stroke="#6d5bd0" stroke-width="2" d="M885.62,-111.9C885.62,-111.9 675.83,-111.9 675.83,-111.9 669.83,-111.9 663.83,-105.9 663.83,-99.9 663.83,-99.9 663.83,-51 663.83,-51 663.83,-45 669.83,-39 675.83,-39 675.83,-39 885.62,-39 885.62,-39 891.62,-39 897.62,-45 897.62,-51 897.62,-51 897.62,-99.9 897.62,-99.9 897.62,-105.9 891.62,-111.9 885.62,-111.9"/>
<text xml:space="preserve" text-anchor="middle" x="780.72" y="-86.65" font-family="Aptos" font-size="19.00">Reusable Fix</text>
<text xml:space="preserve" text-anchor="middle" x="780.72" y="-67.15" font-family="Aptos" font-size="19.00">• rule/template update</text>
<text xml:space="preserve" text-anchor="middle" x="780.72" y="-47.65" font-family="Aptos" font-size="19.00">• not exact public answer</text>
</g>
<!-- rank&#45;&gt;patch -->
<g id="edge2" class="edge">
<title>rank&#45;&gt;patch</title>
<path fill="none" stroke="#687386" stroke-width="1.7" d="M507.61,-75.45C507.61,-75.45 653.07,-75.45 653.07,-75.45"/>
<polygon fill="#687386" stroke="#687386" stroke-width="1.7" points="653.07,-77.97 660.27,-75.45 653.07,-72.93 653.07,-77.97"/>
<text xml:space="preserve" text-anchor="middle" x="585.33" y="-76.32" font-family="Aptos" font-size="12.50" fill="#425466">categorize + inspect</text>
</g>
<!-- tests -->
<g id="node4" class="node">
<title>tests</title>
<path fill="#e8f7ed" stroke="#1a7f52" stroke-width="2" d="M1199.91,-111.9C1199.91,-111.9 1028.37,-111.9 1028.37,-111.9 1022.37,-111.9 1016.37,-105.9 1016.37,-99.9 1016.37,-99.9 1016.37,-51 1016.37,-51 1016.37,-45 1022.37,-39 1028.37,-39 1028.37,-39 1199.91,-39 1199.91,-39 1205.91,-39 1211.91,-45 1211.91,-51 1211.91,-51 1211.91,-99.9 1211.91,-99.9 1211.91,-105.9 1205.91,-111.9 1199.91,-111.9"/>
<text xml:space="preserve" text-anchor="middle" x="1114.14" y="-86.65" font-family="Aptos" font-size="19.00">RegressionTests</text>
<text xml:space="preserve" text-anchor="middle" x="1114.14" y="-67.15" font-family="Aptos" font-size="19.00">• test_name</text>
<text xml:space="preserve" text-anchor="middle" x="1114.14" y="-47.65" font-family="Aptos" font-size="19.00">• expected_behavior</text>
</g>
<!-- patch&#45;&gt;tests -->
<g id="edge3" class="edge">
<title>patch&#45;&gt;tests</title>
<path fill="none" stroke="#687386" stroke-width="1.7" d="M898.27,-75.45C898.27,-75.45 1005.79,-75.45 1005.79,-75.45"/>
<polygon fill="#687386" stroke="#687386" stroke-width="1.7" points="1005.79,-77.97 1012.99,-75.45 1005.79,-72.93 1005.79,-77.97"/>
<text xml:space="preserve" text-anchor="middle" x="956.99" y="-76.32" font-family="Aptos" font-size="12.50" fill="#425466">lock behavior</text>
</g>
</g>
</svg>
