<?xml version="1.0" encoding="UTF-8" standalone="no"?>
<!DOCTYPE svg PUBLIC "-//W3C//DTD SVG 1.1//EN"
 "http://www.w3.org/Graphics/SVG/1.1/DTD/svg11.dtd">
<!-- Generated by graphviz version 14.1.5 (20260411.2331)
 -->
<!-- Title: G Pages: 1 -->
<svg width="1226pt" height="146pt"
 viewBox="0.00 0.00 1226.00 146.00" xmlns="http://www.w3.org/2000/svg" xmlns:xlink="http://www.w3.org/1999/xlink">
<g id="graph0" class="graph" transform="scale(1 1) rotate(0) translate(7.2 138.6)">
<title>G</title>
<polygon fill="white" stroke="none" points="-7.2,7.2 -7.2,-138.6 1218.36,-138.6 1218.36,7.2 -7.2,7.2"/>
<!-- tool -->
<g id="node1" class="node">
<title>tool</title>
<path fill="#e8faf8" stroke="#0b8f8a" stroke-width="2" d="M140.79,-111.9C140.79,-111.9 12,-111.9 12,-111.9 6,-111.9 0,-105.9 0,-99.9 0,-99.9 0,-31.5 0,-31.5 0,-25.5 6,-19.5 12,-19.5 12,-19.5 140.79,-19.5 140.79,-19.5 146.79,-19.5 152.79,-25.5 152.79,-31.5 152.79,-31.5 152.79,-99.9 152.79,-99.9 152.79,-105.9 146.79,-111.9 140.79,-111.9"/>
<text xml:space="preserve" text-anchor="middle" x="76.39" y="-86.65" font-family="Aptos" font-size="19.00">ToolEvidence</text>
<text xml:space="preserve" text-anchor="middle" x="76.39" y="-67.15" font-family="Aptos" font-size="19.00">• sql rows</text>
<text xml:space="preserve" text-anchor="middle" x="76.39" y="-47.65" font-family="Aptos" font-size="19.00">• api payloads</text>
<text xml:space="preserve" text-anchor="middle" x="76.39" y="-28.15" font-family="Aptos" font-size="19.00">• dry_run/errors</text>
</g>
<!-- family -->
<g id="node2" class="node">
<title>family</title>
<path fill="#efe7ff" stroke="#6d5bd0" stroke-width="2" d="M480.58,-131.4C480.58,-131.4 331.54,-131.4 331.54,-131.4 325.54,-131.4 319.54,-125.4 319.54,-119.4 319.54,-119.4 319.54,-12 319.54,-12 319.54,-6 325.54,0 331.54,0 331.54,0 480.58,0 480.58,0 486.58,0 492.58,-6 492.58,-12 492.58,-12 492.58,-119.4 492.58,-119.4 492.58,-125.4 486.58,-131.4 480.58,-131.4"/>
<text xml:space="preserve" text-anchor="middle" x="406.06" y="-106.15" font-family="Aptos" font-size="19.00">Answer Family</text>
<text xml:space="preserve" text-anchor="middle" x="406.06" y="-86.65" font-family="Aptos" font-size="19.00">• count</text>
<text xml:space="preserve" text-anchor="middle" x="406.06" y="-67.15" font-family="Aptos" font-size="19.00">• list</text>
<text xml:space="preserve" text-anchor="middle" x="406.06" y="-47.65" font-family="Aptos" font-size="19.00">• published status</text>
<text xml:space="preserve" text-anchor="middle" x="406.06" y="-28.15" font-family="Aptos" font-size="19.00">• tag detail</text>
<text xml:space="preserve" text-anchor="middle" x="406.06" y="-8.65" font-family="Aptos" font-size="19.00">• observability</text>
</g>
<!-- tool&#45;&gt;family -->
<g id="edge1" class="edge">
<title>tool&#45;&gt;family</title>
<path fill="none" stroke="#687386" stroke-width="1.7" d="M153.69,-65.7C153.69,-65.7 309.02,-65.7 309.02,-65.7"/>
<polygon fill="#687386" stroke="#687386" stroke-width="1.7" points="309.02,-68.22 316.22,-65.7 309.02,-63.18 309.02,-68.22"/>
<text xml:space="preserve" text-anchor="middle" x="236.16" y="-66.58" font-family="Aptos" font-size="12.50" fill="#425466">classify answer shape</text>
</g>
<!-- fill -->
<g id="node3" class="node">
<title>fill</title>
<path fill="#e8f7ed" stroke="#1a7f52" stroke-width="2" d="M838.37,-102.15C838.37,-102.15 641.33,-102.15 641.33,-102.15 635.33,-102.15 629.33,-96.15 629.33,-90.15 629.33,-90.15 629.33,-41.25 629.33,-41.25 629.33,-35.25 635.33,-29.25 641.33,-29.25 641.33,-29.25 838.37,-29.25 838.37,-29.25 844.37,-29.25 850.37,-35.25 850.37,-41.25 850.37,-41.25 850.37,-90.15 850.37,-90.15 850.37,-96.15 844.37,-102.15 838.37,-102.15"/>
<text xml:space="preserve" text-anchor="middle" x="739.85" y="-76.9" font-family="Aptos" font-size="19.00">Template Fill</text>
<text xml:space="preserve" text-anchor="middle" x="739.85" y="-57.4" font-family="Aptos" font-size="19.00">• insert supported fields</text>
<text xml:space="preserve" text-anchor="middle" x="739.85" y="-37.9" font-family="Aptos" font-size="19.00">• keep caveats</text>
</g>
<!-- family&#45;&gt;fill -->
<g id="edge2" class="edge">
<title>family&#45;&gt;fill</title>
<path fill="none" stroke="#687386" stroke-width="1.7" d="M493.32,-65.7C493.32,-65.7 618.76,-65.7 618.76,-65.7"/>
<polygon fill="#687386" stroke="#687386" stroke-width="1.7" points="618.76,-68.22 625.96,-65.7 618.76,-63.18 618.76,-68.22"/>
<text xml:space="preserve" text-anchor="middle" x="560.95" y="-66.58" font-family="Aptos" font-size="12.50" fill="#425466">choose template</text>
</g>
<!-- answer -->
<g id="node4" class="node">
<title>answer</title>
<path fill="#f2f4f7" stroke="#687386" stroke-width="2" d="M1199.16,-102.15C1199.16,-102.15 1026.12,-102.15 1026.12,-102.15 1020.12,-102.15 1014.12,-96.15 1014.12,-90.15 1014.12,-90.15 1014.12,-41.25 1014.12,-41.25 1014.12,-35.25 1020.12,-29.25 1026.12,-29.25 1026.12,-29.25 1199.16,-29.25 1199.16,-29.25 1205.16,-29.25 1211.16,-35.25 1211.16,-41.25 1211.16,-41.25 1211.16,-90.15 1211.16,-90.15 1211.16,-96.15 1205.16,-102.15 1199.16,-102.15"/>
<text xml:space="preserve" text-anchor="middle" x="1112.64" y="-76.9" font-family="Aptos" font-size="19.00">CandidateAnswer</text>
<text xml:space="preserve" text-anchor="middle" x="1112.64" y="-57.4" font-family="Aptos" font-size="19.00">• concise text</text>
<text xml:space="preserve" text-anchor="middle" x="1112.64" y="-37.9" font-family="Aptos" font-size="19.00">• evidence&#45;grounded</text>
</g>
<!-- fill&#45;&gt;answer -->
<g id="edge3" class="edge">
<title>fill&#45;&gt;answer</title>
<path fill="none" stroke="#687386" stroke-width="1.7" d="M851.19,-65.7C851.19,-65.7 1003.5,-65.7 1003.5,-65.7"/>
<polygon fill="#687386" stroke="#687386" stroke-width="1.7" points="1003.5,-68.22 1010.7,-65.7 1003.5,-63.18 1003.5,-68.22"/>
<text xml:space="preserve" text-anchor="middle" x="932.24" y="-66.58" font-family="Aptos" font-size="12.50" fill="#425466">render from evidence</text>
</g>
</g>
</svg>
