<?xml version="1.0" encoding="UTF-8" standalone="no"?>
<!DOCTYPE svg PUBLIC "-//W3C//DTD SVG 1.1//EN"
 "http://www.w3.org/Graphics/SVG/1.1/DTD/svg11.dtd">
<!-- Generated by graphviz version 14.1.5 (20260411.2331)
 -->
<!-- Title: G Pages: 1 -->
<svg width="1185pt" height="126pt"
 viewBox="0.00 0.00 1185.00 126.00" xmlns="http://www.w3.org/2000/svg" xmlns:xlink="http://www.w3.org/1999/xlink">
<g id="graph0" class="graph" transform="scale(1 1) rotate(0) translate(7.2 119.1)">
<title>G</title>
<polygon fill="white" stroke="none" points="-7.2,7.2 -7.2,-119.1 1177.86,-119.1 1177.86,7.2 -7.2,7.2"/>
<!-- cands -->
<g id="node1" class="node">
<title>cands</title>
<path fill="#efe7ff" stroke="#6d5bd0" stroke-width="2" d="M157.29,-111.9C157.29,-111.9 12,-111.9 12,-111.9 6,-111.9 0,-105.9 0,-99.9 0,-99.9 0,-12 0,-12 0,-6 6,0 12,0 12,0 157.29,0 157.29,0 163.29,0 169.29,-6 169.29,-12 169.29,-12 169.29,-99.9 169.29,-99.9 169.29,-105.9 163.29,-111.9 157.29,-111.9"/>
<text xml:space="preserve" text-anchor="middle" x="84.64" y="-86.65" font-family="Aptos" font-size="19.00">Candidate Plans</text>
<text xml:space="preserve" text-anchor="middle" x="84.64" y="-67.15" font-family="Aptos" font-size="19.00">• A fast path</text>
<text xml:space="preserve" text-anchor="middle" x="84.64" y="-47.65" font-family="Aptos" font-size="19.00">• B SQL template</text>
<text xml:space="preserve" text-anchor="middle" x="84.64" y="-28.15" font-family="Aptos" font-size="19.00">• C lookup path</text>
<text xml:space="preserve" text-anchor="middle" x="84.64" y="-8.65" font-family="Aptos" font-size="19.00">• D generic</text>
</g>
<!-- scores -->
<g id="node2" class="node">
<title>scores</title>
<path fill="#f2f4f7" stroke="#687386" stroke-width="2" d="M533.08,-111.9C533.08,-111.9 352.54,-111.9 352.54,-111.9 346.54,-111.9 340.54,-105.9 340.54,-99.9 340.54,-99.9 340.54,-12 340.54,-12 340.54,-6 346.54,0 352.54,0 352.54,0 533.08,0 533.08,0 539.08,0 545.08,-6 545.08,-12 545.08,-12 545.08,-99.9 545.08,-99.9 545.08,-105.9 539.08,-111.9 533.08,-111.9"/>
<text xml:space="preserve" text-anchor="middle" x="442.81" y="-86.65" font-family="Aptos" font-size="19.00">Pre&#45;execution Scores</text>
<text xml:space="preserve" text-anchor="middle" x="442.81" y="-67.15" font-family="Aptos" font-size="19.00">• validation</text>
<text xml:space="preserve" text-anchor="middle" x="442.81" y="-47.65" font-family="Aptos" font-size="19.00">• relevance</text>
<text xml:space="preserve" text-anchor="middle" x="442.81" y="-28.15" font-family="Aptos" font-size="19.00">• cost</text>
<text xml:space="preserve" text-anchor="middle" x="442.81" y="-8.65" font-family="Aptos" font-size="19.00">• placeholder risk</text>
</g>
<!-- cands&#45;&gt;scores -->
<g id="edge1" class="edge">
<title>cands&#45;&gt;scores</title>
<path fill="none" stroke="#687386" stroke-width="1.7" d="M169.98,-55.95C169.98,-55.95 329.85,-55.95 329.85,-55.95"/>
<polygon fill="#687386" stroke="#687386" stroke-width="1.7" points="329.85,-58.47 337.05,-55.95 329.85,-53.43 329.85,-58.47"/>
<text xml:space="preserve" text-anchor="middle" x="254.91" y="-56.83" font-family="Aptos" font-size="12.50" fill="#425466">score before execution</text>
</g>
<!-- selected -->
<g id="node3" class="node">
<title>selected</title>
<path fill="#e8f7ed" stroke="#1a7f52" stroke-width="2" d="M833.12,-102.15C833.12,-102.15 665.33,-102.15 665.33,-102.15 659.33,-102.15 653.33,-96.15 653.33,-90.15 653.33,-90.15 653.33,-21.75 653.33,-21.75 653.33,-15.75 659.33,-9.75 665.33,-9.75 665.33,-9.75 833.12,-9.75 833.12,-9.75 839.12,-9.75 845.12,-15.75 845.12,-21.75 845.12,-21.75 845.12,-90.15 845.12,-90.15 845.12,-96.15 839.12,-102.15 833.12,-102.15"/>
<text xml:space="preserve" text-anchor="middle" x="749.22" y="-76.9" font-family="Aptos" font-size="19.00">SelectedPlan</text>
<text xml:space="preserve" text-anchor="middle" x="749.22" y="-57.4" font-family="Aptos" font-size="19.00">• highest score</text>
<text xml:space="preserve" text-anchor="middle" x="749.22" y="-37.9" font-family="Aptos" font-size="19.00">• unresolved = 0</text>
<text xml:space="preserve" text-anchor="middle" x="749.22" y="-18.4" font-family="Aptos" font-size="19.00">• estimated low cost</text>
</g>
<!-- scores&#45;&gt;selected -->
<g id="edge2" class="edge">
<title>scores&#45;&gt;selected</title>
<path fill="none" stroke="#687386" stroke-width="1.7" d="M545.69,-55.95C545.69,-55.95 642.79,-55.95 642.79,-55.95"/>
<polygon fill="#687386" stroke="#687386" stroke-width="1.7" points="642.79,-58.47 649.99,-55.95 642.79,-53.43 642.79,-58.47"/>
<text xml:space="preserve" text-anchor="middle" x="599.2" y="-56.83" font-family="Aptos" font-size="12.50" fill="#425466">pick winner</text>
</g>
<!-- execute -->
<g id="node4" class="node">
<title>execute</title>
<path fill="#eaf3ff" stroke="#1769aa" stroke-width="2" d="M1158.66,-82.65C1158.66,-82.65 962.37,-82.65 962.37,-82.65 956.37,-82.65 950.37,-76.65 950.37,-70.65 950.37,-70.65 950.37,-41.25 950.37,-41.25 950.37,-35.25 956.37,-29.25 962.37,-29.25 962.37,-29.25 1158.66,-29.25 1158.66,-29.25 1164.66,-29.25 1170.66,-35.25 1170.66,-41.25 1170.66,-41.25 1170.66,-70.65 1170.66,-70.65 1170.66,-76.65 1164.66,-82.65 1158.66,-82.65"/>
<text xml:space="preserve" text-anchor="middle" x="1060.51" y="-57.4" font-family="Aptos" font-size="19.00">Executor</text>
<text xml:space="preserve" text-anchor="middle" x="1060.51" y="-37.9" font-family="Aptos" font-size="19.00">• execute one plan only</text>
</g>
<!-- selected&#45;&gt;execute -->
<g id="edge3" class="edge">
<title>selected&#45;&gt;execute</title>
<path fill="none" stroke="#687386" stroke-width="1.7" d="M846.01,-55.95C846.01,-55.95 939.87,-55.95 939.87,-55.95"/>
<polygon fill="#687386" stroke="#687386" stroke-width="1.7" points="939.87,-58.47 947.07,-55.95 939.87,-53.43 939.87,-58.47"/>
<text xml:space="preserve" text-anchor="middle" x="897.74" y="-56.83" font-family="Aptos" font-size="12.50" fill="#425466">single plan</text>
</g>
</g>
</svg>
