<?xml version="1.0" encoding="UTF-8" standalone="no"?>
<!DOCTYPE svg PUBLIC "-//W3C//DTD SVG 1.1//EN"
 "http://www.w3.org/Graphics/SVG/1.1/DTD/svg11.dtd">
<!-- Generated by graphviz version 14.1.5 (20260411.2331)
 -->
<!-- Title: G Pages: 1 -->
<svg width="1441pt" height="126pt"
 viewBox="0.00 0.00 1441.00 126.00" xmlns="http://www.w3.org/2000/svg" xmlns:xlink="http://www.w3.org/1999/xlink">
<g id="graph0" class="graph" transform="scale(1 1) rotate(0) translate(7.2 119.1)">
<title>G</title>
<polygon fill="white" stroke="none" points="-7.2,7.2 -7.2,-119.1 1433.61,-119.1 1433.61,7.2 -7.2,7.2"/>
<!-- qa -->
<g id="node1" class="node">
<title>qa</title>
<path fill="#efe7ff" stroke="#6d5bd0" stroke-width="2" d="M167.04,-111.9C167.04,-111.9 12,-111.9 12,-111.9 6,-111.9 0,-105.9 0,-99.9 0,-99.9 0,-12 0,-12 0,-6 6,0 12,0 12,0 167.04,0 167.04,0 173.04,0 179.04,-6 179.04,-12 179.04,-12 179.04,-99.9 179.04,-99.9 179.04,-105.9 173.04,-111.9 167.04,-111.9"/>
<text xml:space="preserve" text-anchor="middle" x="89.52" y="-86.65" font-family="Aptos" font-size="19.00">QueryAnalysis</text>
<text xml:space="preserve" text-anchor="middle" x="89.52" y="-67.15" font-family="Aptos" font-size="19.00">• domain_type</text>
<text xml:space="preserve" text-anchor="middle" x="89.52" y="-47.65" font-family="Aptos" font-size="19.00">• answer_family</text>
<text xml:space="preserve" text-anchor="middle" x="89.52" y="-28.15" font-family="Aptos" font-size="19.00">• sql_template_id</text>
<text xml:space="preserve" text-anchor="middle" x="89.52" y="-8.65" font-family="Aptos" font-size="19.00">• api_template_ids</text>
</g>
<!-- tpl -->
<g id="node2" class="node">
<title>tpl</title>
<path fill="#efe7ff" stroke="#6d5bd0" stroke-width="2" d="M644.83,-102.15C644.83,-102.15 387.79,-102.15 387.79,-102.15 381.79,-102.15 375.79,-96.15 375.79,-90.15 375.79,-90.15 375.79,-21.75 375.79,-21.75 375.79,-15.75 381.79,-9.75 387.79,-9.75 387.79,-9.75 644.83,-9.75 644.83,-9.75 650.83,-9.75 656.83,-15.75 656.83,-21.75 656.83,-21.75 656.83,-90.15 656.83,-90.15 656.83,-96.15 650.83,-102.15 644.83,-102.15"/>
<text xml:space="preserve" text-anchor="middle" x="516.31" y="-76.9" font-family="Aptos" font-size="19.00">Template Binder</text>
<text xml:space="preserve" text-anchor="middle" x="516.31" y="-57.4" font-family="Aptos" font-size="19.00">• choose by family</text>
<text xml:space="preserve" text-anchor="middle" x="516.31" y="-37.9" font-family="Aptos" font-size="19.00">• bind entities / IDs</text>
<text xml:space="preserve" text-anchor="middle" x="516.31" y="-18.4" font-family="Aptos" font-size="19.00">• use known schema + catalog</text>
</g>
<!-- qa&#45;&gt;tpl -->
<g id="edge1" class="edge">
<title>qa&#45;&gt;tpl</title>
<path fill="none" stroke="#687386" stroke-width="1.7" d="M180.03,-55.95C180.03,-55.95 365.34,-55.95 365.34,-55.95"/>
<polygon fill="#687386" stroke="#687386" stroke-width="1.7" points="365.34,-58.47 372.54,-55.95 365.34,-53.43 365.34,-58.47"/>
<text xml:space="preserve" text-anchor="middle" x="277.41" y="-56.83" font-family="Aptos" font-size="12.50" fill="#425466">template selected by family</text>
</g>
<!-- guard -->
<g id="node3" class="node">
<title>guard</title>
<path fill="#e8f7ed" stroke="#1a7f52" stroke-width="2" d="M1082.87,-92.4C1082.87,-92.4 844.58,-92.4 844.58,-92.4 838.58,-92.4 832.58,-86.4 832.58,-80.4 832.58,-80.4 832.58,-31.5 832.58,-31.5 832.58,-25.5 838.58,-19.5 844.58,-19.5 844.58,-19.5 1082.87,-19.5 1082.87,-19.5 1088.87,-19.5 1094.87,-25.5 1094.87,-31.5 1094.87,-31.5 1094.87,-80.4 1094.87,-80.4 1094.87,-86.4 1088.87,-92.4 1082.87,-92.4"/>
<text xml:space="preserve" text-anchor="middle" x="963.72" y="-67.15" font-family="Aptos" font-size="19.00">Validators</text>
<text xml:space="preserve" text-anchor="middle" x="963.72" y="-47.65" font-family="Aptos" font-size="19.00">• table + column exist</text>
<text xml:space="preserve" text-anchor="middle" x="963.72" y="-28.15" font-family="Aptos" font-size="19.00">• endpoint + params allowed</text>
</g>
<!-- tpl&#45;&gt;guard -->
<g id="edge2" class="edge">
<title>tpl&#45;&gt;guard</title>
<path fill="none" stroke="#687386" stroke-width="1.7" d="M657.57,-55.95C657.57,-55.95 821.88,-55.95 821.88,-55.95"/>
<polygon fill="#687386" stroke="#687386" stroke-width="1.7" points="821.88,-58.47 829.08,-55.95 821.88,-53.43 821.88,-58.47"/>
<text xml:space="preserve" text-anchor="middle" x="744.7" y="-56.83" font-family="Aptos" font-size="12.50" fill="#425466">schema/catalog binding</text>
</g>
<!-- plan -->
<g id="node4" class="node">
<title>plan</title>
<path fill="#f2f4f7" stroke="#687386" stroke-width="2" d="M1414.41,-102.15C1414.41,-102.15 1274.37,-102.15 1274.37,-102.15 1268.37,-102.15 1262.37,-96.15 1262.37,-90.15 1262.37,-90.15 1262.37,-21.75 1262.37,-21.75 1262.37,-15.75 1268.37,-9.75 1274.37,-9.75 1274.37,-9.75 1414.41,-9.75 1414.41,-9.75 1420.41,-9.75 1426.41,-15.75 1426.41,-21.75 1426.41,-21.75 1426.41,-90.15 1426.41,-90.15 1426.41,-96.15 1420.41,-102.15 1414.41,-102.15"/>
<text xml:space="preserve" text-anchor="middle" x="1344.39" y="-76.9" font-family="Aptos" font-size="19.00">DraftPlan</text>
<text xml:space="preserve" text-anchor="middle" x="1344.39" y="-57.4" font-family="Aptos" font-size="19.00">• sql_steps[]</text>
<text xml:space="preserve" text-anchor="middle" x="1344.39" y="-37.9" font-family="Aptos" font-size="19.00">• api_steps[]</text>
<text xml:space="preserve" text-anchor="middle" x="1344.39" y="-18.4" font-family="Aptos" font-size="19.00">• dependencies[]</text>
</g>
<!-- guard&#45;&gt;plan -->
<g id="edge3" class="edge">
<title>guard&#45;&gt;plan</title>
<path fill="none" stroke="#687386" stroke-width="1.7" d="M1095.79,-55.95C1095.79,-55.95 1251.83,-55.95 1251.83,-55.95"/>
<polygon fill="#687386" stroke="#687386" stroke-width="1.7" points="1251.83,-58.47 1259.03,-55.95 1251.83,-53.43 1251.83,-58.47"/>
<text xml:space="preserve" text-anchor="middle" x="1178.62" y="-56.83" font-family="Aptos" font-size="12.50" fill="#425466">validated step emitted</text>
</g>
</g>
</svg>
