<?xml version="1.0" encoding="UTF-8" standalone="no"?>
<!DOCTYPE svg PUBLIC "-//W3C//DTD SVG 1.1//EN"
 "http://www.w3.org/Graphics/SVG/1.1/DTD/svg11.dtd">
<!-- Generated by graphviz version 14.1.5 (20260411.2331)
 -->
<!-- Title: G Pages: 1 -->
<svg width="1244pt" height="303pt"
 viewBox="0.00 0.00 1244.00 303.00" xmlns="http://www.w3.org/2000/svg" xmlns:xlink="http://www.w3.org/1999/xlink">
<g id="graph0" class="graph" transform="scale(1 1) rotate(0) translate(7.2 296.1)">
<title>G</title>
<polygon fill="white" stroke="none" points="-7.2,7.2 -7.2,-296.1 1236.32,-296.1 1236.32,7.2 -7.2,7.2"/>
<!-- results -->
<g id="node1" class="node">
<title>results</title>
<path fill="#e8faf8" stroke="#0b8f8a" stroke-width="2" d="M148.29,-200.4C148.29,-200.4 12,-200.4 12,-200.4 6,-200.4 0,-194.4 0,-188.4 0,-188.4 0,-100.5 0,-100.5 0,-94.5 6,-88.5 12,-88.5 12,-88.5 148.29,-88.5 148.29,-88.5 154.29,-88.5 160.29,-94.5 160.29,-100.5 160.29,-100.5 160.29,-188.4 160.29,-188.4 160.29,-194.4 154.29,-200.4 148.29,-200.4"/>
<text xml:space="preserve" text-anchor="middle" x="80.14" y="-175.15" font-family="Aptos" font-size="19.00">ToolResults</text>
<text xml:space="preserve" text-anchor="middle" x="80.14" y="-155.65" font-family="Aptos" font-size="19.00">• sql_rows[]</text>
<text xml:space="preserve" text-anchor="middle" x="80.14" y="-136.15" font-family="Aptos" font-size="19.00">• api_payloads[]</text>
<text xml:space="preserve" text-anchor="middle" x="80.14" y="-116.65" font-family="Aptos" font-size="19.00">• dry_run_flags[]</text>
<text xml:space="preserve" text-anchor="middle" x="80.14" y="-97.15" font-family="Aptos" font-size="19.00">• errors[]</text>
</g>
<!-- bus -->
<g id="node2" class="node">
<title>bus</title>
<path fill="#e8faf8" stroke="#0b8f8a" stroke-width="2" d="M830.83,-229.65C830.83,-229.65 341.29,-229.65 341.29,-229.65 335.29,-229.65 329.29,-223.65 329.29,-217.65 329.29,-217.65 329.29,-71.25 329.29,-71.25 329.29,-65.25 335.29,-59.25 341.29,-59.25 341.29,-59.25 830.83,-59.25 830.83,-59.25 836.83,-59.25 842.83,-65.25 842.83,-71.25 842.83,-71.25 842.83,-217.65 842.83,-217.65 842.83,-223.65 836.83,-229.65 830.83,-229.65"/>
<text xml:space="preserve" text-anchor="middle" x="586.06" y="-204.4" font-family="Aptos" font-size="19.00">EvidenceBus</text>
<text xml:space="preserve" text-anchor="middle" x="586.06" y="-184.9" font-family="Aptos" font-size="19.00">• entity_ids{destination_id,schema_id,campaign_id,tag_id}</text>
<text xml:space="preserve" text-anchor="middle" x="586.06" y="-165.4" font-family="Aptos" font-size="19.00">• names[]</text>
<text xml:space="preserve" text-anchor="middle" x="586.06" y="-145.9" font-family="Aptos" font-size="19.00">• counts{}</text>
<text xml:space="preserve" text-anchor="middle" x="586.06" y="-126.4" font-family="Aptos" font-size="19.00">• timestamps[]</text>
<text xml:space="preserve" text-anchor="middle" x="586.06" y="-106.9" font-family="Aptos" font-size="19.00">• statuses[]</text>
<text xml:space="preserve" text-anchor="middle" x="586.06" y="-87.4" font-family="Aptos" font-size="19.00">• sql_rows_preview[]</text>
<text xml:space="preserve" text-anchor="middle" x="586.06" y="-67.9" font-family="Aptos" font-size="19.00">• api_items_preview[]</text>
</g>
<!-- results&#45;&gt;bus -->
<g id="edge1" class="edge">
<title>results&#45;&gt;bus</title>
<path fill="none" stroke="#687386" stroke-width="1.7" d="M161.15,-144.45C161.15,-144.45 318.79,-144.45 318.79,-144.45"/>
<polygon fill="#687386" stroke="#687386" stroke-width="1.7" points="318.79,-146.97 325.99,-144.45 318.79,-141.93 318.79,-146.97"/>
<text xml:space="preserve" text-anchor="middle" x="244.79" y="-145.32" font-family="Aptos" font-size="12.50" fill="#425466">extract exact evidence</text>
</g>
<!-- api -->
<g id="node3" class="node">
<title>api</title>
<path fill="#fff3e0" stroke="#d97706" stroke-width="2" d="M1178.87,-288.9C1178.87,-288.9 1027.58,-288.9 1027.58,-288.9 1021.58,-288.9 1015.58,-282.9 1015.58,-276.9 1015.58,-276.9 1015.58,-228 1015.58,-228 1015.58,-222 1021.58,-216 1027.58,-216 1027.58,-216 1178.87,-216 1178.87,-216 1184.87,-216 1190.87,-222 1190.87,-228 1190.87,-228 1190.87,-276.9 1190.87,-276.9 1190.87,-282.9 1184.87,-288.9 1178.87,-288.9"/>
<text xml:space="preserve" text-anchor="middle" x="1103.22" y="-263.65" font-family="Aptos" font-size="19.00">API Templates</text>
<text xml:space="preserve" text-anchor="middle" x="1103.22" y="-244.15" font-family="Aptos" font-size="19.00">• forwarded IDs</text>
<text xml:space="preserve" text-anchor="middle" x="1103.22" y="-224.65" font-family="Aptos" font-size="19.00">• resolved params</text>
</g>
<!-- bus&#45;&gt;api -->
<g id="edge2" class="edge">
<title>bus&#45;&gt;api</title>
<path fill="none" stroke="#687386" stroke-width="1.7" d="M843.51,-222.82C843.51,-222.82 1004.97,-222.82 1004.97,-222.82"/>
<polygon fill="#687386" stroke="#687386" stroke-width="1.7" points="1004.97,-225.35 1012.17,-222.83 1004.97,-220.31 1004.97,-225.35"/>
<text xml:space="preserve" text-anchor="middle" x="910.08" y="-253.32" font-family="Aptos" font-size="12.50" fill="#425466">forward IDs</text>
</g>
<!-- slots -->
<g id="node4" class="node">
<title>slots</title>
<path fill="#e8f7ed" stroke="#1a7f52" stroke-width="2" d="M1217.12,-180.9C1217.12,-180.9 989.33,-180.9 989.33,-180.9 983.33,-180.9 977.33,-174.9 977.33,-168.9 977.33,-168.9 977.33,-120 977.33,-120 977.33,-114 983.33,-108 989.33,-108 989.33,-108 1217.12,-108 1217.12,-108 1223.12,-108 1229.12,-114 1229.12,-120 1229.12,-120 1229.12,-168.9 1229.12,-168.9 1229.12,-174.9 1223.12,-180.9 1217.12,-180.9"/>
<text xml:space="preserve" text-anchor="middle" x="1103.22" y="-155.65" font-family="Aptos" font-size="19.00">AnswerSlots</text>
<text xml:space="preserve" text-anchor="middle" x="1103.22" y="-136.15" font-family="Aptos" font-size="19.00">• structured facts</text>
<text xml:space="preserve" text-anchor="middle" x="1103.22" y="-116.65" font-family="Aptos" font-size="19.00">• dry_run/discrepancy flags</text>
</g>
<!-- bus&#45;&gt;slots -->
<g id="edge3" class="edge">
<title>bus&#45;&gt;slots</title>
<path fill="none" stroke="#687386" stroke-width="1.7" d="M843.51,-144.45C843.51,-144.45 966.63,-144.45 966.63,-144.45"/>
<polygon fill="#687386" stroke="#687386" stroke-width="1.7" points="966.63,-146.97 973.83,-144.45 966.63,-141.93 966.63,-146.97"/>
<text xml:space="preserve" text-anchor="middle" x="910.08" y="-145.32" font-family="Aptos" font-size="12.50" fill="#425466">facts for answer</text>
</g>
<!-- traj -->
<g id="node5" class="node">
<title>traj</title>
<path fill="#f2f4f7" stroke="#687386" stroke-width="2" d="M1185.62,-72.9C1185.62,-72.9 1020.83,-72.9 1020.83,-72.9 1014.83,-72.9 1008.83,-66.9 1008.83,-60.9 1008.83,-60.9 1008.83,-12 1008.83,-12 1008.83,-6 1014.83,0 1020.83,0 1020.83,0 1185.62,0 1185.62,0 1191.62,0 1197.62,-6 1197.62,-12 1197.62,-12 1197.62,-60.9 1197.62,-60.9 1197.62,-66.9 1191.62,-72.9 1185.62,-72.9"/>
<text xml:space="preserve" text-anchor="middle" x="1103.22" y="-47.65" font-family="Aptos" font-size="19.00">trajectory.json</text>
<text xml:space="preserve" text-anchor="middle" x="1103.22" y="-28.15" font-family="Aptos" font-size="19.00">• compact evidence</text>
<text xml:space="preserve" text-anchor="middle" x="1103.22" y="-8.65" font-family="Aptos" font-size="19.00">• tool previews</text>
</g>
<!-- bus&#45;&gt;traj -->
<g id="edge4" class="edge">
<title>bus&#45;&gt;traj</title>
<path fill="none" stroke="#687386" stroke-width="1.7" d="M843.51,-66.08C843.51,-66.08 998.1,-66.08 998.1,-66.08"/>
<polygon fill="#687386" stroke="#687386" stroke-width="1.7" points="998.1,-68.6 1005.3,-66.08 998.1,-63.56 998.1,-68.6"/>
<text xml:space="preserve" text-anchor="middle" x="910.08" y="-37.33" font-family="Aptos" font-size="12.50" fill="#425466">log preview</text>
</g>
</g>
</svg>
