<?xml version="1.0" encoding="UTF-8" standalone="no"?>
<!DOCTYPE svg PUBLIC "-//W3C//DTD SVG 1.1//EN"
 "http://www.w3.org/Graphics/SVG/1.1/DTD/svg11.dtd">
<!-- Generated by graphviz version 14.1.5 (20260411.2331)
 -->
<!-- Title: G Pages: 1 -->
<svg width="1935pt" height="260pt"
 viewBox="0.00 0.00 1935.00 260.00" xmlns="http://www.w3.org/2000/svg" xmlns:xlink="http://www.w3.org/1999/xlink">
<g id="graph0" class="graph" transform="scale(1 1) rotate(0) translate(7.2 252.6)">
<title>G</title>
<polygon fill="white" stroke="none" points="-7.2,7.2 -7.2,-252.6 1927.47,-252.6 1927.47,7.2 -7.2,7.2"/>
<!-- request -->
<g id="node1" class="node">
<title>request</title>
<path fill="#efe7ff" stroke="#6d5bd0" stroke-width="2" d="M148.29,-92.4C148.29,-92.4 12,-92.4 12,-92.4 6,-92.4 0,-86.4 0,-80.4 0,-80.4 0,-12 0,-12 0,-6 6,0 12,0 12,0 148.29,0 148.29,0 154.29,0 160.29,-6 160.29,-12 160.29,-12 160.29,-80.4 160.29,-80.4 160.29,-86.4 154.29,-92.4 148.29,-92.4"/>
<text xml:space="preserve" text-anchor="middle" x="80.14" y="-67.15" font-family="Aptos" font-size="19.00">Query Request</text>
<text xml:space="preserve" text-anchor="middle" x="80.14" y="-47.65" font-family="Aptos" font-size="19.00">• query_id</text>
<text xml:space="preserve" text-anchor="middle" x="80.14" y="-28.15" font-family="Aptos" font-size="19.00">• data mtimes</text>
<text xml:space="preserve" text-anchor="middle" x="80.14" y="-8.65" font-family="Aptos" font-size="19.00">• pattern version</text>
</g>
<!-- l1 -->
<g id="node2" class="node">
<title>l1</title>
<path fill="#f2f4f7" stroke="#687386" stroke-width="2" d="M430.33,-82.65C430.33,-82.65 276.79,-82.65 276.79,-82.65 270.79,-82.65 264.79,-76.65 264.79,-70.65 264.79,-70.65 264.79,-21.75 264.79,-21.75 264.79,-15.75 270.79,-9.75 276.79,-9.75 276.79,-9.75 430.33,-9.75 430.33,-9.75 436.33,-9.75 442.33,-15.75 442.33,-21.75 442.33,-21.75 442.33,-70.65 442.33,-70.65 442.33,-76.65 436.33,-82.65 430.33,-82.65"/>
<text xml:space="preserve" text-anchor="middle" x="353.56" y="-57.4" font-family="Aptos" font-size="19.00">L1 Memory Cache</text>
<text xml:space="preserve" text-anchor="middle" x="353.56" y="-37.9" font-family="Aptos" font-size="19.00">• query analysis</text>
<text xml:space="preserve" text-anchor="middle" x="353.56" y="-18.4" font-family="Aptos" font-size="19.00">• template choice</text>
</g>
<!-- request&#45;&gt;l1 -->
<g id="edge1" class="edge">
<title>request&#45;&gt;l1</title>
<path fill="none" stroke="#687386" stroke-width="1.7" d="M161.07,-46.2C161.07,-46.2 254.46,-46.2 254.46,-46.2"/>
<polygon fill="#687386" stroke="#687386" stroke-width="1.7" points="254.46,-48.72 261.66,-46.2 254.46,-43.68 254.46,-48.72"/>
<text xml:space="preserve" text-anchor="middle" x="212.54" y="-47.08" font-family="Aptos" font-size="12.50" fill="#425466">lookup key</text>
</g>
<!-- hit1 -->
<g id="node3" class="node">
<title>hit1</title>
<path fill="#f2f4f7" stroke="#687386" stroke-width="2" d="M628.1,-76.72C628.1,-76.72 579.26,-51.68 579.26,-51.68 573.92,-48.94 573.92,-43.46 579.26,-40.72 579.26,-40.72 628.1,-15.68 628.1,-15.68 633.44,-12.94 644.12,-12.94 649.46,-15.68 649.46,-15.68 698.3,-40.72 698.3,-40.72 703.64,-43.46 703.64,-48.94 698.3,-51.68 698.3,-51.68 649.46,-76.72 649.46,-76.72 644.12,-79.46 633.44,-79.46 628.1,-76.72"/>
<text xml:space="preserve" text-anchor="middle" x="638.78" y="-37.9" font-family="Aptos" font-size="19.00">L1 hit?</text>
</g>
<!-- l1&#45;&gt;hit1 -->
<g id="edge2" class="edge">
<title>l1&#45;&gt;hit1</title>
<path fill="none" stroke="#687386" stroke-width="1.7" d="M443.02,-46.2C443.02,-46.2 557.02,-46.2 557.02,-46.2"/>
<polygon fill="#687386" stroke="#687386" stroke-width="1.7" points="557.02,-48.72 564.22,-46.2 557.02,-43.68 557.02,-48.72"/>
<text xml:space="preserve" text-anchor="middle" x="505.45" y="-47.08" font-family="Aptos" font-size="12.50" fill="#425466">check memory</text>
</g>
<!-- l2 -->
<g id="node4" class="node">
<title>l2</title>
<path fill="#f2f4f7" stroke="#687386" stroke-width="2" d="M985.77,-182.15C985.77,-182.15 780.48,-182.15 780.48,-182.15 774.48,-182.15 768.48,-176.15 768.48,-170.15 768.48,-170.15 768.48,-82.25 768.48,-82.25 768.48,-76.25 774.48,-70.25 780.48,-70.25 780.48,-70.25 985.77,-70.25 985.77,-70.25 991.77,-70.25 997.77,-76.25 997.77,-82.25 997.77,-82.25 997.77,-170.15 997.77,-170.15 997.77,-176.15 991.77,-182.15 985.77,-182.15"/>
<text xml:space="preserve" text-anchor="middle" x="883.12" y="-156.9" font-family="Aptos" font-size="19.00">L2 Disk Cache</text>
<text xml:space="preserve" text-anchor="middle" x="883.12" y="-137.4" font-family="Aptos" font-size="19.00">• schema_summary.json</text>
<text xml:space="preserve" text-anchor="middle" x="883.12" y="-117.9" font-family="Aptos" font-size="19.00">• join_graph.json</text>
<text xml:space="preserve" text-anchor="middle" x="883.12" y="-98.4" font-family="Aptos" font-size="19.00">• endpoint_catalog.json</text>
<text xml:space="preserve" text-anchor="middle" x="883.12" y="-78.9" font-family="Aptos" font-size="19.00">• gold patterns</text>
</g>
<!-- hit1&#45;&gt;l2 -->
<g id="edge4" class="edge">
<title>hit1&#45;&gt;l2</title>
<path fill="none" stroke="#687386" stroke-width="1.7" d="M652.62,-76.22C652.62,-76.22 757.76,-76.22 757.76,-76.22"/>
<polygon fill="#687386" stroke="#687386" stroke-width="1.7" points="757.76,-78.75 764.96,-76.23 757.76,-73.71 757.76,-78.75"/>
<text xml:space="preserve" text-anchor="middle" x="738.73" y="-101.08" font-family="Aptos" font-size="12.50" fill="#425466">no</text>
</g>
<!-- return -->
<g id="node7" class="node">
<title>return</title>
<path fill="#e8f7ed" stroke="#1a7f52" stroke-width="2" d="M1908.27,-141.65C1908.27,-141.65 1722.48,-141.65 1722.48,-141.65 1716.48,-141.65 1710.48,-135.65 1710.48,-129.65 1710.48,-129.65 1710.48,-80.75 1710.48,-80.75 1710.48,-74.75 1716.48,-68.75 1722.48,-68.75 1722.48,-68.75 1908.27,-68.75 1908.27,-68.75 1914.27,-68.75 1920.27,-74.75 1920.27,-80.75 1920.27,-80.75 1920.27,-129.65 1920.27,-129.65 1920.27,-135.65 1914.27,-141.65 1908.27,-141.65"/>
<text xml:space="preserve" text-anchor="middle" x="1815.38" y="-116.4" font-family="Aptos" font-size="19.00">Cached Context</text>
<text xml:space="preserve" text-anchor="middle" x="1815.38" y="-96.9" font-family="Aptos" font-size="19.00">• analysis</text>
<text xml:space="preserve" text-anchor="middle" x="1815.38" y="-77.4" font-family="Aptos" font-size="19.00">• schema/API artifacts</text>
</g>
<!-- hit1&#45;&gt;return -->
<g id="edge3" class="edge">
<title>hit1&#45;&gt;return</title>
<path fill="none" stroke="#687386" stroke-width="1.7" d="M697.93,-39.48C936.5,-39.48 1815.27,-39.48 1815.27,-39.48 1815.27,-39.48 1815.27,-58.34 1815.27,-58.34"/>
<polygon fill="#687386" stroke="#687386" stroke-width="1.7" points="1812.75,-58.34 1815.27,-65.54 1817.79,-58.34 1812.75,-58.34"/>
<text xml:space="preserve" text-anchor="middle" x="1213.86" y="-18.08" font-family="Aptos" font-size="12.50" fill="#425466">yes</text>
</g>
<!-- hit2 -->
<g id="node5" class="node">
<title>hit2</title>
<path fill="#f2f4f7" stroke="#687386" stroke-width="2" d="M1202.88,-157.36C1202.88,-157.36 1143.25,-131.04 1143.25,-131.04 1137.76,-128.62 1137.76,-123.78 1143.25,-121.36 1143.25,-121.36 1202.88,-95.04 1202.88,-95.04 1208.37,-92.62 1219.34,-92.62 1224.83,-95.04 1224.83,-95.04 1284.46,-121.36 1284.46,-121.36 1289.95,-123.78 1289.95,-128.62 1284.46,-131.04 1284.46,-131.04 1224.83,-157.36 1224.83,-157.36 1219.34,-159.78 1208.37,-159.78 1202.88,-157.36"/>
<text xml:space="preserve" text-anchor="middle" x="1213.86" y="-117.9" font-family="Aptos" font-size="19.00">L2 fresh?</text>
</g>
<!-- l2&#45;&gt;hit2 -->
<g id="edge5" class="edge">
<title>l2&#45;&gt;hit2</title>
<path fill="none" stroke="#687386" stroke-width="1.7" d="M998.33,-126.2C998.33,-126.2 1120.27,-126.2 1120.27,-126.2"/>
<polygon fill="#687386" stroke="#687386" stroke-width="1.7" points="1120.27,-128.72 1127.47,-126.2 1120.27,-123.68 1120.27,-128.72"/>
<text xml:space="preserve" text-anchor="middle" x="1065.02" y="-127.07" font-family="Aptos" font-size="12.50" fill="#425466">freshness check</text>
</g>
<!-- rebuild -->
<g id="node6" class="node">
<title>rebuild</title>
<path fill="#eaf3ff" stroke="#1769aa" stroke-width="2" d="M1581.23,-245.4C1581.23,-245.4 1366.94,-245.4 1366.94,-245.4 1360.94,-245.4 1354.94,-239.4 1354.94,-233.4 1354.94,-233.4 1354.94,-165 1354.94,-165 1354.94,-159 1360.94,-153 1366.94,-153 1366.94,-153 1581.23,-153 1581.23,-153 1587.23,-153 1593.23,-159 1593.23,-165 1593.23,-165 1593.23,-233.4 1593.23,-233.4 1593.23,-239.4 1587.23,-245.4 1581.23,-245.4"/>
<text xml:space="preserve" text-anchor="middle" x="1474.09" y="-220.15" font-family="Aptos" font-size="19.00">Rebuild</text>
<text xml:space="preserve" text-anchor="middle" x="1474.09" y="-200.65" font-family="Aptos" font-size="19.00">• DBSnapshot file mtimes</text>
<text xml:space="preserve" text-anchor="middle" x="1474.09" y="-181.15" font-family="Aptos" font-size="19.00">• data.json mtime</text>
<text xml:space="preserve" text-anchor="middle" x="1474.09" y="-161.65" font-family="Aptos" font-size="19.00">• save artifacts</text>
</g>
<!-- hit2&#45;&gt;rebuild -->
<g id="edge7" class="edge">
<title>hit2&#45;&gt;rebuild</title>
<path fill="none" stroke="#687386" stroke-width="1.7" d="M1226.41,-157.6C1226.41,-157.6 1344.24,-157.6 1344.24,-157.6"/>
<polygon fill="#687386" stroke="#687386" stroke-width="1.7" points="1344.24,-160.12 1351.44,-157.6 1344.24,-155.08 1344.24,-160.12"/>
<text xml:space="preserve" text-anchor="middle" x="1325.19" y="-182.07" font-family="Aptos" font-size="12.50" fill="#425466">no</text>
</g>
<!-- hit2&#45;&gt;return -->
<g id="edge6" class="edge">
<title>hit2&#45;&gt;return</title>
<path fill="none" stroke="#687386" stroke-width="1.7" d="M1254.73,-107.35C1254.73,-107.35 1699.95,-107.35 1699.95,-107.35"/>
<polygon fill="#687386" stroke="#687386" stroke-width="1.7" points="1699.95,-109.87 1707.15,-107.35 1699.95,-104.83 1699.95,-109.87"/>
<text xml:space="preserve" text-anchor="middle" x="1474.09" y="-106.08" font-family="Aptos" font-size="12.50" fill="#425466">yes</text>
</g>
<!-- rebuild&#45;&gt;return -->
<g id="edge8" class="edge">
<title>rebuild&#45;&gt;return</title>
<path fill="none" stroke="#687386" stroke-width="1.7" d="M1474.27,-152.32C1474.27,-137.31 1474.27,-124.5 1474.27,-124.5 1474.27,-124.5 1700.01,-124.5 1700.01,-124.5"/>
<polygon fill="#687386" stroke="#687386" stroke-width="1.7" points="1700.01,-127.02 1707.21,-124.5 1700.01,-121.98 1700.01,-127.02"/>
<text xml:space="preserve" text-anchor="middle" x="1651.86" y="-182.07" font-family="Aptos" font-size="12.50" fill="#425466">save + reuse</text>
</g>
</g>
</svg>
