<?xml version="1.0" encoding="UTF-8" standalone="no"?>
<!DOCTYPE svg PUBLIC "-//W3C//DTD SVG 1.1//EN"
 "http://www.w3.org/Graphics/SVG/1.1/DTD/svg11.dtd">
<!-- Generated by graphviz version 14.1.5 (20260411.2331)
 -->
<!-- Title: G Pages: 1 -->
<svg width="866pt" height="126pt"
 viewBox="0.00 0.00 866.00 126.00" xmlns="http://www.w3.org/2000/svg" xmlns:xlink="http://www.w3.org/1999/xlink">
<g id="graph0" class="graph" transform="scale(1 1) rotate(0) translate(7.2 119.1)">
<title>G</title>
<polygon fill="white" stroke="none" points="-7.2,7.2 -7.2,-119.1 859.07,-119.1 859.07,7.2 -7.2,7.2"/>
<!-- tokens -->
<g id="node1" class="node">
<title>tokens</title>
<path fill="#efe7ff" stroke="#6d5bd0" stroke-width="2" d="M146.79,-111.9C146.79,-111.9 12,-111.9 12,-111.9 6,-111.9 0,-105.9 0,-99.9 0,-99.9 0,-12 0,-12 0,-6 6,0 12,0 12,0 146.79,0 146.79,0 152.79,0 158.79,-6 158.79,-12 158.79,-12 158.79,-99.9 158.79,-99.9 158.79,-105.9 152.79,-111.9 146.79,-111.9"/>
<text xml:space="preserve" text-anchor="middle" x="79.39" y="-86.65" font-family="Aptos" font-size="19.00">QueryTokens</text>
<text xml:space="preserve" text-anchor="middle" x="79.39" y="-67.15" font-family="Aptos" font-size="19.00">• domain tokens</text>
<text xml:space="preserve" text-anchor="middle" x="79.39" y="-47.65" font-family="Aptos" font-size="19.00">• entities</text>
<text xml:space="preserve" text-anchor="middle" x="79.39" y="-28.15" font-family="Aptos" font-size="19.00">• metrics</text>
<text xml:space="preserve" text-anchor="middle" x="79.39" y="-8.65" font-family="Aptos" font-size="19.00">• statuses</text>
</g>
<!-- score -->
<g id="node2" class="node">
<title>score</title>
<path fill="#f2f4f7" stroke="#687386" stroke-width="2" d="M509.83,-102.15C509.83,-102.15 327.79,-102.15 327.79,-102.15 321.79,-102.15 315.79,-96.15 315.79,-90.15 315.79,-90.15 315.79,-21.75 315.79,-21.75 315.79,-15.75 321.79,-9.75 327.79,-9.75 327.79,-9.75 509.83,-9.75 509.83,-9.75 515.83,-9.75 521.83,-15.75 521.83,-21.75 521.83,-21.75 521.83,-90.15 521.83,-90.15 521.83,-96.15 515.83,-102.15 509.83,-102.15"/>
<text xml:space="preserve" text-anchor="middle" x="418.81" y="-76.9" font-family="Aptos" font-size="19.00">Scoring Table</text>
<text xml:space="preserve" text-anchor="middle" x="418.81" y="-57.4" font-family="Aptos" font-size="19.00">• dim_campaign: 0.92</text>
<text xml:space="preserve" text-anchor="middle" x="418.81" y="-37.9" font-family="Aptos" font-size="19.00">• /ajo/journey: 0.88</text>
<text xml:space="preserve" text-anchor="middle" x="418.81" y="-18.4" font-family="Aptos" font-size="19.00">• dim_target: 0.21</text>
</g>
<!-- tokens&#45;&gt;score -->
<g id="edge1" class="edge">
<title>tokens&#45;&gt;score</title>
<path fill="none" stroke="#687386" stroke-width="1.7" d="M159.4,-55.95C159.4,-55.95 305.12,-55.95 305.12,-55.95"/>
<polygon fill="#687386" stroke="#687386" stroke-width="1.7" points="305.12,-58.47 312.32,-55.95 305.12,-53.43 305.12,-58.47"/>
<text xml:space="preserve" text-anchor="middle" x="237.29" y="-56.83" font-family="Aptos" font-size="12.50" fill="#425466">token/family overlap</text>
</g>
<!-- top -->
<g id="node3" class="node">
<title>top</title>
<path fill="#e8f7ed" stroke="#1a7f52" stroke-width="2" d="M839.87,-111.9C839.87,-111.9 690.08,-111.9 690.08,-111.9 684.08,-111.9 678.08,-105.9 678.08,-99.9 678.08,-99.9 678.08,-12 678.08,-12 678.08,-6 684.08,0 690.08,0 690.08,0 839.87,0 839.87,0 845.87,0 851.87,-6 851.87,-12 851.87,-12 851.87,-99.9 851.87,-99.9 851.87,-105.9 845.87,-111.9 839.87,-111.9"/>
<text xml:space="preserve" text-anchor="middle" x="764.97" y="-86.65" font-family="Aptos" font-size="19.00">Top Context</text>
<text xml:space="preserve" text-anchor="middle" x="764.97" y="-67.15" font-family="Aptos" font-size="19.00">• tables[]</text>
<text xml:space="preserve" text-anchor="middle" x="764.97" y="-47.65" font-family="Aptos" font-size="19.00">• columns[]</text>
<text xml:space="preserve" text-anchor="middle" x="764.97" y="-28.15" font-family="Aptos" font-size="19.00">• join_hints[]</text>
<text xml:space="preserve" text-anchor="middle" x="764.97" y="-8.65" font-family="Aptos" font-size="19.00">• api_candidates[]</text>
</g>
<!-- score&#45;&gt;top -->
<g id="edge2" class="edge">
<title>score&#45;&gt;top</title>
<path fill="none" stroke="#687386" stroke-width="1.7" d="M522.67,-55.95C522.67,-55.95 667.48,-55.95 667.48,-55.95"/>
<polygon fill="#687386" stroke="#687386" stroke-width="1.7" points="667.48,-58.47 674.68,-55.95 667.48,-53.43 667.48,-58.47"/>
<text xml:space="preserve" text-anchor="middle" x="599.95" y="-56.83" font-family="Aptos" font-size="12.50" fill="#425466">keep high relevance</text>
</g>
</g>
</svg>
