<?xml version="1.0" encoding="UTF-8" standalone="no"?>
<!DOCTYPE svg PUBLIC "-//W3C//DTD SVG 1.1//EN"
 "http://www.w3.org/Graphics/SVG/1.1/DTD/svg11.dtd">
<!-- Generated by graphviz version 14.1.5 (20260411.2331)
 -->
<!-- Title: G Pages: 1 -->
<svg width="842pt" height="165pt"
 viewBox="0.00 0.00 842.00 165.00" xmlns="http://www.w3.org/2000/svg" xmlns:xlink="http://www.w3.org/1999/xlink">
<g id="graph0" class="graph" transform="scale(1 1) rotate(0) translate(7.2 158.1)">
<title>G</title>
<polygon fill="white" stroke="none" points="-7.2,7.2 -7.2,-158.1 834.32,-158.1 834.32,7.2 -7.2,7.2"/>
<!-- family -->
<g id="node1" class="node">
<title>family</title>
<path fill="#efe7ff" stroke="#6d5bd0" stroke-width="2" d="M162.54,-131.4C162.54,-131.4 12,-131.4 12,-131.4 6,-131.4 0,-125.4 0,-119.4 0,-119.4 0,-31.5 0,-31.5 0,-25.5 6,-19.5 12,-19.5 12,-19.5 162.54,-19.5 162.54,-19.5 168.54,-19.5 174.54,-25.5 174.54,-31.5 174.54,-31.5 174.54,-119.4 174.54,-119.4 174.54,-125.4 168.54,-131.4 162.54,-131.4"/>
<text xml:space="preserve" text-anchor="middle" x="87.27" y="-106.15" font-family="Aptos" font-size="19.00">query_family</text>
<text xml:space="preserve" text-anchor="middle" x="87.27" y="-86.65" font-family="Aptos" font-size="19.00">• journey</text>
<text xml:space="preserve" text-anchor="middle" x="87.27" y="-67.15" font-family="Aptos" font-size="19.00">• tag</text>
<text xml:space="preserve" text-anchor="middle" x="87.27" y="-47.65" font-family="Aptos" font-size="19.00">• schema_dataset</text>
<text xml:space="preserve" text-anchor="middle" x="87.27" y="-28.15" font-family="Aptos" font-size="19.00">• destination</text>
</g>
<!-- card -->
<g id="node2" class="node">
<title>card</title>
<path fill="#f2f4f7" stroke="#687386" stroke-width="2" d="M467.83,-150.9C467.83,-150.9 336.04,-150.9 336.04,-150.9 330.04,-150.9 324.04,-144.9 324.04,-138.9 324.04,-138.9 324.04,-12 324.04,-12 324.04,-6 330.04,0 336.04,0 336.04,0 467.83,0 467.83,0 473.83,0 479.83,-6 479.83,-12 479.83,-12 479.83,-138.9 479.83,-138.9 479.83,-144.9 473.83,-150.9 467.83,-150.9"/>
<text xml:space="preserve" text-anchor="middle" x="401.93" y="-125.65" font-family="Aptos" font-size="19.00">ContextCard</text>
<text xml:space="preserve" text-anchor="middle" x="401.93" y="-106.15" font-family="Aptos" font-size="19.00">• family</text>
<text xml:space="preserve" text-anchor="middle" x="401.93" y="-86.65" font-family="Aptos" font-size="19.00">• tables[]</text>
<text xml:space="preserve" text-anchor="middle" x="401.93" y="-67.15" font-family="Aptos" font-size="19.00">• columns[]</text>
<text xml:space="preserve" text-anchor="middle" x="401.93" y="-47.65" font-family="Aptos" font-size="19.00">• joins[]</text>
<text xml:space="preserve" text-anchor="middle" x="401.93" y="-28.15" font-family="Aptos" font-size="19.00">• apis[]</text>
<text xml:space="preserve" text-anchor="middle" x="401.93" y="-8.65" font-family="Aptos" font-size="19.00">• answer_policy</text>
</g>
<!-- family&#45;&gt;card -->
<g id="edge1" class="edge">
<title>family&#45;&gt;card</title>
<path fill="none" stroke="#687386" stroke-width="1.7" d="M175.34,-75.45C175.34,-75.45 313.51,-75.45 313.51,-75.45"/>
<polygon fill="#687386" stroke="#687386" stroke-width="1.7" points="313.51,-77.97 320.71,-75.45 313.51,-72.93 313.51,-77.97"/>
<text xml:space="preserve" text-anchor="middle" x="249.29" y="-76.32" font-family="Aptos" font-size="12.50" fill="#425466">choose family card</text>
</g>
<!-- meta -->
<g id="node3" class="node">
<title>meta</title>
<path fill="#f2f4f7" stroke="#687386" stroke-width="2" d="M815.12,-131.4C815.12,-131.4 660.08,-131.4 660.08,-131.4 654.08,-131.4 648.08,-125.4 648.08,-119.4 648.08,-119.4 648.08,-31.5 648.08,-31.5 648.08,-25.5 654.08,-19.5 660.08,-19.5 660.08,-19.5 815.12,-19.5 815.12,-19.5 821.12,-19.5 827.12,-25.5 827.12,-31.5 827.12,-31.5 827.12,-119.4 827.12,-119.4 827.12,-125.4 821.12,-131.4 815.12,-131.4"/>
<text xml:space="preserve" text-anchor="middle" x="737.6" y="-106.15" font-family="Aptos" font-size="19.00">SelectedMetadata</text>
<text xml:space="preserve" text-anchor="middle" x="737.6" y="-86.65" font-family="Aptos" font-size="19.00">• compact schema</text>
<text xml:space="preserve" text-anchor="middle" x="737.6" y="-67.15" font-family="Aptos" font-size="19.00">• top APIs</text>
<text xml:space="preserve" text-anchor="middle" x="737.6" y="-47.65" font-family="Aptos" font-size="19.00">• join hints</text>
<text xml:space="preserve" text-anchor="middle" x="737.6" y="-28.15" font-family="Aptos" font-size="19.00">• context_card</text>
</g>
<!-- card&#45;&gt;meta -->
<g id="edge2" class="edge">
<title>card&#45;&gt;meta</title>
<path fill="none" stroke="#687386" stroke-width="1.7" d="M480.63,-75.45C480.63,-75.45 637.46,-75.45 637.46,-75.45"/>
<polygon fill="#687386" stroke="#687386" stroke-width="1.7" points="637.46,-77.97 644.66,-75.45 637.46,-72.93 637.46,-77.97"/>
<text xml:space="preserve" text-anchor="middle" x="563.95" y="-76.32" font-family="Aptos" font-size="12.50" fill="#425466">replace broad schema</text>
</g>
</g>
</svg>
