<?xml version="1.0" encoding="UTF-8" standalone="no"?>
<!DOCTYPE svg PUBLIC "-//W3C//DTD SVG 1.1//EN"
 "http://www.w3.org/Graphics/SVG/1.1/DTD/svg11.dtd">
<!-- Generated by graphviz version 14.1.5 (20260411.2331)
 -->
<!-- Title: G Pages: 1 -->
<svg width="955pt" height="165pt"
 viewBox="0.00 0.00 955.00 165.00" xmlns="http://www.w3.org/2000/svg" xmlns:xlink="http://www.w3.org/1999/xlink">
<g id="graph0" class="graph" transform="scale(1 1) rotate(0) translate(7.2 158.1)">
<title>G</title>
<polygon fill="white" stroke="none" points="-7.2,7.2 -7.2,-158.1 947.57,-158.1 947.57,7.2 -7.2,7.2"/>
<!-- norm -->
<g id="node1" class="node">
<title>norm</title>
<path fill="#efe7ff" stroke="#6d5bd0" stroke-width="2" d="M158.79,-111.9C158.79,-111.9 12,-111.9 12,-111.9 6,-111.9 0,-105.9 0,-99.9 0,-99.9 0,-51 0,-51 0,-45 6,-39 12,-39 12,-39 158.79,-39 158.79,-39 164.79,-39 170.79,-45 170.79,-51 170.79,-51 170.79,-99.9 170.79,-99.9 170.79,-105.9 164.79,-111.9 158.79,-111.9"/>
<text xml:space="preserve" text-anchor="middle" x="85.39" y="-86.65" font-family="Aptos" font-size="19.00">NormalizedQuery</text>
<text xml:space="preserve" text-anchor="middle" x="85.39" y="-67.15" font-family="Aptos" font-size="19.00">• normalized_text</text>
<text xml:space="preserve" text-anchor="middle" x="85.39" y="-47.65" font-family="Aptos" font-size="19.00">• original_text</text>
</g>
<!-- tokens -->
<g id="node2" class="node">
<title>tokens</title>
<path fill="#f2f4f7" stroke="#687386" stroke-width="2" d="M606.58,-150.9C606.58,-150.9 381.04,-150.9 381.04,-150.9 375.04,-150.9 369.04,-144.9 369.04,-138.9 369.04,-138.9 369.04,-12 369.04,-12 369.04,-6 375.04,0 381.04,0 381.04,0 606.58,0 606.58,0 612.58,0 618.58,-6 618.58,-12 618.58,-12 618.58,-138.9 618.58,-138.9 618.58,-144.9 612.58,-150.9 606.58,-150.9"/>
<text xml:space="preserve" text-anchor="middle" x="493.81" y="-125.65" font-family="Aptos" font-size="19.00">QueryTokens</text>
<text xml:space="preserve" text-anchor="middle" x="493.81" y="-106.15" font-family="Aptos" font-size="19.00">• quoted_entities: [Birthday</text>
<text xml:space="preserve" text-anchor="middle" x="493.81" y="-86.65" font-family="Aptos" font-size="19.00">Message]</text>
<text xml:space="preserve" text-anchor="middle" x="493.81" y="-67.15" font-family="Aptos" font-size="19.00">• ids[]</text>
<text xml:space="preserve" text-anchor="middle" x="493.81" y="-47.65" font-family="Aptos" font-size="19.00">• dates[]</text>
<text xml:space="preserve" text-anchor="middle" x="493.81" y="-28.15" font-family="Aptos" font-size="19.00">• metrics[]</text>
<text xml:space="preserve" text-anchor="middle" x="493.81" y="-8.65" font-family="Aptos" font-size="19.00">• statuses: [published]</text>
</g>
<!-- norm&#45;&gt;tokens -->
<g id="edge1" class="edge">
<title>norm&#45;&gt;tokens</title>
<path fill="none" stroke="#687386" stroke-width="1.7" d="M171.51,-75.45C171.51,-75.45 358.5,-75.45 358.5,-75.45"/>
<polygon fill="#687386" stroke="#687386" stroke-width="1.7" points="358.5,-77.97 365.7,-75.45 358.5,-72.93 358.5,-77.97"/>
<text xml:space="preserve" text-anchor="middle" x="269.91" y="-76.32" font-family="Aptos" font-size="12.50" fill="#425466">extract entities / IDs / dates</text>
</g>
<!-- uses -->
<g id="node3" class="node">
<title>uses</title>
<path fill="#e8f7ed" stroke="#1a7f52" stroke-width="2" d="M928.37,-121.65C928.37,-121.65 771.83,-121.65 771.83,-121.65 765.83,-121.65 759.83,-115.65 759.83,-109.65 759.83,-109.65 759.83,-41.25 759.83,-41.25 759.83,-35.25 765.83,-29.25 771.83,-29.25 771.83,-29.25 928.37,-29.25 928.37,-29.25 934.37,-29.25 940.37,-35.25 940.37,-41.25 940.37,-41.25 940.37,-109.65 940.37,-109.65 940.37,-115.65 934.37,-121.65 928.37,-121.65"/>
<text xml:space="preserve" text-anchor="middle" x="850.1" y="-96.4" font-family="Aptos" font-size="19.00">Used By</text>
<text xml:space="preserve" text-anchor="middle" x="850.1" y="-76.9" font-family="Aptos" font-size="19.00">• Router</text>
<text xml:space="preserve" text-anchor="middle" x="850.1" y="-57.4" font-family="Aptos" font-size="19.00">• templates</text>
<text xml:space="preserve" text-anchor="middle" x="850.1" y="-37.9" font-family="Aptos" font-size="19.00">• relevance_scorer</text>
</g>
<!-- tokens&#45;&gt;uses -->
<g id="edge2" class="edge">
<title>tokens&#45;&gt;uses</title>
<path fill="none" stroke="#687386" stroke-width="1.7" d="M619.42,-75.45C619.42,-75.45 749.14,-75.45 749.14,-75.45"/>
<polygon fill="#687386" stroke="#687386" stroke-width="1.7" points="749.14,-77.97 756.34,-75.45 749.14,-72.93 749.14,-77.97"/>
<text xml:space="preserve" text-anchor="middle" x="689.2" y="-76.32" font-family="Aptos" font-size="12.50" fill="#425466">structured tokens</text>
</g>
</g>
</svg>
