<?xml version="1.0" encoding="UTF-8" standalone="no"?>
<!DOCTYPE svg PUBLIC "-//W3C//DTD SVG 1.1//EN"
 "http://www.w3.org/Graphics/SVG/1.1/DTD/svg11.dtd">
<!-- Generated by graphviz version 14.1.5 (20260411.2331)
 -->
<!-- Title: G Pages: 1 -->
<svg width="1068pt" height="107pt"
 viewBox="0.00 0.00 1068.00 107.00" xmlns="http://www.w3.org/2000/svg" xmlns:xlink="http://www.w3.org/1999/xlink">
<g id="graph0" class="graph" transform="scale(1 1) rotate(0) translate(7.2 99.6)">
<title>G</title>
<polygon fill="white" stroke="none" points="-7.2,7.2 -7.2,-99.6 1060.82,-99.6 1060.82,7.2 -7.2,7.2"/>
<!-- answer -->
<g id="node1" class="node">
<title>answer</title>
<path fill="#f2f4f7" stroke="#687386" stroke-width="2" d="M290.04,-82.65C290.04,-82.65 12,-82.65 12,-82.65 6,-82.65 0,-76.65 0,-70.65 0,-70.65 0,-21.75 0,-21.75 0,-15.75 6,-9.75 12,-9.75 12,-9.75 290.04,-9.75 290.04,-9.75 296.04,-9.75 302.04,-15.75 302.04,-21.75 302.04,-21.75 302.04,-70.65 302.04,-70.65 302.04,-76.65 296.04,-82.65 290.04,-82.65"/>
<text xml:space="preserve" text-anchor="middle" x="151.02" y="-57.4" font-family="Aptos" font-size="19.00">CandidateAnswer</text>
<text xml:space="preserve" text-anchor="middle" x="151.02" y="-37.9" font-family="Aptos" font-size="19.00">• Birthday Message has not been</text>
<text xml:space="preserve" text-anchor="middle" x="151.02" y="-18.4" font-family="Aptos" font-size="19.00">published</text>
</g>
<!-- claims -->
<g id="node2" class="node">
<title>claims</title>
<path fill="#e8f7ed" stroke="#1a7f52" stroke-width="2" d="M700.33,-92.4C700.33,-92.4 436.54,-92.4 436.54,-92.4 430.54,-92.4 424.54,-86.4 424.54,-80.4 424.54,-80.4 424.54,-12 424.54,-12 424.54,-6 430.54,0 436.54,0 436.54,0 700.33,0 700.33,0 706.33,0 712.33,-6 712.33,-12 712.33,-12 712.33,-80.4 712.33,-80.4 712.33,-86.4 706.33,-92.4 700.33,-92.4"/>
<text xml:space="preserve" text-anchor="middle" x="568.43" y="-67.15" font-family="Aptos" font-size="19.00">AnswerClaims</text>
<text xml:space="preserve" text-anchor="middle" x="568.43" y="-47.65" font-family="Aptos" font-size="19.00">• entity: Birthday Message</text>
<text xml:space="preserve" text-anchor="middle" x="568.43" y="-28.15" font-family="Aptos" font-size="19.00">• status: not published</text>
<text xml:space="preserve" text-anchor="middle" x="568.43" y="-8.65" font-family="Aptos" font-size="19.00">• number/timestamp/API claims</text>
</g>
<!-- answer&#45;&gt;claims -->
<g id="edge1" class="edge">
<title>answer&#45;&gt;claims</title>
<path fill="none" stroke="#687386" stroke-width="1.7" d="M302.9,-46.2C302.9,-46.2 413.86,-46.2 413.86,-46.2"/>
<polygon fill="#687386" stroke="#687386" stroke-width="1.7" points="413.86,-48.72 421.06,-46.2 413.86,-43.68 413.86,-48.72"/>
<text xml:space="preserve" text-anchor="middle" x="363.29" y="-47.08" font-family="Aptos" font-size="12.50" fill="#425466">split into facts</text>
</g>
<!-- verify -->
<g id="node3" class="node">
<title>verify</title>
<path fill="#e8f7ed" stroke="#1a7f52" stroke-width="2" d="M1041.62,-92.4C1041.62,-92.4 899.33,-92.4 899.33,-92.4 893.33,-92.4 887.33,-86.4 887.33,-80.4 887.33,-80.4 887.33,-12 887.33,-12 887.33,-6 893.33,0 899.33,0 899.33,0 1041.62,0 1041.62,0 1047.62,0 1053.62,-6 1053.62,-12 1053.62,-12 1053.62,-80.4 1053.62,-80.4 1053.62,-86.4 1047.62,-92.4 1041.62,-92.4"/>
<text xml:space="preserve" text-anchor="middle" x="970.47" y="-67.15" font-family="Aptos" font-size="19.00">Verification Units</text>
<text xml:space="preserve" text-anchor="middle" x="970.47" y="-47.65" font-family="Aptos" font-size="19.00">• claim type</text>
<text xml:space="preserve" text-anchor="middle" x="970.47" y="-28.15" font-family="Aptos" font-size="19.00">• claim value</text>
<text xml:space="preserve" text-anchor="middle" x="970.47" y="-8.65" font-family="Aptos" font-size="19.00">• support needed</text>
</g>
<!-- claims&#45;&gt;verify -->
<g id="edge2" class="edge">
<title>claims&#45;&gt;verify</title>
<path fill="none" stroke="#687386" stroke-width="1.7" d="M713.3,-46.2C713.3,-46.2 876.77,-46.2 876.77,-46.2"/>
<polygon fill="#687386" stroke="#687386" stroke-width="1.7" points="876.77,-48.72 883.97,-46.2 876.77,-43.68 876.77,-48.72"/>
<text xml:space="preserve" text-anchor="middle" x="799.83" y="-47.08" font-family="Aptos" font-size="12.50" fill="#425466">prepare support checks</text>
</g>
</g>
</svg>
