<?xml version="1.0" encoding="UTF-8" standalone="no"?>
<!DOCTYPE svg PUBLIC "-//W3C//DTD SVG 1.1//EN"
 "http://www.w3.org/Graphics/SVG/1.1/DTD/svg11.dtd">
<!-- Generated by graphviz version 14.1.5 (20260411.2331)
 -->
<!-- Title: G Pages: 1 -->
<svg width="983pt" height="215pt"
 viewBox="0.00 0.00 983.00 215.00" xmlns="http://www.w3.org/2000/svg" xmlns:xlink="http://www.w3.org/1999/xlink">
<g id="graph0" class="graph" transform="scale(1 1) rotate(0) translate(7.2 207.85)">
<title>G</title>
<polygon fill="white" stroke="none" points="-7.2,7.2 -7.2,-207.85 975.32,-207.85 975.32,7.2 -7.2,7.2"/>
<!-- family -->
<g id="node1" class="node">
<title>family</title>
<path fill="#efe7ff" stroke="#6d5bd0" stroke-width="2" d="M198.54,-122.15C198.54,-122.15 12,-122.15 12,-122.15 6,-122.15 0,-116.15 0,-110.15 0,-110.15 0,-80.75 0,-80.75 0,-74.75 6,-68.75 12,-68.75 12,-68.75 198.54,-68.75 198.54,-68.75 204.54,-68.75 210.54,-74.75 210.54,-80.75 210.54,-80.75 210.54,-110.15 210.54,-110.15 210.54,-116.15 204.54,-122.15 198.54,-122.15"/>
<text xml:space="preserve" text-anchor="middle" x="105.27" y="-96.9" font-family="Aptos" font-size="19.00">query_family</text>
<text xml:space="preserve" text-anchor="middle" x="105.27" y="-77.4" font-family="Aptos" font-size="19.00">• segment_destination</text>
</g>
<!-- path -->
<g id="node2" class="node">
<title>path</title>
<path fill="#efe7ff" stroke="#6d5bd0" stroke-width="2" d="M632.08,-170.9C632.08,-170.9 371.29,-170.9 371.29,-170.9 365.29,-170.9 359.29,-164.9 359.29,-158.9 359.29,-158.9 359.29,-32 359.29,-32 359.29,-26 365.29,-20 371.29,-20 371.29,-20 632.08,-20 632.08,-20 638.08,-20 644.08,-26 644.08,-32 644.08,-32 644.08,-158.9 644.08,-158.9 644.08,-164.9 638.08,-170.9 632.08,-170.9"/>
<text xml:space="preserve" text-anchor="middle" x="501.68" y="-145.65" font-family="Aptos" font-size="19.00">LookupPath</text>
<text xml:space="preserve" text-anchor="middle" x="501.68" y="-126.15" font-family="Aptos" font-size="19.00">• tables: dim_segment, bridge,</text>
<text xml:space="preserve" text-anchor="middle" x="501.68" y="-106.65" font-family="Aptos" font-size="19.00">dim_target</text>
<text xml:space="preserve" text-anchor="middle" x="501.68" y="-87.15" font-family="Aptos" font-size="19.00">• joins: segment_id &#45;&gt; target_id</text>
<text xml:space="preserve" text-anchor="middle" x="501.68" y="-67.65" font-family="Aptos" font-size="19.00">• required_ids: destination_id</text>
<text xml:space="preserve" text-anchor="middle" x="501.68" y="-48.15" font-family="Aptos" font-size="19.00">• api_family:</text>
<text xml:space="preserve" text-anchor="middle" x="501.68" y="-28.65" font-family="Aptos" font-size="19.00">audience_by_destination</text>
</g>
<!-- family&#45;&gt;path -->
<g id="edge1" class="edge">
<title>family&#45;&gt;path</title>
<path fill="none" stroke="#687386" stroke-width="1.7" d="M211.5,-95.45C211.5,-95.45 348.85,-95.45 348.85,-95.45"/>
<polygon fill="#687386" stroke="#687386" stroke-width="1.7" points="348.85,-97.97 356.05,-95.45 348.85,-92.93 348.85,-97.97"/>
<text xml:space="preserve" text-anchor="middle" x="284.91" y="-96.33" font-family="Aptos" font-size="12.50" fill="#425466">map family to path</text>
</g>
<!-- meta -->
<g id="node3" class="node">
<title>meta</title>
<path fill="#f2f4f7" stroke="#687386" stroke-width="2" d="M946.74,-200.65C946.74,-200.65 784.95,-200.65 784.95,-200.65 778.95,-200.65 772.95,-194.65 772.95,-188.65 772.95,-188.65 772.95,-120.25 772.95,-120.25 772.95,-114.25 778.95,-108.25 784.95,-108.25 784.95,-108.25 946.74,-108.25 946.74,-108.25 952.74,-108.25 958.74,-114.25 958.74,-120.25 958.74,-120.25 958.74,-188.65 958.74,-188.65 958.74,-194.65 952.74,-200.65 946.74,-200.65"/>
<text xml:space="preserve" text-anchor="middle" x="865.85" y="-175.4" font-family="Aptos" font-size="19.00">Metadata Selection</text>
<text xml:space="preserve" text-anchor="middle" x="865.85" y="-155.9" font-family="Aptos" font-size="19.00">• relevant tables</text>
<text xml:space="preserve" text-anchor="middle" x="865.85" y="-136.4" font-family="Aptos" font-size="19.00">• join hints</text>
<text xml:space="preserve" text-anchor="middle" x="865.85" y="-116.9" font-family="Aptos" font-size="19.00">• API candidates</text>
</g>
<!-- path&#45;&gt;meta -->
<g id="edge2" class="edge">
<title>path&#45;&gt;meta</title>
<path fill="none" stroke="#687386" stroke-width="1.7" d="M644.83,-139.57C644.83,-139.57 762.2,-139.57 762.2,-139.57"/>
<polygon fill="#687386" stroke="#687386" stroke-width="1.7" points="762.2,-142.1 769.4,-139.58 762.2,-137.06 762.2,-142.1"/>
<text xml:space="preserve" text-anchor="middle" x="703.83" y="-155.32" font-family="Aptos" font-size="12.50" fill="#425466">guide context</text>
</g>
<!-- planner -->
<g id="node4" class="node">
<title>planner</title>
<path fill="#fff3e0" stroke="#d97706" stroke-width="2" d="M956.12,-72.9C956.12,-72.9 775.58,-72.9 775.58,-72.9 769.58,-72.9 763.58,-66.9 763.58,-60.9 763.58,-60.9 763.58,-12 763.58,-12 763.58,-6 769.58,0 775.58,0 775.58,0 956.12,0 956.12,0 962.12,0 968.12,-6 968.12,-12 968.12,-12 968.12,-60.9 968.12,-60.9 968.12,-66.9 962.12,-72.9 956.12,-72.9"/>
<text xml:space="preserve" text-anchor="middle" x="865.85" y="-47.65" font-family="Aptos" font-size="19.00">Planner/API Params</text>
<text xml:space="preserve" text-anchor="middle" x="865.85" y="-28.15" font-family="Aptos" font-size="19.00">• choose join path</text>
<text xml:space="preserve" text-anchor="middle" x="865.85" y="-8.65" font-family="Aptos" font-size="19.00">• resolve required IDs</text>
</g>
<!-- path&#45;&gt;planner -->
<g id="edge3" class="edge">
<title>path&#45;&gt;planner</title>
<path fill="none" stroke="#687386" stroke-width="1.7" d="M644.83,-46.45C644.83,-46.45 752.87,-46.45 752.87,-46.45"/>
<polygon fill="#687386" stroke="#687386" stroke-width="1.7" points="752.87,-48.97 760.07,-46.45 752.87,-43.93 752.87,-48.97"/>
<text xml:space="preserve" text-anchor="middle" x="703.83" y="-37.33" font-family="Aptos" font-size="12.50" fill="#425466">guide plan fill</text>
</g>
</g>
</svg>
