<?xml version="1.0" encoding="UTF-8" standalone="no"?>
<!DOCTYPE svg PUBLIC "-//W3C//DTD SVG 1.1//EN"
 "http://www.w3.org/Graphics/SVG/1.1/DTD/svg11.dtd">
<!-- Generated by graphviz version 14.1.5 (20260411.2331)
 -->
<!-- Title: G Pages: 1 -->
<svg width="839pt" height="126pt"
 viewBox="0.00 0.00 839.00 126.00" xmlns="http://www.w3.org/2000/svg" xmlns:xlink="http://www.w3.org/1999/xlink">
<g id="graph0" class="graph" transform="scale(1 1) rotate(0) translate(7.2 119.1)">
<title>G</title>
<polygon fill="white" stroke="none" points="-7.2,7.2 -7.2,-119.1 831.32,-119.1 831.32,7.2 -7.2,7.2"/>
<!-- candidates -->
<g id="node1" class="node">
<title>candidates</title>
<path fill="#f2f4f7" stroke="#687386" stroke-width="2" d="M185.04,-102.15C185.04,-102.15 12,-102.15 12,-102.15 6,-102.15 0,-96.15 0,-90.15 0,-90.15 0,-21.75 0,-21.75 0,-15.75 6,-9.75 12,-9.75 12,-9.75 185.04,-9.75 185.04,-9.75 191.04,-9.75 197.04,-15.75 197.04,-21.75 197.04,-21.75 197.04,-90.15 197.04,-90.15 197.04,-96.15 191.04,-102.15 185.04,-102.15"/>
<text xml:space="preserve" text-anchor="middle" x="98.52" y="-76.9" font-family="Aptos" font-size="19.00">Candidate Answers</text>
<text xml:space="preserve" text-anchor="middle" x="98.52" y="-57.4" font-family="Aptos" font-size="19.00">• concise</text>
<text xml:space="preserve" text-anchor="middle" x="98.52" y="-37.9" font-family="Aptos" font-size="19.00">• evidence&#45;grounded</text>
<text xml:space="preserve" text-anchor="middle" x="98.52" y="-18.4" font-family="Aptos" font-size="19.00">• gold&#45;style</text>
</g>
<!-- scores -->
<g id="node2" class="node">
<title>scores</title>
<path fill="#e8f7ed" stroke="#1a7f52" stroke-width="2" d="M539.83,-111.9C539.83,-111.9 363.79,-111.9 363.79,-111.9 357.79,-111.9 351.79,-105.9 351.79,-99.9 351.79,-99.9 351.79,-12 351.79,-12 351.79,-6 357.79,0 363.79,0 363.79,0 539.83,0 539.83,0 545.83,0 551.83,-6 551.83,-12 551.83,-12 551.83,-99.9 551.83,-99.9 551.83,-105.9 545.83,-111.9 539.83,-111.9"/>
<text xml:space="preserve" text-anchor="middle" x="451.81" y="-86.65" font-family="Aptos" font-size="19.00">Rerank Table</text>
<text xml:space="preserve" text-anchor="middle" x="451.81" y="-67.15" font-family="Aptos" font-size="19.00">• verifier pass</text>
<text xml:space="preserve" text-anchor="middle" x="451.81" y="-47.65" font-family="Aptos" font-size="19.00">• intent match</text>
<text xml:space="preserve" text-anchor="middle" x="451.81" y="-28.15" font-family="Aptos" font-size="19.00">• length</text>
<text xml:space="preserve" text-anchor="middle" x="451.81" y="-8.65" font-family="Aptos" font-size="19.00">• unsupported claims</text>
</g>
<!-- candidates&#45;&gt;scores -->
<g id="edge1" class="edge">
<title>candidates&#45;&gt;scores</title>
<path fill="none" stroke="#687386" stroke-width="1.7" d="M197.87,-55.95C197.87,-55.95 341.29,-55.95 341.29,-55.95"/>
<polygon fill="#687386" stroke="#687386" stroke-width="1.7" points="341.29,-58.47 348.49,-55.95 341.29,-53.43 341.29,-58.47"/>
<text xml:space="preserve" text-anchor="middle" x="274.41" y="-56.83" font-family="Aptos" font-size="12.50" fill="#425466">same evidence only</text>
</g>
<!-- final -->
<g id="node3" class="node">
<title>final</title>
<path fill="#e8f7ed" stroke="#1a7f52" stroke-width="2" d="M812.12,-92.4C812.12,-92.4 675.83,-92.4 675.83,-92.4 669.83,-92.4 663.83,-86.4 663.83,-80.4 663.83,-80.4 663.83,-31.5 663.83,-31.5 663.83,-25.5 669.83,-19.5 675.83,-19.5 675.83,-19.5 812.12,-19.5 812.12,-19.5 818.12,-19.5 824.12,-25.5 824.12,-31.5 824.12,-31.5 824.12,-80.4 824.12,-80.4 824.12,-86.4 818.12,-92.4 812.12,-92.4"/>
<text xml:space="preserve" text-anchor="middle" x="743.97" y="-67.15" font-family="Aptos" font-size="19.00">Final Answer</text>
<text xml:space="preserve" text-anchor="middle" x="743.97" y="-47.65" font-family="Aptos" font-size="19.00">• best supported</text>
<text xml:space="preserve" text-anchor="middle" x="743.97" y="-28.15" font-family="Aptos" font-size="19.00">• short if tied</text>
</g>
<!-- scores&#45;&gt;final -->
<g id="edge2" class="edge">
<title>scores&#45;&gt;final</title>
<path fill="none" stroke="#687386" stroke-width="1.7" d="M552.77,-55.95C552.77,-55.95 653.5,-55.95 653.5,-55.95"/>
<polygon fill="#687386" stroke="#687386" stroke-width="1.7" points="653.5,-58.47 660.7,-55.95 653.5,-53.43 653.5,-58.47"/>
<text xml:space="preserve" text-anchor="middle" x="607.83" y="-56.83" font-family="Aptos" font-size="12.50" fill="#425466">choose best</text>
</g>
</g>
</svg>
