<?xml version="1.0" encoding="UTF-8" standalone="no"?>
<!DOCTYPE svg PUBLIC "-//W3C//DTD SVG 1.1//EN"
 "http://www.w3.org/Graphics/SVG/1.1/DTD/svg11.dtd">
<!-- Generated by graphviz version 14.1.5 (20260411.2331)
 -->
<!-- Title: G Pages: 1 -->
<svg width="732pt" height="540pt"
 viewBox="0.00 0.00 732.00 540.00" xmlns="http://www.w3.org/2000/svg" xmlns:xlink="http://www.w3.org/1999/xlink">
<g id="graph0" class="graph" transform="scale(1 1) rotate(0) translate(7.2 532.65)">
<title>G</title>
<polygon fill="white" stroke="none" points="-7.2,7.2 -7.2,-532.65 724.43,-532.65 724.43,7.2 -7.2,7.2"/>
<!-- input -->
<g id="node1" class="node">
<title>input</title>
<path fill="#efe7ff" stroke="#6d5bd0" stroke-width="2" d="M274.98,-525.45C274.98,-525.45 51.69,-525.45 51.69,-525.45 45.69,-525.45 39.69,-519.45 39.69,-513.45 39.69,-513.45 39.69,-425.55 39.69,-425.55 39.69,-419.55 45.69,-413.55 51.69,-413.55 51.69,-413.55 274.98,-413.55 274.98,-413.55 280.98,-413.55 286.98,-419.55 286.98,-425.55 286.98,-425.55 286.98,-513.45 286.98,-513.45 286.98,-519.45 280.98,-525.45 274.98,-525.45"/>
<text xml:space="preserve" text-anchor="middle" x="163.34" y="-500.2" font-family="Aptos" font-size="19.00">QueryAnalysis + DraftPlan</text>
<text xml:space="preserve" text-anchor="middle" x="163.34" y="-480.7" font-family="Aptos" font-size="19.00">• family</text>
<text xml:space="preserve" text-anchor="middle" x="163.34" y="-461.2" font-family="Aptos" font-size="19.00">• route_type</text>
<text xml:space="preserve" text-anchor="middle" x="163.34" y="-441.7" font-family="Aptos" font-size="19.00">• sql evidence possible</text>
<text xml:space="preserve" text-anchor="middle" x="163.34" y="-422.2" font-family="Aptos" font-size="19.00">• api templates</text>
</g>
<!-- d1 -->
<g id="node2" class="node">
<title>d1</title>
<path fill="#efe7ff" stroke="#6d5bd0" stroke-width="2" d="M151.62,-352.22C151.62,-352.22 11.72,-321.38 11.72,-321.38 5.86,-320.09 5.86,-317.51 11.72,-316.22 11.72,-316.22 151.62,-285.38 151.62,-285.38 157.48,-284.09 169.2,-284.09 175.06,-285.38 175.06,-285.38 314.96,-316.22 314.96,-316.22 320.82,-317.51 320.82,-320.09 314.96,-321.38 314.96,-321.38 175.06,-352.22 175.06,-352.22 169.2,-353.51 157.48,-353.51 151.62,-352.22"/>
<text xml:space="preserve" text-anchor="middle" x="163.34" y="-310.5" font-family="Aptos" font-size="19.00">API&#45;only or live data?</text>
</g>
<!-- input&#45;&gt;d1 -->
<g id="edge1" class="edge">
<title>input&#45;&gt;d1</title>
<path fill="none" stroke="#687386" stroke-width="1.7" d="M163.34,-412.96C163.34,-412.96 163.34,-365.32 163.34,-365.32"/>
<polygon fill="#687386" stroke="#687386" stroke-width="1.7" points="165.86,-365.32 163.34,-358.12 160.82,-365.32 165.86,-365.32"/>
<text xml:space="preserve" text-anchor="middle" x="218.46" y="-378.68" font-family="Aptos" font-size="12.50" fill="#425466">inspect query family</text>
</g>
<!-- required -->
<g id="node3" class="node">
<title>required</title>
<path fill="#fff3e0" stroke="#d97706" stroke-width="2" d="M244.11,-224.05C244.11,-224.05 24.57,-224.05 24.57,-224.05 18.57,-224.05 12.57,-218.05 12.57,-212.05 12.57,-212.05 12.57,-143.65 12.57,-143.65 12.57,-137.65 18.57,-131.65 24.57,-131.65 24.57,-131.65 244.11,-131.65 244.11,-131.65 250.11,-131.65 256.11,-137.65 256.11,-143.65 256.11,-143.65 256.11,-212.05 256.11,-212.05 256.11,-218.05 250.11,-224.05 244.11,-224.05"/>
<text xml:space="preserve" text-anchor="middle" x="134.34" y="-198.8" font-family="Aptos" font-size="19.00">ApiNeedDecision</text>
<text xml:space="preserve" text-anchor="middle" x="134.34" y="-179.3" font-family="Aptos" font-size="19.00">• mode = API_REQUIRED</text>
<text xml:space="preserve" text-anchor="middle" x="134.34" y="-159.8" font-family="Aptos" font-size="19.00">• reason</text>
<text xml:space="preserve" text-anchor="middle" x="134.34" y="-140.3" font-family="Aptos" font-size="19.00">• max_api_calls</text>
</g>
<!-- d1&#45;&gt;required -->
<g id="edge2" class="edge">
<title>d1&#45;&gt;required</title>
<path fill="none" stroke="#687386" stroke-width="1.7" d="M134.34,-288.22C134.34,-288.22 134.34,-234.78 134.34,-234.78"/>
<polygon fill="#687386" stroke="#687386" stroke-width="1.7" points="136.86,-234.78 134.34,-227.58 131.82,-234.78 136.86,-234.78"/>
<text xml:space="preserve" text-anchor="middle" x="143.71" y="-247.93" font-family="Aptos" font-size="12.50" fill="#425466">yes</text>
</g>
<!-- d2 -->
<g id="node4" class="node">
<title>d2</title>
<path fill="#efe7ff" stroke="#6d5bd0" stroke-width="2" d="M453.59,-211.42C453.59,-211.42 302.93,-180.28 302.93,-180.28 297.06,-179.06 297.06,-176.64 302.93,-175.42 302.93,-175.42 453.59,-144.28 453.59,-144.28 459.46,-143.06 471.21,-143.06 477.09,-144.28 477.09,-144.28 627.75,-175.42 627.75,-175.42 633.62,-176.64 633.62,-179.06 627.75,-180.28 627.75,-180.28 477.09,-211.42 477.09,-211.42 471.21,-212.64 459.46,-212.64 453.59,-211.42"/>
<text xml:space="preserve" text-anchor="middle" x="465.34" y="-169.55" font-family="Aptos" font-size="19.00">Can SQL fully answer?</text>
</g>
<!-- d1&#45;&gt;d2 -->
<g id="edge3" class="edge">
<title>d1&#45;&gt;d2</title>
<path fill="none" stroke="#687386" stroke-width="1.7" d="M308.93,-314.11C308.93,-314.11 308.93,-192.19 308.93,-192.19"/>
<polygon fill="#687386" stroke="#687386" stroke-width="1.7" points="311.45,-192.19 308.93,-184.99 306.41,-192.19 311.45,-192.19"/>
<text xml:space="preserve" text-anchor="middle" x="336.09" y="-247.93" font-family="Aptos" font-size="12.50" fill="#425466">no</text>
</g>
<!-- skip -->
<g id="node5" class="node">
<title>skip</title>
<path fill="#e8f7ed" stroke="#1a7f52" stroke-width="2" d="M430.86,-72.9C430.86,-72.9 233.82,-72.9 233.82,-72.9 227.82,-72.9 221.82,-66.9 221.82,-60.9 221.82,-60.9 221.82,-12 221.82,-12 221.82,-6 227.82,0 233.82,0 233.82,0 430.86,0 430.86,0 436.86,0 442.86,-6 442.86,-12 442.86,-12 442.86,-60.9 442.86,-60.9 442.86,-66.9 436.86,-72.9 430.86,-72.9"/>
<text xml:space="preserve" text-anchor="middle" x="332.34" y="-47.65" font-family="Aptos" font-size="19.00">ApiNeedDecision</text>
<text xml:space="preserve" text-anchor="middle" x="332.34" y="-28.15" font-family="Aptos" font-size="19.00">• mode = API_SKIP</text>
<text xml:space="preserve" text-anchor="middle" x="332.34" y="-8.65" font-family="Aptos" font-size="19.00">• reason = SQL enough</text>
</g>
<!-- d2&#45;&gt;skip -->
<g id="edge4" class="edge">
<title>d2&#45;&gt;skip</title>
<path fill="none" stroke="#687386" stroke-width="1.7" d="M367.02,-161.35C367.02,-161.35 367.02,-83.51 367.02,-83.51"/>
<polygon fill="#687386" stroke="#687386" stroke-width="1.7" points="369.54,-83.51 367.02,-76.31 364.5,-83.51 369.54,-83.51"/>
<text xml:space="preserve" text-anchor="middle" x="341.71" y="-96.78" font-family="Aptos" font-size="12.50" fill="#425466">yes</text>
</g>
<!-- optional -->
<g id="node6" class="node">
<title>optional</title>
<path fill="#efe7ff" stroke="#6d5bd0" stroke-width="2" d="M705.23,-72.9C705.23,-72.9 489.44,-72.9 489.44,-72.9 483.44,-72.9 477.44,-66.9 477.44,-60.9 477.44,-60.9 477.44,-12 477.44,-12 477.44,-6 483.44,0 489.44,0 489.44,0 705.23,0 705.23,0 711.23,0 717.23,-6 717.23,-12 717.23,-12 717.23,-60.9 717.23,-60.9 717.23,-66.9 711.23,-72.9 705.23,-72.9"/>
<text xml:space="preserve" text-anchor="middle" x="597.34" y="-47.65" font-family="Aptos" font-size="19.00">ApiNeedDecision</text>
<text xml:space="preserve" text-anchor="middle" x="597.34" y="-28.15" font-family="Aptos" font-size="19.00">• mode = API_OPTIONAL</text>
<text xml:space="preserve" text-anchor="middle" x="597.34" y="-8.65" font-family="Aptos" font-size="19.00">• cap optional API calls</text>
</g>
<!-- d2&#45;&gt;optional -->
<g id="edge5" class="edge">
<title>d2&#45;&gt;optional</title>
<path fill="none" stroke="#687386" stroke-width="1.7" d="M558.47,-160.23C558.47,-160.23 558.47,-83.46 558.47,-83.46"/>
<polygon fill="#687386" stroke="#687386" stroke-width="1.7" points="560.99,-83.46 558.47,-76.26 555.95,-83.46 560.99,-83.46"/>
<text xml:space="preserve" text-anchor="middle" x="637.84" y="-96.78" font-family="Aptos" font-size="12.50" fill="#425466">API may verify</text>
</g>
</g>
</svg>
