<?xml version="1.0" encoding="UTF-8" standalone="no"?>
<!DOCTYPE svg PUBLIC "-//W3C//DTD SVG 1.1//EN"
 "http://www.w3.org/Graphics/SVG/1.1/DTD/svg11.dtd">
<!-- Generated by graphviz version 14.1.5 (20260411.2331)
 -->
<!-- Title: G Pages: 1 -->
<svg width="1044pt" height="126pt"
 viewBox="0.00 0.00 1044.00 126.00" xmlns="http://www.w3.org/2000/svg" xmlns:xlink="http://www.w3.org/1999/xlink">
<g id="graph0" class="graph" transform="scale(1 1) rotate(0) translate(7.2 119.1)">
<title>G</title>
<polygon fill="white" stroke="none" points="-7.2,7.2 -7.2,-119.1 1036.82,-119.1 1036.82,7.2 -7.2,7.2"/>
<!-- before -->
<g id="node1" class="node">
<title>before</title>
<path fill="#f2f4f7" stroke="#687386" stroke-width="2" d="M292.29,-111.9C292.29,-111.9 12,-111.9 12,-111.9 6,-111.9 0,-105.9 0,-99.9 0,-99.9 0,-12 0,-12 0,-6 6,0 12,0 12,0 292.29,0 292.29,0 298.29,0 304.29,-6 304.29,-12 304.29,-12 304.29,-99.9 304.29,-99.9 304.29,-105.9 298.29,-111.9 292.29,-111.9"/>
<text xml:space="preserve" text-anchor="middle" x="152.14" y="-86.65" font-family="Aptos" font-size="19.00">DraftPlan Before</text>
<text xml:space="preserve" text-anchor="middle" x="152.14" y="-67.15" font-family="Aptos" font-size="19.00">• steps = [SQL1, API1, API1_dup,</text>
<text xml:space="preserve" text-anchor="middle" x="152.14" y="-47.65" font-family="Aptos" font-size="19.00">API_&lt;id&gt;]</text>
<text xml:space="preserve" text-anchor="middle" x="152.14" y="-28.15" font-family="Aptos" font-size="19.00">• api_skip flags</text>
<text xml:space="preserve" text-anchor="middle" x="152.14" y="-8.65" font-family="Aptos" font-size="19.00">• placeholders</text>
</g>
<!-- opt -->
<g id="node2" class="node">
<title>opt</title>
<path fill="#efe7ff" stroke="#6d5bd0" stroke-width="2" d="M609.58,-111.9C609.58,-111.9 444.04,-111.9 444.04,-111.9 438.04,-111.9 432.04,-105.9 432.04,-99.9 432.04,-99.9 432.04,-12 432.04,-12 432.04,-6 438.04,0 444.04,0 444.04,0 609.58,0 609.58,0 615.58,0 621.58,-6 621.58,-12 621.58,-12 621.58,-99.9 621.58,-99.9 621.58,-105.9 615.58,-111.9 609.58,-111.9"/>
<text xml:space="preserve" text-anchor="middle" x="526.81" y="-86.65" font-family="Aptos" font-size="19.00">PlanOptimizer</text>
<text xml:space="preserve" text-anchor="middle" x="526.81" y="-67.15" font-family="Aptos" font-size="19.00">• remove duplicates</text>
<text xml:space="preserve" text-anchor="middle" x="526.81" y="-47.65" font-family="Aptos" font-size="19.00">• remove API_SKIP</text>
<text xml:space="preserve" text-anchor="middle" x="526.81" y="-28.15" font-family="Aptos" font-size="19.00">• drop placeholders</text>
<text xml:space="preserve" text-anchor="middle" x="526.81" y="-8.65" font-family="Aptos" font-size="19.00">• enforce budget</text>
</g>
<!-- before&#45;&gt;opt -->
<g id="edge1" class="edge">
<title>before&#45;&gt;opt</title>
<path fill="none" stroke="#687386" stroke-width="1.7" d="M305.08,-55.95C305.08,-55.95 421.51,-55.95 421.51,-55.95"/>
<polygon fill="#687386" stroke="#687386" stroke-width="1.7" points="421.51,-58.47 428.71,-55.95 421.51,-53.43 421.51,-58.47"/>
<text xml:space="preserve" text-anchor="middle" x="368.16" y="-56.83" font-family="Aptos" font-size="12.50" fill="#425466">state transition</text>
</g>
<!-- after -->
<g id="node3" class="node">
<title>after</title>
<path fill="#e8f7ed" stroke="#1a7f52" stroke-width="2" d="M1017.62,-102.15C1017.62,-102.15 784.58,-102.15 784.58,-102.15 778.58,-102.15 772.58,-96.15 772.58,-90.15 772.58,-90.15 772.58,-21.75 772.58,-21.75 772.58,-15.75 778.58,-9.75 784.58,-9.75 784.58,-9.75 1017.62,-9.75 1017.62,-9.75 1023.62,-9.75 1029.62,-15.75 1029.62,-21.75 1029.62,-21.75 1029.62,-90.15 1029.62,-90.15 1029.62,-96.15 1023.62,-102.15 1017.62,-102.15"/>
<text xml:space="preserve" text-anchor="middle" x="901.1" y="-76.9" font-family="Aptos" font-size="19.00">OptimizedPlan After</text>
<text xml:space="preserve" text-anchor="middle" x="901.1" y="-57.4" font-family="Aptos" font-size="19.00">• steps = [SQL1, API1]</text>
<text xml:space="preserve" text-anchor="middle" x="901.1" y="-37.9" font-family="Aptos" font-size="19.00">• optimizer_actions[]</text>
<text xml:space="preserve" text-anchor="middle" x="901.1" y="-18.4" font-family="Aptos" font-size="19.00">• unresolved_placeholders[]</text>
</g>
<!-- opt&#45;&gt;after -->
<g id="edge2" class="edge">
<title>opt&#45;&gt;after</title>
<path fill="none" stroke="#687386" stroke-width="1.7" d="M622.23,-55.95C622.23,-55.95 761.83,-55.95 761.83,-55.95"/>
<polygon fill="#687386" stroke="#687386" stroke-width="1.7" points="761.83,-58.47 769.03,-55.95 761.83,-53.43 761.83,-58.47"/>
<text xml:space="preserve" text-anchor="middle" x="697.08" y="-56.83" font-family="Aptos" font-size="12.50" fill="#425466">cleaned + bounded</text>
</g>
</g>
</svg>
