<?xml version="1.0" encoding="UTF-8" standalone="no"?>
<!DOCTYPE svg PUBLIC "-//W3C//DTD SVG 1.1//EN"
 "http://www.w3.org/Graphics/SVG/1.1/DTD/svg11.dtd">
<!-- Generated by graphviz version 14.1.5 (20260411.2331)
 -->
<!-- Title: G Pages: 1 -->
<svg width="1218pt" height="126pt"
 viewBox="0.00 0.00 1218.00 126.00" xmlns="http://www.w3.org/2000/svg" xmlns:xlink="http://www.w3.org/1999/xlink">
<g id="graph0" class="graph" transform="scale(1 1) rotate(0) translate(7.2 119.1)">
<title>G</title>
<polygon fill="white" stroke="none" points="-7.2,7.2 -7.2,-119.1 1210.86,-119.1 1210.86,7.2 -7.2,7.2"/>
<!-- final -->
<g id="node1" class="node">
<title>final</title>
<path fill="#e8f7ed" stroke="#1a7f52" stroke-width="2" d="M144.54,-102.15C144.54,-102.15 12,-102.15 12,-102.15 6,-102.15 0,-96.15 0,-90.15 0,-90.15 0,-21.75 0,-21.75 0,-15.75 6,-9.75 12,-9.75 12,-9.75 144.54,-9.75 144.54,-9.75 150.54,-9.75 156.54,-15.75 156.54,-21.75 156.54,-21.75 156.54,-90.15 156.54,-90.15 156.54,-96.15 150.54,-102.15 144.54,-102.15"/>
<text xml:space="preserve" text-anchor="middle" x="78.27" y="-76.9" font-family="Aptos" font-size="19.00">Final Answer</text>
<text xml:space="preserve" text-anchor="middle" x="78.27" y="-57.4" font-family="Aptos" font-size="19.00">• answer_family</text>
<text xml:space="preserve" text-anchor="middle" x="78.27" y="-37.9" font-family="Aptos" font-size="19.00">• answer_intent</text>
<text xml:space="preserve" text-anchor="middle" x="78.27" y="-18.4" font-family="Aptos" font-size="19.00">• verifier status</text>
</g>
<!-- diag -->
<g id="node2" class="node">
<title>diag</title>
<path fill="#f2f4f7" stroke="#687386" stroke-width="2" d="M568.33,-111.9C568.33,-111.9 330.04,-111.9 330.04,-111.9 324.04,-111.9 318.04,-105.9 318.04,-99.9 318.04,-99.9 318.04,-12 318.04,-12 318.04,-6 324.04,0 330.04,0 330.04,0 568.33,0 568.33,0 574.33,0 580.33,-6 580.33,-12 580.33,-12 580.33,-99.9 580.33,-99.9 580.33,-105.9 574.33,-111.9 568.33,-111.9"/>
<text xml:space="preserve" text-anchor="middle" x="449.18" y="-86.65" font-family="Aptos" font-size="19.00">AnswerDiagnostics</text>
<text xml:space="preserve" text-anchor="middle" x="449.18" y="-67.15" font-family="Aptos" font-size="19.00">• verifier_passed</text>
<text xml:space="preserve" text-anchor="middle" x="449.18" y="-47.65" font-family="Aptos" font-size="19.00">• unsupported_claims_count</text>
<text xml:space="preserve" text-anchor="middle" x="449.18" y="-28.15" font-family="Aptos" font-size="19.00">• rewrite_applied</text>
<text xml:space="preserve" text-anchor="middle" x="449.18" y="-8.65" font-family="Aptos" font-size="19.00">• selected_candidate_type</text>
</g>
<!-- final&#45;&gt;diag -->
<g id="edge1" class="edge">
<title>final&#45;&gt;diag</title>
<path fill="none" stroke="#687386" stroke-width="1.7" d="M157.39,-55.95C157.39,-55.95 307.51,-55.95 307.51,-55.95"/>
<polygon fill="#687386" stroke="#687386" stroke-width="1.7" points="307.51,-58.47 314.71,-55.95 307.51,-53.43 307.51,-58.47"/>
<text xml:space="preserve" text-anchor="middle" x="237.29" y="-56.83" font-family="Aptos" font-size="12.50" fill="#425466">record compact stats</text>
</g>
<!-- traj -->
<g id="node3" class="node">
<title>traj</title>
<path fill="#f2f4f7" stroke="#687386" stroke-width="2" d="M869.87,-102.15C869.87,-102.15 696.83,-102.15 696.83,-102.15 690.83,-102.15 684.83,-96.15 684.83,-90.15 684.83,-90.15 684.83,-21.75 684.83,-21.75 684.83,-15.75 690.83,-9.75 696.83,-9.75 696.83,-9.75 869.87,-9.75 869.87,-9.75 875.87,-9.75 881.87,-15.75 881.87,-21.75 881.87,-21.75 881.87,-90.15 881.87,-90.15 881.87,-96.15 875.87,-102.15 869.87,-102.15"/>
<text xml:space="preserve" text-anchor="middle" x="783.35" y="-76.9" font-family="Aptos" font-size="19.00">trajectory.json</text>
<text xml:space="preserve" text-anchor="middle" x="783.35" y="-57.4" font-family="Aptos" font-size="19.00">• answer diagnostics</text>
<text xml:space="preserve" text-anchor="middle" x="783.35" y="-37.9" font-family="Aptos" font-size="19.00">• tool results</text>
<text xml:space="preserve" text-anchor="middle" x="783.35" y="-18.4" font-family="Aptos" font-size="19.00">• optimizer actions</text>
</g>
<!-- diag&#45;&gt;traj -->
<g id="edge2" class="edge">
<title>diag&#45;&gt;traj</title>
<path fill="none" stroke="#687386" stroke-width="1.7" d="M581.26,-55.95C581.26,-55.95 674.16,-55.95 674.16,-55.95"/>
<polygon fill="#687386" stroke="#687386" stroke-width="1.7" points="674.16,-58.47 681.36,-55.95 674.16,-53.43 674.16,-58.47"/>
<text xml:space="preserve" text-anchor="middle" x="632.58" y="-56.83" font-family="Aptos" font-size="12.50" fill="#425466">write trace</text>
</g>
<!-- fail -->
<g id="node4" class="node">
<title>fail</title>
<path fill="#f2f4f7" stroke="#687386" stroke-width="2" d="M1191.66,-92.4C1191.66,-92.4 1029.87,-92.4 1029.87,-92.4 1023.87,-92.4 1017.87,-86.4 1017.87,-80.4 1017.87,-80.4 1017.87,-31.5 1017.87,-31.5 1017.87,-25.5 1023.87,-19.5 1029.87,-19.5 1029.87,-19.5 1191.66,-19.5 1191.66,-19.5 1197.66,-19.5 1203.66,-25.5 1203.66,-31.5 1203.66,-31.5 1203.66,-80.4 1203.66,-80.4 1203.66,-86.4 1197.66,-92.4 1191.66,-92.4"/>
<text xml:space="preserve" text-anchor="middle" x="1110.76" y="-67.15" font-family="Aptos" font-size="19.00">failure_analysis</text>
<text xml:space="preserve" text-anchor="middle" x="1110.76" y="-47.65" font-family="Aptos" font-size="19.00">• weak family</text>
<text xml:space="preserve" text-anchor="middle" x="1110.76" y="-28.15" font-family="Aptos" font-size="19.00">• recommended_fix</text>
</g>
<!-- traj&#45;&gt;fail -->
<g id="edge3" class="edge">
<title>traj&#45;&gt;fail</title>
<path fill="none" stroke="#687386" stroke-width="1.7" d="M882.47,-55.95C882.47,-55.95 1007.25,-55.95 1007.25,-55.95"/>
<polygon fill="#687386" stroke="#687386" stroke-width="1.7" points="1007.25,-58.47 1014.45,-55.95 1007.25,-53.43 1007.25,-58.47"/>
<text xml:space="preserve" text-anchor="middle" x="949.87" y="-56.83" font-family="Aptos" font-size="12.50" fill="#425466">debug next pass</text>
</g>
</g>
</svg>
