<?xml version="1.0" encoding="UTF-8" standalone="no"?>
<!DOCTYPE svg PUBLIC "-//W3C//DTD SVG 1.1//EN"
 "http://www.w3.org/Graphics/SVG/1.1/DTD/svg11.dtd">
<!-- Generated by graphviz version 14.1.5 (20260411.2331)
 -->
<!-- Title: G Pages: 1 -->
<svg width="858pt" height="204pt"
 viewBox="0.00 0.00 858.00 204.00" xmlns="http://www.w3.org/2000/svg" xmlns:xlink="http://www.w3.org/1999/xlink">
<g id="graph0" class="graph" transform="scale(1 1) rotate(0) translate(7.2 197.1)">
<title>G</title>
<polygon fill="white" stroke="none" points="-7.2,7.2 -7.2,-197.1 850.82,-197.1 850.82,7.2 -7.2,7.2"/>
<!-- results -->
<g id="node1" class="node">
<title>results</title>
<path fill="#e8faf8" stroke="#0b8f8a" stroke-width="2" d="M200.79,-141.15C200.79,-141.15 12,-141.15 12,-141.15 6,-141.15 0,-135.15 0,-129.15 0,-129.15 0,-60.75 0,-60.75 0,-54.75 6,-48.75 12,-48.75 12,-48.75 200.79,-48.75 200.79,-48.75 206.79,-48.75 212.79,-54.75 212.79,-60.75 212.79,-60.75 212.79,-129.15 212.79,-129.15 212.79,-135.15 206.79,-141.15 200.79,-141.15"/>
<text xml:space="preserve" text-anchor="middle" x="106.39" y="-115.9" font-family="Aptos" font-size="19.00">ToolResults</text>
<text xml:space="preserve" text-anchor="middle" x="106.39" y="-96.4" font-family="Aptos" font-size="19.00">• rows: [{name,</text>
<text xml:space="preserve" text-anchor="middle" x="106.39" y="-76.9" font-family="Aptos" font-size="19.00">lastdeployedtime:null}]</text>
<text xml:space="preserve" text-anchor="middle" x="106.39" y="-57.4" font-family="Aptos" font-size="19.00">• api dry_run=true</text>
</g>
<!-- slots -->
<g id="node2" class="node">
<title>slots</title>
<path fill="#e8f7ed" stroke="#1a7f52" stroke-width="2" d="M485.08,-189.9C485.08,-189.9 366.04,-189.9 366.04,-189.9 360.04,-189.9 354.04,-183.9 354.04,-177.9 354.04,-177.9 354.04,-12 354.04,-12 354.04,-6 360.04,0 366.04,0 366.04,0 485.08,0 485.08,0 491.08,0 497.08,-6 497.08,-12 497.08,-12 497.08,-177.9 497.08,-177.9 497.08,-183.9 491.08,-189.9 485.08,-189.9"/>
<text xml:space="preserve" text-anchor="middle" x="425.56" y="-164.65" font-family="Aptos" font-size="19.00">AnswerSlots</text>
<text xml:space="preserve" text-anchor="middle" x="425.56" y="-145.15" font-family="Aptos" font-size="19.00">• entity_name</text>
<text xml:space="preserve" text-anchor="middle" x="425.56" y="-125.65" font-family="Aptos" font-size="19.00">• entity_id</text>
<text xml:space="preserve" text-anchor="middle" x="425.56" y="-106.15" font-family="Aptos" font-size="19.00">• count</text>
<text xml:space="preserve" text-anchor="middle" x="425.56" y="-86.65" font-family="Aptos" font-size="19.00">• status</text>
<text xml:space="preserve" text-anchor="middle" x="425.56" y="-67.15" font-family="Aptos" font-size="19.00">• timestamp</text>
<text xml:space="preserve" text-anchor="middle" x="425.56" y="-47.65" font-family="Aptos" font-size="19.00">• metric_value</text>
<text xml:space="preserve" text-anchor="middle" x="425.56" y="-28.15" font-family="Aptos" font-size="19.00">• dry_run</text>
<text xml:space="preserve" text-anchor="middle" x="425.56" y="-8.65" font-family="Aptos" font-size="19.00">• discrepancy</text>
</g>
<!-- results&#45;&gt;slots -->
<g id="edge1" class="edge">
<title>results&#45;&gt;slots</title>
<path fill="none" stroke="#687386" stroke-width="1.7" d="M213.56,-94.95C213.56,-94.95 343.58,-94.95 343.58,-94.95"/>
<polygon fill="#687386" stroke="#687386" stroke-width="1.7" points="343.58,-97.47 350.78,-94.95 343.58,-92.43 343.58,-97.47"/>
<text xml:space="preserve" text-anchor="middle" x="283.41" y="-95.83" font-family="Aptos" font-size="12.50" fill="#425466">raw &#45;&gt; structured</text>
</g>
<!-- answer -->
<g id="node3" class="node">
<title>answer</title>
<path fill="#f2f4f7" stroke="#687386" stroke-width="2" d="M831.62,-131.4C831.62,-131.4 635.33,-131.4 635.33,-131.4 629.33,-131.4 623.33,-125.4 623.33,-119.4 623.33,-119.4 623.33,-70.5 623.33,-70.5 623.33,-64.5 629.33,-58.5 635.33,-58.5 635.33,-58.5 831.62,-58.5 831.62,-58.5 837.62,-58.5 843.62,-64.5 843.62,-70.5 843.62,-70.5 843.62,-119.4 843.62,-119.4 843.62,-125.4 837.62,-131.4 831.62,-131.4"/>
<text xml:space="preserve" text-anchor="middle" x="733.47" y="-106.15" font-family="Aptos" font-size="19.00">Answer Source</text>
<text xml:space="preserve" text-anchor="middle" x="733.47" y="-86.65" font-family="Aptos" font-size="19.00">• only supported values</text>
<text xml:space="preserve" text-anchor="middle" x="733.47" y="-67.15" font-family="Aptos" font-size="19.00">• safe caveats</text>
</g>
<!-- slots&#45;&gt;answer -->
<g id="edge2" class="edge">
<title>slots&#45;&gt;answer</title>
<path fill="none" stroke="#687386" stroke-width="1.7" d="M497.75,-94.95C497.75,-94.95 612.78,-94.95 612.78,-94.95"/>
<polygon fill="#687386" stroke="#687386" stroke-width="1.7" points="612.78,-97.47 619.98,-94.95 612.78,-92.43 612.78,-97.47"/>
<text xml:space="preserve" text-anchor="middle" x="560.2" y="-95.83" font-family="Aptos" font-size="12.50" fill="#425466">source of truth</text>
</g>
</g>
</svg>
