<?xml version="1.0" encoding="UTF-8" standalone="no"?>
<!DOCTYPE svg PUBLIC "-//W3C//DTD SVG 1.1//EN"
 "http://www.w3.org/Graphics/SVG/1.1/DTD/svg11.dtd">
<!-- Generated by graphviz version 14.1.5 (20260411.2331)
 -->
<!-- Title: G Pages: 1 -->
<svg width="986pt" height="126pt"
 viewBox="0.00 0.00 986.00 126.00" xmlns="http://www.w3.org/2000/svg" xmlns:xlink="http://www.w3.org/1999/xlink">
<g id="graph0" class="graph" transform="scale(1 1) rotate(0) translate(7.2 119.1)">
<title>G</title>
<polygon fill="white" stroke="none" points="-7.2,7.2 -7.2,-119.1 979.07,-119.1 979.07,7.2 -7.2,7.2"/>
<!-- claims -->
<g id="node1" class="node">
<title>claims</title>
<path fill="#e8f7ed" stroke="#1a7f52" stroke-width="2" d="M212.79,-102.15C212.79,-102.15 12,-102.15 12,-102.15 6,-102.15 0,-96.15 0,-90.15 0,-90.15 0,-21.75 0,-21.75 0,-15.75 6,-9.75 12,-9.75 12,-9.75 212.79,-9.75 212.79,-9.75 218.79,-9.75 224.79,-15.75 224.79,-21.75 224.79,-21.75 224.79,-90.15 224.79,-90.15 224.79,-96.15 218.79,-102.15 212.79,-102.15"/>
<text xml:space="preserve" text-anchor="middle" x="112.39" y="-76.9" font-family="Aptos" font-size="19.00">Claims + EvidenceSlots</text>
<text xml:space="preserve" text-anchor="middle" x="112.39" y="-57.4" font-family="Aptos" font-size="19.00">• claim list</text>
<text xml:space="preserve" text-anchor="middle" x="112.39" y="-37.9" font-family="Aptos" font-size="19.00">• supported slot values</text>
<text xml:space="preserve" text-anchor="middle" x="112.39" y="-18.4" font-family="Aptos" font-size="19.00">• dry_run flag</text>
</g>
<!-- table -->
<g id="node2" class="node">
<title>table</title>
<path fill="#f2f4f7" stroke="#687386" stroke-width="2" d="M667.33,-111.9C667.33,-111.9 397.54,-111.9 397.54,-111.9 391.54,-111.9 385.54,-105.9 385.54,-99.9 385.54,-99.9 385.54,-12 385.54,-12 385.54,-6 391.54,0 397.54,0 397.54,0 667.33,0 667.33,0 673.33,0 679.33,-6 679.33,-12 679.33,-12 679.33,-99.9 679.33,-99.9 679.33,-105.9 673.33,-111.9 667.33,-111.9"/>
<text xml:space="preserve" text-anchor="middle" x="532.43" y="-86.65" font-family="Aptos" font-size="19.00">Support Check Table</text>
<text xml:space="preserve" text-anchor="middle" x="532.43" y="-67.15" font-family="Aptos" font-size="19.00">• published_time=null | SQL row</text>
<text xml:space="preserve" text-anchor="middle" x="532.43" y="-47.65" font-family="Aptos" font-size="19.00">| supported</text>
<text xml:space="preserve" text-anchor="middle" x="532.43" y="-28.15" font-family="Aptos" font-size="19.00">• API confirmed | dry_run=true |</text>
<text xml:space="preserve" text-anchor="middle" x="532.43" y="-8.65" font-family="Aptos" font-size="19.00">blocked</text>
</g>
<!-- claims&#45;&gt;table -->
<g id="edge1" class="edge">
<title>claims&#45;&gt;table</title>
<path fill="none" stroke="#687386" stroke-width="1.7" d="M225.79,-55.95C225.79,-55.95 375.13,-55.95 375.13,-55.95"/>
<polygon fill="#687386" stroke="#687386" stroke-width="1.7" points="375.13,-58.47 382.33,-55.95 375.13,-53.43 375.13,-58.47"/>
<text xml:space="preserve" text-anchor="middle" x="305.16" y="-56.83" font-family="Aptos" font-size="12.50" fill="#425466">compare every claim</text>
</g>
<!-- out -->
<g id="node3" class="node">
<title>out</title>
<path fill="#e8f7ed" stroke="#1a7f52" stroke-width="2" d="M959.87,-111.9C959.87,-111.9 819.83,-111.9 819.83,-111.9 813.83,-111.9 807.83,-105.9 807.83,-99.9 807.83,-99.9 807.83,-12 807.83,-12 807.83,-6 813.83,0 819.83,0 819.83,0 959.87,0 959.87,0 965.87,0 971.87,-6 971.87,-12 971.87,-12 971.87,-99.9 971.87,-99.9 971.87,-105.9 965.87,-111.9 959.87,-111.9"/>
<text xml:space="preserve" text-anchor="middle" x="889.85" y="-86.65" font-family="Aptos" font-size="19.00">VerifiedAnswer</text>
<text xml:space="preserve" text-anchor="middle" x="889.85" y="-67.15" font-family="Aptos" font-size="19.00">• final_text</text>
<text xml:space="preserve" text-anchor="middle" x="889.85" y="-47.65" font-family="Aptos" font-size="19.00">• verifier_passed</text>
<text xml:space="preserve" text-anchor="middle" x="889.85" y="-28.15" font-family="Aptos" font-size="19.00">• caveats[]</text>
<text xml:space="preserve" text-anchor="middle" x="889.85" y="-8.65" font-family="Aptos" font-size="19.00">• safe_rewrite?</text>
</g>
<!-- table&#45;&gt;out -->
<g id="edge2" class="edge">
<title>table&#45;&gt;out</title>
<path fill="none" stroke="#687386" stroke-width="1.7" d="M680.13,-55.95C680.13,-55.95 797.27,-55.95 797.27,-55.95"/>
<polygon fill="#687386" stroke="#687386" stroke-width="1.7" points="797.27,-58.47 804.47,-55.95 797.27,-53.43 797.27,-58.47"/>
<text xml:space="preserve" text-anchor="middle" x="743.58" y="-56.83" font-family="Aptos" font-size="12.50" fill="#425466">pass or rewrite</text>
</g>
</g>
</svg>
