<?xml version="1.0" encoding="UTF-8" standalone="no"?>
<!DOCTYPE svg PUBLIC "-//W3C//DTD SVG 1.1//EN"
 "http://www.w3.org/Graphics/SVG/1.1/DTD/svg11.dtd">
<!-- Generated by graphviz version 14.1.5 (20260411.2331)
 -->
<!-- Title: G Pages: 1 -->
<svg width="798pt" height="254pt"
 viewBox="0.00 0.00 798.00 254.00" xmlns="http://www.w3.org/2000/svg" xmlns:xlink="http://www.w3.org/1999/xlink">
<g id="graph0" class="graph" transform="scale(1 1) rotate(0) translate(7.2 246.35)">
<title>G</title>
<polygon fill="white" stroke="none" points="-7.2,7.2 -7.2,-246.35 790.82,-246.35 790.82,7.2 -7.2,7.2"/>
<!-- draft -->
<g id="node1" class="node">
<title>draft</title>
<path fill="#f2f4f7" stroke="#687386" stroke-width="2" d="M156.16,-239.15C156.16,-239.15 25.87,-239.15 25.87,-239.15 19.88,-239.15 13.87,-233.15 13.87,-227.15 13.87,-227.15 13.87,-158.75 13.87,-158.75 13.87,-152.75 19.87,-146.75 25.87,-146.75 25.87,-146.75 156.16,-146.75 156.16,-146.75 162.16,-146.75 168.16,-152.75 168.16,-158.75 168.16,-158.75 168.16,-227.15 168.16,-227.15 168.16,-233.15 162.16,-239.15 156.16,-239.15"/>
<text xml:space="preserve" text-anchor="middle" x="91.02" y="-213.9" font-family="Aptos" font-size="19.00">DraftPlan</text>
<text xml:space="preserve" text-anchor="middle" x="91.02" y="-194.4" font-family="Aptos" font-size="19.00">• sql_steps = n</text>
<text xml:space="preserve" text-anchor="middle" x="91.02" y="-174.9" font-family="Aptos" font-size="19.00">• api_steps = m</text>
<text xml:space="preserve" text-anchor="middle" x="91.02" y="-155.4" font-family="Aptos" font-size="19.00">• optional flags</text>
</g>
<!-- apply -->
<g id="node3" class="node">
<title>apply</title>
<path fill="#efe7ff" stroke="#6d5bd0" stroke-width="2" d="M481.33,-170.15C481.33,-170.15 322.54,-170.15 322.54,-170.15 316.54,-170.15 310.54,-164.15 310.54,-158.15 310.54,-158.15 310.54,-89.75 310.54,-89.75 310.54,-83.75 316.54,-77.75 322.54,-77.75 322.54,-77.75 481.33,-77.75 481.33,-77.75 487.33,-77.75 493.33,-83.75 493.33,-89.75 493.33,-89.75 493.33,-158.15 493.33,-158.15 493.33,-164.15 487.33,-170.15 481.33,-170.15"/>
<text xml:space="preserve" text-anchor="middle" x="401.93" y="-144.9" font-family="Aptos" font-size="19.00">Budget Applier</text>
<text xml:space="preserve" text-anchor="middle" x="401.93" y="-125.4" font-family="Aptos" font-size="19.00">• trim optional first</text>
<text xml:space="preserve" text-anchor="middle" x="401.93" y="-105.9" font-family="Aptos" font-size="19.00">• preserve required</text>
<text xml:space="preserve" text-anchor="middle" x="401.93" y="-86.4" font-family="Aptos" font-size="19.00">• warn on drops</text>
</g>
<!-- draft&#45;&gt;apply -->
<g id="edge1" class="edge">
<title>draft&#45;&gt;apply</title>
<path fill="none" stroke="#687386" stroke-width="1.7" d="M169.08,-158.45C169.08,-158.45 299.97,-158.45 299.97,-158.45"/>
<polygon fill="#687386" stroke="#687386" stroke-width="1.7" points="299.97,-160.97 307.17,-158.45 299.97,-155.93 299.97,-160.97"/>
<text xml:space="preserve" text-anchor="middle" x="246.29" y="-193.82" font-family="Aptos" font-size="12.50" fill="#425466">count calls</text>
</g>
<!-- rule -->
<g id="node2" class="node">
<title>rule</title>
<path fill="#efe7ff" stroke="#6d5bd0" stroke-width="2" d="M170.04,-111.9C170.04,-111.9 12,-111.9 12,-111.9 6,-111.9 0,-105.9 0,-99.9 0,-99.9 0,-12 0,-12 0,-6 6,0 12,0 12,0 170.04,0 170.04,0 176.04,0 182.04,-6 182.04,-12 182.04,-12 182.04,-99.9 182.04,-99.9 182.04,-105.9 176.04,-111.9 170.04,-111.9"/>
<text xml:space="preserve" text-anchor="middle" x="91.02" y="-86.65" font-family="Aptos" font-size="19.00">BudgetRule</text>
<text xml:space="preserve" text-anchor="middle" x="91.02" y="-67.15" font-family="Aptos" font-size="19.00">• max_sql</text>
<text xml:space="preserve" text-anchor="middle" x="91.02" y="-47.65" font-family="Aptos" font-size="19.00">• max_api</text>
<text xml:space="preserve" text-anchor="middle" x="91.02" y="-28.15" font-family="Aptos" font-size="19.00">• max_total</text>
<text xml:space="preserve" text-anchor="middle" x="91.02" y="-8.65" font-family="Aptos" font-size="19.00">• family exceptions</text>
</g>
<!-- rule&#45;&gt;apply -->
<g id="edge2" class="edge">
<title>rule&#45;&gt;apply</title>
<path fill="none" stroke="#687386" stroke-width="1.7" d="M182.62,-94.83C182.62,-94.83 299.87,-94.83 299.87,-94.83"/>
<polygon fill="#687386" stroke="#687386" stroke-width="1.7" points="299.87,-97.35 307.07,-94.83 299.87,-92.31 299.87,-97.35"/>
<text xml:space="preserve" text-anchor="middle" x="246.29" y="-56.83" font-family="Aptos" font-size="12.50" fill="#425466">limits by family</text>
</g>
<!-- budgeted -->
<g id="node4" class="node">
<title>budgeted</title>
<path fill="#f2f4f7" stroke="#687386" stroke-width="2" d="M771.62,-170.15C771.62,-170.15 625.58,-170.15 625.58,-170.15 619.58,-170.15 613.58,-164.15 613.58,-158.15 613.58,-158.15 613.58,-89.75 613.58,-89.75 613.58,-83.75 619.58,-77.75 625.58,-77.75 625.58,-77.75 771.62,-77.75 771.62,-77.75 777.62,-77.75 783.62,-83.75 783.62,-89.75 783.62,-89.75 783.62,-158.15 783.62,-158.15 783.62,-164.15 777.62,-170.15 771.62,-170.15"/>
<text xml:space="preserve" text-anchor="middle" x="698.6" y="-144.9" font-family="Aptos" font-size="19.00">BudgetedPlan</text>
<text xml:space="preserve" text-anchor="middle" x="698.6" y="-125.4" font-family="Aptos" font-size="19.00">• kept_steps[]</text>
<text xml:space="preserve" text-anchor="middle" x="698.6" y="-105.9" font-family="Aptos" font-size="19.00">• trimmed_steps[]</text>
<text xml:space="preserve" text-anchor="middle" x="698.6" y="-86.4" font-family="Aptos" font-size="19.00">• reason</text>
</g>
<!-- apply&#45;&gt;budgeted -->
<g id="edge3" class="edge">
<title>apply&#45;&gt;budgeted</title>
<path fill="none" stroke="#687386" stroke-width="1.7" d="M494.18,-123.95C494.18,-123.95 602.96,-123.95 602.96,-123.95"/>
<polygon fill="#687386" stroke="#687386" stroke-width="1.7" points="602.96,-126.47 610.16,-123.95 602.96,-121.43 602.96,-126.47"/>
<text xml:space="preserve" text-anchor="middle" x="553.45" y="-124.82" font-family="Aptos" font-size="12.50" fill="#425466">bounded plan</text>
</g>
</g>
</svg>
