<?xml version="1.0" encoding="UTF-8" standalone="no"?>
<!DOCTYPE svg PUBLIC "-//W3C//DTD SVG 1.1//EN"
 "http://www.w3.org/Graphics/SVG/1.1/DTD/svg11.dtd">
<!-- Generated by graphviz version 14.1.5 (20260411.2331)
 -->
<!-- Title: G Pages: 1 -->
<svg width="911pt" height="126pt"
 viewBox="0.00 0.00 911.00 126.00" xmlns="http://www.w3.org/2000/svg" xmlns:xlink="http://www.w3.org/1999/xlink">
<g id="graph0" class="graph" transform="scale(1 1) rotate(0) translate(7.2 119.1)">
<title>G</title>
<polygon fill="white" stroke="none" points="-7.2,7.2 -7.2,-119.1 903.32,-119.1 903.32,7.2 -7.2,7.2"/>
<!-- raw -->
<g id="node1" class="node">
<title>raw</title>
<path fill="#efe7ff" stroke="#6d5bd0" stroke-width="2" d="M132.54,-111.9C132.54,-111.9 12,-111.9 12,-111.9 6,-111.9 0,-105.9 0,-99.9 0,-99.9 0,-12 0,-12 0,-6 6,0 12,0 12,0 132.54,0 132.54,0 138.54,0 144.54,-6 144.54,-12 144.54,-12 144.54,-99.9 144.54,-99.9 144.54,-105.9 138.54,-111.9 132.54,-111.9"/>
<text xml:space="preserve" text-anchor="middle" x="72.27" y="-86.65" font-family="Aptos" font-size="19.00">RawQuery</text>
<text xml:space="preserve" text-anchor="middle" x="72.27" y="-67.15" font-family="Aptos" font-size="19.00">• original text</text>
<text xml:space="preserve" text-anchor="middle" x="72.27" y="-47.65" font-family="Aptos" font-size="19.00">• smart quotes</text>
<text xml:space="preserve" text-anchor="middle" x="72.27" y="-28.15" font-family="Aptos" font-size="19.00">• data&#45;flow</text>
<text xml:space="preserve" text-anchor="middle" x="72.27" y="-8.65" font-family="Aptos" font-size="19.00">• extra spaces</text>
</g>
<!-- norm -->
<g id="node2" class="node">
<title>norm</title>
<path fill="#efe7ff" stroke="#6d5bd0" stroke-width="2" d="M541.33,-102.15C541.33,-102.15 294.79,-102.15 294.79,-102.15 288.79,-102.15 282.79,-96.15 282.79,-90.15 282.79,-90.15 282.79,-21.75 282.79,-21.75 282.79,-15.75 288.79,-9.75 294.79,-9.75 294.79,-9.75 541.33,-9.75 541.33,-9.75 547.33,-9.75 553.33,-15.75 553.33,-21.75 553.33,-21.75 553.33,-90.15 553.33,-90.15 553.33,-96.15 547.33,-102.15 541.33,-102.15"/>
<text xml:space="preserve" text-anchor="middle" x="418.06" y="-76.9" font-family="Aptos" font-size="19.00">Normalizer</text>
<text xml:space="preserve" text-anchor="middle" x="418.06" y="-57.4" font-family="Aptos" font-size="19.00">• clean whitespace</text>
<text xml:space="preserve" text-anchor="middle" x="418.06" y="-37.9" font-family="Aptos" font-size="19.00">• normalize quotes/hyphens</text>
<text xml:space="preserve" text-anchor="middle" x="418.06" y="-18.4" font-family="Aptos" font-size="19.00">• normalize synonyms/plurals</text>
</g>
<!-- raw&#45;&gt;norm -->
<g id="edge1" class="edge">
<title>raw&#45;&gt;norm</title>
<path fill="none" stroke="#687386" stroke-width="1.7" d="M145.18,-55.95C145.18,-55.95 272.29,-55.95 272.29,-55.95"/>
<polygon fill="#687386" stroke="#687386" stroke-width="1.7" points="272.29,-58.47 279.49,-55.95 272.29,-53.43 272.29,-58.47"/>
<text xml:space="preserve" text-anchor="middle" x="213.66" y="-56.83" font-family="Aptos" font-size="12.50" fill="#425466">preserve original</text>
</g>
<!-- out -->
<g id="node3" class="node">
<title>out</title>
<path fill="#f2f4f7" stroke="#687386" stroke-width="2" d="M884.12,-111.9C884.12,-111.9 737.33,-111.9 737.33,-111.9 731.33,-111.9 725.33,-105.9 725.33,-99.9 725.33,-99.9 725.33,-12 725.33,-12 725.33,-6 731.33,0 737.33,0 737.33,0 884.12,0 884.12,0 890.12,0 896.12,-6 896.12,-12 896.12,-12 896.12,-99.9 896.12,-99.9 896.12,-105.9 890.12,-111.9 884.12,-111.9"/>
<text xml:space="preserve" text-anchor="middle" x="810.72" y="-86.65" font-family="Aptos" font-size="19.00">NormalizedQuery</text>
<text xml:space="preserve" text-anchor="middle" x="810.72" y="-67.15" font-family="Aptos" font-size="19.00">• original</text>
<text xml:space="preserve" text-anchor="middle" x="810.72" y="-47.65" font-family="Aptos" font-size="19.00">• normalized</text>
<text xml:space="preserve" text-anchor="middle" x="810.72" y="-28.15" font-family="Aptos" font-size="19.00">• matching_text</text>
<text xml:space="preserve" text-anchor="middle" x="810.72" y="-8.65" font-family="Aptos" font-size="19.00">• rewrites[]</text>
</g>
<!-- norm&#45;&gt;out -->
<g id="edge2" class="edge">
<title>norm&#45;&gt;out</title>
<path fill="none" stroke="#687386" stroke-width="1.7" d="M554.29,-55.95C554.29,-55.95 714.68,-55.95 714.68,-55.95"/>
<polygon fill="#687386" stroke="#687386" stroke-width="1.7" points="714.68,-58.47 721.88,-55.95 714.68,-53.43 714.68,-58.47"/>
<text xml:space="preserve" text-anchor="middle" x="639.33" y="-56.83" font-family="Aptos" font-size="12.50" fill="#425466">clean text for matching</text>
</g>
</g>
</svg>
