<?xml version="1.0" encoding="UTF-8" standalone="no"?>
<!DOCTYPE svg PUBLIC "-//W3C//DTD SVG 1.1//EN"
 "http://www.w3.org/Graphics/SVG/1.1/DTD/svg11.dtd">
<!-- Generated by graphviz version 14.1.5 (20260411.2331)
 -->
<!-- Title: G Pages: 1 -->
<svg width="1169pt" height="165pt"
 viewBox="0.00 0.00 1169.00 165.00" xmlns="http://www.w3.org/2000/svg" xmlns:xlink="http://www.w3.org/1999/xlink">
<g id="graph0" class="graph" transform="scale(1 1) rotate(0) translate(7.2 158.1)">
<title>G</title>
<polygon fill="white" stroke="none" points="-7.2,7.2 -7.2,-158.1 1161.36,-158.1 1161.36,7.2 -7.2,7.2"/>
<!-- input -->
<g id="node1" class="node">
<title>input</title>
<path fill="#efe7ff" stroke="#6d5bd0" stroke-width="2" d="M175.29,-141.15C175.29,-141.15 12,-141.15 12,-141.15 6,-141.15 0,-135.15 0,-129.15 0,-129.15 0,-21.75 0,-21.75 0,-15.75 6,-9.75 12,-9.75 12,-9.75 175.29,-9.75 175.29,-9.75 181.29,-9.75 187.29,-15.75 187.29,-21.75 187.29,-21.75 187.29,-129.15 187.29,-129.15 187.29,-135.15 181.29,-141.15 175.29,-141.15"/>
<text xml:space="preserve" text-anchor="middle" x="93.64" y="-115.9" font-family="Aptos" font-size="19.00">NormalizedQuery +</text>
<text xml:space="preserve" text-anchor="middle" x="93.64" y="-96.4" font-family="Aptos" font-size="19.00">QueryTokens</text>
<text xml:space="preserve" text-anchor="middle" x="93.64" y="-76.9" font-family="Aptos" font-size="19.00">• normalized_text</text>
<text xml:space="preserve" text-anchor="middle" x="93.64" y="-57.4" font-family="Aptos" font-size="19.00">• entities[]</text>
<text xml:space="preserve" text-anchor="middle" x="93.64" y="-37.9" font-family="Aptos" font-size="19.00">• ids[]</text>
<text xml:space="preserve" text-anchor="middle" x="93.64" y="-18.4" font-family="Aptos" font-size="19.00">• metrics[]</text>
</g>
<!-- internal -->
<g id="node2" class="node">
<title>internal</title>
<path fill="#efe7ff" stroke="#6d5bd0" stroke-width="2" d="M515.83,-141.15C515.83,-141.15 315.04,-141.15 315.04,-141.15 309.04,-141.15 303.04,-135.15 303.04,-129.15 303.04,-129.15 303.04,-21.75 303.04,-21.75 303.04,-15.75 309.04,-9.75 315.04,-9.75 315.04,-9.75 515.83,-9.75 515.83,-9.75 521.83,-9.75 527.83,-15.75 527.83,-21.75 527.83,-21.75 527.83,-129.15 527.83,-129.15 527.83,-135.15 521.83,-141.15 515.83,-141.15"/>
<text xml:space="preserve" text-anchor="middle" x="415.43" y="-115.9" font-family="Aptos" font-size="19.00">QueryAnalysis Internals</text>
<text xml:space="preserve" text-anchor="middle" x="415.43" y="-96.4" font-family="Aptos" font-size="19.00">• route classifier</text>
<text xml:space="preserve" text-anchor="middle" x="415.43" y="-76.9" font-family="Aptos" font-size="19.00">• domain classifier</text>
<text xml:space="preserve" text-anchor="middle" x="415.43" y="-57.4" font-family="Aptos" font-size="19.00">• answer family</text>
<text xml:space="preserve" text-anchor="middle" x="415.43" y="-37.9" font-family="Aptos" font-size="19.00">• template selector</text>
<text xml:space="preserve" text-anchor="middle" x="415.43" y="-18.4" font-family="Aptos" font-size="19.00">• confidence scoring</text>
</g>
<!-- input&#45;&gt;internal -->
<g id="edge1" class="edge">
<title>input&#45;&gt;internal</title>
<path fill="none" stroke="#687386" stroke-width="1.7" d="M188.02,-75.45C188.02,-75.45 292.51,-75.45 292.51,-75.45"/>
<polygon fill="#687386" stroke="#687386" stroke-width="1.7" points="292.51,-77.97 299.71,-75.45 292.51,-72.93 292.51,-77.97"/>
<text xml:space="preserve" text-anchor="middle" x="245.16" y="-76.32" font-family="Aptos" font-size="12.50" fill="#425466">decode once</text>
</g>
<!-- qa -->
<g id="node3" class="node">
<title>qa</title>
<path fill="#f2f4f7" stroke="#687386" stroke-width="2" d="M799.37,-150.9C799.37,-150.9 666.83,-150.9 666.83,-150.9 660.83,-150.9 654.83,-144.9 654.83,-138.9 654.83,-138.9 654.83,-12 654.83,-12 654.83,-6 660.83,0 666.83,0 666.83,0 799.37,0 799.37,0 805.37,0 811.37,-6 811.37,-12 811.37,-12 811.37,-138.9 811.37,-138.9 811.37,-144.9 805.37,-150.9 799.37,-150.9"/>
<text xml:space="preserve" text-anchor="middle" x="733.1" y="-125.65" font-family="Aptos" font-size="19.00">QueryAnalysis</text>
<text xml:space="preserve" text-anchor="middle" x="733.1" y="-106.15" font-family="Aptos" font-size="19.00">• route_type</text>
<text xml:space="preserve" text-anchor="middle" x="733.1" y="-86.65" font-family="Aptos" font-size="19.00">• domain_type</text>
<text xml:space="preserve" text-anchor="middle" x="733.1" y="-67.15" font-family="Aptos" font-size="19.00">• answer_family</text>
<text xml:space="preserve" text-anchor="middle" x="733.1" y="-47.65" font-family="Aptos" font-size="19.00">• sql_template</text>
<text xml:space="preserve" text-anchor="middle" x="733.1" y="-28.15" font-family="Aptos" font-size="19.00">• api_templates</text>
<text xml:space="preserve" text-anchor="middle" x="733.1" y="-8.65" font-family="Aptos" font-size="19.00">• confidence</text>
</g>
<!-- internal&#45;&gt;qa -->
<g id="edge2" class="edge">
<title>internal&#45;&gt;qa</title>
<path fill="none" stroke="#687386" stroke-width="1.7" d="M528.77,-75.45C528.77,-75.45 644.42,-75.45 644.42,-75.45"/>
<polygon fill="#687386" stroke="#687386" stroke-width="1.7" points="644.42,-77.97 651.62,-75.45 644.42,-72.93 644.42,-77.97"/>
<text xml:space="preserve" text-anchor="middle" x="591.33" y="-76.32" font-family="Aptos" font-size="12.50" fill="#425466">analysis object</text>
</g>
<!-- users -->
<g id="node4" class="node">
<title>users</title>
<path fill="#e8f7ed" stroke="#1a7f52" stroke-width="2" d="M1142.16,-131.4C1142.16,-131.4 982.62,-131.4 982.62,-131.4 976.62,-131.4 970.62,-125.4 970.62,-119.4 970.62,-119.4 970.62,-31.5 970.62,-31.5 970.62,-25.5 976.62,-19.5 982.62,-19.5 982.62,-19.5 1142.16,-19.5 1142.16,-19.5 1148.16,-19.5 1154.16,-25.5 1154.16,-31.5 1154.16,-31.5 1154.16,-119.4 1154.16,-119.4 1154.16,-125.4 1148.16,-131.4 1142.16,-131.4"/>
<text xml:space="preserve" text-anchor="middle" x="1062.39" y="-106.15" font-family="Aptos" font-size="19.00">Shared By</text>
<text xml:space="preserve" text-anchor="middle" x="1062.39" y="-86.65" font-family="Aptos" font-size="19.00">• MetadataSelector</text>
<text xml:space="preserve" text-anchor="middle" x="1062.39" y="-67.15" font-family="Aptos" font-size="19.00">• Planner</text>
<text xml:space="preserve" text-anchor="middle" x="1062.39" y="-47.65" font-family="Aptos" font-size="19.00">• EvidencePolicy</text>
<text xml:space="preserve" text-anchor="middle" x="1062.39" y="-28.15" font-family="Aptos" font-size="19.00">• Reporting</text>
</g>
<!-- qa&#45;&gt;users -->
<g id="edge3" class="edge">
<title>qa&#45;&gt;users</title>
<path fill="none" stroke="#687386" stroke-width="1.7" d="M811.97,-75.45C811.97,-75.45 960.08,-75.45 960.08,-75.45"/>
<polygon fill="#687386" stroke="#687386" stroke-width="1.7" points="960.08,-77.97 967.28,-75.45 960.08,-72.93 960.08,-77.97"/>
<text xml:space="preserve" text-anchor="middle" x="890.99" y="-76.32" font-family="Aptos" font-size="12.50" fill="#425466">reuse same decision</text>
</g>
</g>
</svg>
