<?xml version="1.0" encoding="UTF-8" standalone="no"?>
<!DOCTYPE svg PUBLIC "-//W3C//DTD SVG 1.1//EN"
 "http://www.w3.org/Graphics/SVG/1.1/DTD/svg11.dtd">
<!-- Generated by graphviz version 14.1.5 (20260411.2331)
 -->
<!-- Title: G Pages: 1 -->
<svg width="1714pt" height="433pt"
 viewBox="0.00 0.00 1714.00 433.00" xmlns="http://www.w3.org/2000/svg" xmlns:xlink="http://www.w3.org/1999/xlink">
<g id="graph0" class="graph" transform="scale(1 1) rotate(0) translate(7.2 426.25)">
<title>G</title>
<polygon fill="white" stroke="none" points="-7.2,7.2 -7.2,-426.25 1706.87,-426.25 1706.87,7.2 -7.2,7.2"/>
<!-- valid -->
<g id="node1" class="node">
<title>valid</title>
<path fill="#e8f7ed" stroke="#1a7f52" stroke-width="2" d="M200.79,-380.05C200.79,-380.05 12,-380.05 12,-380.05 6,-380.05 0,-374.05 0,-368.05 0,-368.05 0,-299.65 0,-299.65 0,-293.65 6,-287.65 12,-287.65 12,-287.65 200.79,-287.65 200.79,-287.65 206.79,-287.65 212.79,-293.65 212.79,-299.65 212.79,-299.65 212.79,-368.05 212.79,-368.05 212.79,-374.05 206.79,-380.05 200.79,-380.05"/>
<text xml:space="preserve" text-anchor="middle" x="106.39" y="-354.8" font-family="Aptos" font-size="19.00">ValidatedPlan</text>
<text xml:space="preserve" text-anchor="middle" x="106.39" y="-335.3" font-family="Aptos" font-size="19.00">• valid_sql_steps[]</text>
<text xml:space="preserve" text-anchor="middle" x="106.39" y="-315.8" font-family="Aptos" font-size="19.00">• valid_api_steps[]</text>
<text xml:space="preserve" text-anchor="middle" x="106.39" y="-296.3" font-family="Aptos" font-size="19.00">• validation_warnings[]</text>
</g>
<!-- results -->
<g id="node2" class="node">
<title>results</title>
<path fill="#e8faf8" stroke="#0b8f8a" stroke-width="2" d="M561.54,-389.8C561.54,-389.8 425.25,-389.8 425.25,-389.8 419.25,-389.8 413.25,-383.8 413.25,-377.8 413.25,-377.8 413.25,-289.9 413.25,-289.9 413.25,-283.9 419.25,-277.9 425.25,-277.9 425.25,-277.9 561.54,-277.9 561.54,-277.9 567.54,-277.9 573.54,-283.9 573.54,-289.9 573.54,-289.9 573.54,-377.8 573.54,-377.8 573.54,-383.8 567.54,-389.8 561.54,-389.8"/>
<text xml:space="preserve" text-anchor="middle" x="493.39" y="-364.55" font-family="Aptos" font-size="19.00">ToolResults</text>
<text xml:space="preserve" text-anchor="middle" x="493.39" y="-345.05" font-family="Aptos" font-size="19.00">• sql_rows[]</text>
<text xml:space="preserve" text-anchor="middle" x="493.39" y="-325.55" font-family="Aptos" font-size="19.00">• api_payloads[]</text>
<text xml:space="preserve" text-anchor="middle" x="493.39" y="-306.05" font-family="Aptos" font-size="19.00">• dry_run_flags[]</text>
<text xml:space="preserve" text-anchor="middle" x="493.39" y="-286.55" font-family="Aptos" font-size="19.00">• errors[]</text>
</g>
<!-- valid&#45;&gt;results -->
<g id="edge1" class="edge">
<title>valid&#45;&gt;results</title>
<path fill="none" stroke="#687386" stroke-width="1.7" d="M213.68,-334C213.68,-334 402.57,-334 402.57,-334"/>
<polygon fill="#687386" stroke="#687386" stroke-width="1.7" points="402.57,-336.52 409.77,-334 402.57,-331.48 402.57,-336.52"/>
</g>
<!-- bus -->
<g id="node3" class="node">
<title>bus</title>
<path fill="#e8faf8" stroke="#0b8f8a" stroke-width="2" d="M865.91,-419.05C865.91,-419.05 746.88,-419.05 746.88,-419.05 740.88,-419.05 734.88,-413.05 734.88,-407.05 734.88,-407.05 734.88,-260.65 734.88,-260.65 734.88,-254.65 740.88,-248.65 746.88,-248.65 746.88,-248.65 865.91,-248.65 865.91,-248.65 871.91,-248.65 877.91,-254.65 877.91,-260.65 877.91,-260.65 877.91,-407.05 877.91,-407.05 877.91,-413.05 871.91,-419.05 865.91,-419.05"/>
<text xml:space="preserve" text-anchor="middle" x="806.39" y="-393.8" font-family="Aptos" font-size="19.00">EvidenceBus</text>
<text xml:space="preserve" text-anchor="middle" x="806.39" y="-374.3" font-family="Aptos" font-size="19.00">• entity_ids{}</text>
<text xml:space="preserve" text-anchor="middle" x="806.39" y="-354.8" font-family="Aptos" font-size="19.00">• names[]</text>
<text xml:space="preserve" text-anchor="middle" x="806.39" y="-335.3" font-family="Aptos" font-size="19.00">• counts{}</text>
<text xml:space="preserve" text-anchor="middle" x="806.39" y="-315.8" font-family="Aptos" font-size="19.00">• timestamps[]</text>
<text xml:space="preserve" text-anchor="middle" x="806.39" y="-296.3" font-family="Aptos" font-size="19.00">• statuses[]</text>
<text xml:space="preserve" text-anchor="middle" x="806.39" y="-276.8" font-family="Aptos" font-size="19.00">• sql_rows[]</text>
<text xml:space="preserve" text-anchor="middle" x="806.39" y="-257.3" font-family="Aptos" font-size="19.00">• api_items[]</text>
</g>
<!-- results&#45;&gt;bus -->
<g id="edge2" class="edge">
<title>results&#45;&gt;bus</title>
<path fill="none" stroke="#687386" stroke-width="1.7" d="M574.41,-334C574.41,-334 724.23,-334 724.23,-334"/>
<polygon fill="#687386" stroke="#687386" stroke-width="1.7" points="724.23,-336.52 731.43,-334 724.23,-331.48 724.23,-336.52"/>
</g>
<!-- slots -->
<g id="node4" class="node">
<title>slots</title>
<path fill="#e8f7ed" stroke="#1a7f52" stroke-width="2" d="M865.91,-189.9C865.91,-189.9 746.88,-189.9 746.88,-189.9 740.88,-189.9 734.88,-183.9 734.88,-177.9 734.88,-177.9 734.88,-12 734.88,-12 734.88,-6 740.88,0 746.88,0 746.88,0 865.91,0 865.91,0 871.91,0 877.91,-6 877.91,-12 877.91,-12 877.91,-177.9 877.91,-177.9 877.91,-183.9 871.91,-189.9 865.91,-189.9"/>
<text xml:space="preserve" text-anchor="middle" x="806.39" y="-164.65" font-family="Aptos" font-size="19.00">AnswerSlots</text>
<text xml:space="preserve" text-anchor="middle" x="806.39" y="-145.15" font-family="Aptos" font-size="19.00">• entity_name</text>
<text xml:space="preserve" text-anchor="middle" x="806.39" y="-125.65" font-family="Aptos" font-size="19.00">• entity_id</text>
<text xml:space="preserve" text-anchor="middle" x="806.39" y="-106.15" font-family="Aptos" font-size="19.00">• count</text>
<text xml:space="preserve" text-anchor="middle" x="806.39" y="-86.65" font-family="Aptos" font-size="19.00">• status</text>
<text xml:space="preserve" text-anchor="middle" x="806.39" y="-67.15" font-family="Aptos" font-size="19.00">• timestamp</text>
<text xml:space="preserve" text-anchor="middle" x="806.39" y="-47.65" font-family="Aptos" font-size="19.00">• metric_value</text>
<text xml:space="preserve" text-anchor="middle" x="806.39" y="-28.15" font-family="Aptos" font-size="19.00">• dry_run</text>
<text xml:space="preserve" text-anchor="middle" x="806.39" y="-8.65" font-family="Aptos" font-size="19.00">• discrepancy</text>
</g>
<!-- bus&#45;&gt;slots -->
<g id="edge3" class="edge">
<title>bus&#45;&gt;slots</title>
<path fill="none" stroke="#687386" stroke-width="1.7" d="M806.39,-247.94C806.39,-247.94 806.39,-200.4 806.39,-200.4"/>
<polygon fill="#687386" stroke="#687386" stroke-width="1.7" points="808.92,-200.4 806.4,-193.2 803.88,-200.4 808.92,-200.4"/>
<text xml:space="preserve" text-anchor="middle" x="870.14" y="-213.78" font-family="Aptos" font-size="12.50" fill="#425466">forward exact evidence</text>
</g>
<!-- ans -->
<g id="node5" class="node">
<title>ans</title>
<path fill="#e8f7ed" stroke="#1a7f52" stroke-width="2" d="M1281.54,-150.9C1281.54,-150.9 1043.25,-150.9 1043.25,-150.9 1037.25,-150.9 1031.25,-144.9 1031.25,-138.9 1031.25,-138.9 1031.25,-51 1031.25,-51 1031.25,-45 1037.25,-39 1043.25,-39 1043.25,-39 1281.54,-39 1281.54,-39 1287.54,-39 1293.54,-45 1293.54,-51 1293.54,-51 1293.54,-138.9 1293.54,-138.9 1293.54,-144.9 1287.54,-150.9 1281.54,-150.9"/>
<text xml:space="preserve" text-anchor="middle" x="1162.39" y="-125.65" font-family="Aptos" font-size="19.00">VerifiedAnswer</text>
<text xml:space="preserve" text-anchor="middle" x="1162.39" y="-106.15" font-family="Aptos" font-size="19.00">• final_text</text>
<text xml:space="preserve" text-anchor="middle" x="1162.39" y="-86.65" font-family="Aptos" font-size="19.00">• verifier_passed</text>
<text xml:space="preserve" text-anchor="middle" x="1162.39" y="-67.15" font-family="Aptos" font-size="19.00">• unsupported_claims_count</text>
<text xml:space="preserve" text-anchor="middle" x="1162.39" y="-47.65" font-family="Aptos" font-size="19.00">• caveats[]</text>
</g>
<!-- slots&#45;&gt;ans -->
<g id="edge4" class="edge">
<title>slots&#45;&gt;ans</title>
<path fill="none" stroke="#687386" stroke-width="1.7" d="M878.87,-95C878.87,-95 1020.5,-95 1020.5,-95"/>
<polygon fill="#687386" stroke="#687386" stroke-width="1.7" points="1020.5,-97.52 1027.7,-95 1020.5,-92.48 1020.5,-97.52"/>
</g>
<!-- art -->
<g id="node6" class="node">
<title>art</title>
<path fill="#f2f4f7" stroke="#687386" stroke-width="2" d="M1687.66,-150.9C1687.66,-150.9 1471.12,-150.9 1471.12,-150.9 1465.12,-150.9 1459.12,-144.9 1459.12,-138.9 1459.12,-138.9 1459.12,-51 1459.12,-51 1459.12,-45 1465.12,-39 1471.12,-39 1471.12,-39 1687.66,-39 1687.66,-39 1693.66,-39 1699.66,-45 1699.66,-51 1699.66,-51 1699.66,-138.9 1699.66,-138.9 1699.66,-144.9 1693.66,-150.9 1687.66,-150.9"/>
<text xml:space="preserve" text-anchor="middle" x="1579.39" y="-125.65" font-family="Aptos" font-size="19.00">Artifacts</text>
<text xml:space="preserve" text-anchor="middle" x="1579.39" y="-106.15" font-family="Aptos" font-size="19.00">• metadata.json</text>
<text xml:space="preserve" text-anchor="middle" x="1579.39" y="-86.65" font-family="Aptos" font-size="19.00">• filled_system_prompt.txt</text>
<text xml:space="preserve" text-anchor="middle" x="1579.39" y="-67.15" font-family="Aptos" font-size="19.00">• trajectory.json</text>
<text xml:space="preserve" text-anchor="middle" x="1579.39" y="-47.65" font-family="Aptos" font-size="19.00">• eval reports</text>
</g>
<!-- ans&#45;&gt;art -->
<g id="edge5" class="edge">
<title>ans&#45;&gt;art</title>
<path fill="none" stroke="#687386" stroke-width="1.7" d="M1294.34,-95C1294.34,-95 1448.45,-95 1448.45,-95"/>
<polygon fill="#687386" stroke="#687386" stroke-width="1.7" points="1448.45,-97.52 1455.65,-95 1448.45,-92.48 1448.45,-97.52"/>
</g>
</g>
</svg>
