<?xml version="1.0" encoding="UTF-8" standalone="no"?>
<!DOCTYPE svg PUBLIC "-//W3C//DTD SVG 1.1//EN"
 "http://www.w3.org/Graphics/SVG/1.1/DTD/svg11.dtd">
<!-- Generated by graphviz version 14.1.5 (20260411.2331)
 -->
<!-- Title: G Pages: 1 -->
<svg width="2332pt" height="539pt"
 viewBox="0.00 0.00 2332.00 539.00" xmlns="http://www.w3.org/2000/svg" xmlns:xlink="http://www.w3.org/1999/xlink">
<g id="graph0" class="graph" transform="scale(1 1) rotate(0) translate(7.2 531.65)">
<title>G</title>
<polygon fill="white" stroke="none" points="-7.2,7.2 -7.2,-531.65 2324.74,-531.65 2324.74,7.2 -7.2,7.2"/>
<!-- raw -->
<g id="node1" class="node">
<title>raw</title>
<path fill="#efe7ff" stroke="#6d5bd0" stroke-width="2" d="M100.29,-504.95C100.29,-504.95 12,-504.95 12,-504.95 6,-504.95 0,-498.95 0,-492.95 0,-492.95 0,-424.55 0,-424.55 0,-418.55 6,-412.55 12,-412.55 12,-412.55 100.29,-412.55 100.29,-412.55 106.29,-412.55 112.29,-418.55 112.29,-424.55 112.29,-424.55 112.29,-492.95 112.29,-492.95 112.29,-498.95 106.29,-504.95 100.29,-504.95"/>
<text xml:space="preserve" text-anchor="middle" x="56.14" y="-479.7" font-family="Aptos" font-size="19.00">RawQuery</text>
<text xml:space="preserve" text-anchor="middle" x="56.14" y="-460.2" font-family="Aptos" font-size="19.00">• text</text>
<text xml:space="preserve" text-anchor="middle" x="56.14" y="-440.7" font-family="Aptos" font-size="19.00">• query_id</text>
<text xml:space="preserve" text-anchor="middle" x="56.14" y="-421.2" font-family="Aptos" font-size="19.00">• strategy</text>
</g>
<!-- norm -->
<g id="node2" class="node">
<title>norm</title>
<path fill="#efe7ff" stroke="#6d5bd0" stroke-width="2" d="M424.54,-504.95C424.54,-504.95 277.75,-504.95 277.75,-504.95 271.75,-504.95 265.75,-498.95 265.75,-492.95 265.75,-492.95 265.75,-424.55 265.75,-424.55 265.75,-418.55 271.75,-412.55 277.75,-412.55 277.75,-412.55 424.54,-412.55 424.54,-412.55 430.54,-412.55 436.54,-418.55 436.54,-424.55 436.54,-424.55 436.54,-492.95 436.54,-492.95 436.54,-498.95 430.54,-504.95 424.54,-504.95"/>
<text xml:space="preserve" text-anchor="middle" x="351.14" y="-479.7" font-family="Aptos" font-size="19.00">NormalizedQuery</text>
<text xml:space="preserve" text-anchor="middle" x="351.14" y="-460.2" font-family="Aptos" font-size="19.00">• original_text</text>
<text xml:space="preserve" text-anchor="middle" x="351.14" y="-440.7" font-family="Aptos" font-size="19.00">• normalized_text</text>
<text xml:space="preserve" text-anchor="middle" x="351.14" y="-421.2" font-family="Aptos" font-size="19.00">• rewrites[]</text>
</g>
<!-- raw&#45;&gt;norm -->
<g id="edge1" class="edge">
<title>raw&#45;&gt;norm</title>
<path fill="none" stroke="#687386" stroke-width="1.7" d="M113.02,-459C113.02,-459 255.03,-459 255.03,-459"/>
<polygon fill="#687386" stroke="#687386" stroke-width="1.7" points="255.03,-461.52 262.23,-459 255.03,-456.48 255.03,-461.52"/>
</g>
<!-- tok -->
<g id="node3" class="node">
<title>tok</title>
<path fill="#efe7ff" stroke="#6d5bd0" stroke-width="2" d="M752.91,-524.45C752.91,-524.45 641.38,-524.45 641.38,-524.45 635.38,-524.45 629.38,-518.45 629.38,-512.45 629.38,-512.45 629.38,-405.05 629.38,-405.05 629.38,-399.05 635.38,-393.05 641.38,-393.05 641.38,-393.05 752.91,-393.05 752.91,-393.05 758.91,-393.05 764.91,-399.05 764.91,-405.05 764.91,-405.05 764.91,-512.45 764.91,-512.45 764.91,-518.45 758.91,-524.45 752.91,-524.45"/>
<text xml:space="preserve" text-anchor="middle" x="697.14" y="-499.2" font-family="Aptos" font-size="19.00">QueryTokens</text>
<text xml:space="preserve" text-anchor="middle" x="697.14" y="-479.7" font-family="Aptos" font-size="19.00">• entities[]</text>
<text xml:space="preserve" text-anchor="middle" x="697.14" y="-460.2" font-family="Aptos" font-size="19.00">• ids[]</text>
<text xml:space="preserve" text-anchor="middle" x="697.14" y="-440.7" font-family="Aptos" font-size="19.00">• dates[]</text>
<text xml:space="preserve" text-anchor="middle" x="697.14" y="-421.2" font-family="Aptos" font-size="19.00">• metrics[]</text>
<text xml:space="preserve" text-anchor="middle" x="697.14" y="-401.7" font-family="Aptos" font-size="19.00">• statuses[]</text>
</g>
<!-- norm&#45;&gt;tok -->
<g id="edge2" class="edge">
<title>norm&#45;&gt;tok</title>
<path fill="none" stroke="#687386" stroke-width="1.7" d="M437.12,-459C437.12,-459 618.66,-459 618.66,-459"/>
<polygon fill="#687386" stroke="#687386" stroke-width="1.7" points="618.66,-461.52 625.86,-459 618.66,-456.48 618.66,-461.52"/>
</g>
<!-- qa -->
<g id="node4" class="node">
<title>qa</title>
<path fill="#efe7ff" stroke="#6d5bd0" stroke-width="2" d="M763.41,-334.3C763.41,-334.3 630.88,-334.3 630.88,-334.3 624.88,-334.3 618.88,-328.3 618.88,-322.3 618.88,-322.3 618.88,-195.4 618.88,-195.4 618.88,-189.4 624.88,-183.4 630.88,-183.4 630.88,-183.4 763.41,-183.4 763.41,-183.4 769.41,-183.4 775.41,-189.4 775.41,-195.4 775.41,-195.4 775.41,-322.3 775.41,-322.3 775.41,-328.3 769.41,-334.3 763.41,-334.3"/>
<text xml:space="preserve" text-anchor="middle" x="697.14" y="-309.05" font-family="Aptos" font-size="19.00">QueryAnalysis</text>
<text xml:space="preserve" text-anchor="middle" x="697.14" y="-289.55" font-family="Aptos" font-size="19.00">• route_type</text>
<text xml:space="preserve" text-anchor="middle" x="697.14" y="-270.05" font-family="Aptos" font-size="19.00">• domain_type</text>
<text xml:space="preserve" text-anchor="middle" x="697.14" y="-250.55" font-family="Aptos" font-size="19.00">• answer_family</text>
<text xml:space="preserve" text-anchor="middle" x="697.14" y="-231.05" font-family="Aptos" font-size="19.00">• sql_template</text>
<text xml:space="preserve" text-anchor="middle" x="697.14" y="-211.55" font-family="Aptos" font-size="19.00">• api_templates</text>
<text xml:space="preserve" text-anchor="middle" x="697.14" y="-192.05" font-family="Aptos" font-size="19.00">• confidence</text>
</g>
<!-- tok&#45;&gt;qa -->
<g id="edge3" class="edge">
<title>tok&#45;&gt;qa</title>
<path fill="none" stroke="#687386" stroke-width="1.7" d="M697.14,-392.19C697.14,-392.19 697.14,-344.92 697.14,-344.92"/>
<polygon fill="#687386" stroke="#687386" stroke-width="1.7" points="699.67,-344.92 697.15,-337.72 694.63,-344.92 699.67,-344.92"/>
<text xml:space="preserve" text-anchor="middle" x="775.89" y="-358.18" font-family="Aptos" font-size="12.50" fill="#425466">classify: domain + templates</text>
</g>
<!-- meta -->
<g id="node5" class="node">
<title>meta</title>
<path fill="#f2f4f7" stroke="#687386" stroke-width="2" d="M1127.16,-324.55C1127.16,-324.55 975.12,-324.55 975.12,-324.55 969.12,-324.55 963.12,-318.55 963.12,-312.55 963.12,-312.55 963.12,-205.15 963.12,-205.15 963.12,-199.15 969.12,-193.15 975.12,-193.15 975.12,-193.15 1127.16,-193.15 1127.16,-193.15 1133.16,-193.15 1139.16,-199.15 1139.16,-205.15 1139.16,-205.15 1139.16,-312.55 1139.16,-312.55 1139.16,-318.55 1133.16,-324.55 1127.16,-324.55"/>
<text xml:space="preserve" text-anchor="middle" x="1051.14" y="-299.3" font-family="Aptos" font-size="19.00">SelectedMetadata</text>
<text xml:space="preserve" text-anchor="middle" x="1051.14" y="-279.8" font-family="Aptos" font-size="19.00">• tables[]</text>
<text xml:space="preserve" text-anchor="middle" x="1051.14" y="-260.3" font-family="Aptos" font-size="19.00">• columns[]</text>
<text xml:space="preserve" text-anchor="middle" x="1051.14" y="-240.8" font-family="Aptos" font-size="19.00">• join_hints[]</text>
<text xml:space="preserve" text-anchor="middle" x="1051.14" y="-221.3" font-family="Aptos" font-size="19.00">• api_candidates[]</text>
<text xml:space="preserve" text-anchor="middle" x="1051.14" y="-201.8" font-family="Aptos" font-size="19.00">• context_card</text>
</g>
<!-- qa&#45;&gt;meta -->
<g id="edge4" class="edge">
<title>qa&#45;&gt;meta</title>
<path fill="none" stroke="#687386" stroke-width="1.7" d="M776.15,-259C776.15,-259 952.65,-259 952.65,-259"/>
<polygon fill="#687386" stroke="#687386" stroke-width="1.7" points="952.65,-261.52 959.85,-259 952.65,-256.48 952.65,-261.52"/>
</g>
<!-- draft -->
<g id="node6" class="node">
<title>draft</title>
<path fill="#efe7ff" stroke="#6d5bd0" stroke-width="2" d="M1491.16,-305.05C1491.16,-305.05 1351.12,-305.05 1351.12,-305.05 1345.12,-305.05 1339.12,-299.05 1339.12,-293.05 1339.12,-293.05 1339.12,-224.65 1339.12,-224.65 1339.12,-218.65 1345.12,-212.65 1351.12,-212.65 1351.12,-212.65 1491.16,-212.65 1491.16,-212.65 1497.16,-212.65 1503.16,-218.65 1503.16,-224.65 1503.16,-224.65 1503.16,-293.05 1503.16,-293.05 1503.16,-299.05 1497.16,-305.05 1491.16,-305.05"/>
<text xml:space="preserve" text-anchor="middle" x="1421.14" y="-279.8" font-family="Aptos" font-size="19.00">DraftPlan</text>
<text xml:space="preserve" text-anchor="middle" x="1421.14" y="-260.3" font-family="Aptos" font-size="19.00">• sql_steps[]</text>
<text xml:space="preserve" text-anchor="middle" x="1421.14" y="-240.8" font-family="Aptos" font-size="19.00">• api_steps[]</text>
<text xml:space="preserve" text-anchor="middle" x="1421.14" y="-221.3" font-family="Aptos" font-size="19.00">• dependencies[]</text>
</g>
<!-- meta&#45;&gt;draft -->
<g id="edge5" class="edge">
<title>meta&#45;&gt;draft</title>
<path fill="none" stroke="#687386" stroke-width="1.7" d="M1139.77,-259C1139.77,-259 1328.54,-259 1328.54,-259"/>
<polygon fill="#687386" stroke="#687386" stroke-width="1.7" points="1328.54,-261.52 1335.74,-259 1328.54,-256.48 1328.54,-261.52"/>
</g>
<!-- budget -->
<g id="node7" class="node">
<title>budget</title>
<path fill="#efe7ff" stroke="#6d5bd0" stroke-width="2" d="M1491.16,-111.9C1491.16,-111.9 1351.12,-111.9 1351.12,-111.9 1345.12,-111.9 1339.12,-105.9 1339.12,-99.9 1339.12,-99.9 1339.12,-12 1339.12,-12 1339.12,-6 1345.12,0 1351.12,0 1351.12,0 1491.16,0 1491.16,0 1497.16,0 1503.16,-6 1503.16,-12 1503.16,-12 1503.16,-99.9 1503.16,-99.9 1503.16,-105.9 1497.16,-111.9 1491.16,-111.9"/>
<text xml:space="preserve" text-anchor="middle" x="1421.14" y="-86.65" font-family="Aptos" font-size="19.00">BudgetedPlan</text>
<text xml:space="preserve" text-anchor="middle" x="1421.14" y="-67.15" font-family="Aptos" font-size="19.00">• required_calls[]</text>
<text xml:space="preserve" text-anchor="middle" x="1421.14" y="-47.65" font-family="Aptos" font-size="19.00">• optional_calls[]</text>
<text xml:space="preserve" text-anchor="middle" x="1421.14" y="-28.15" font-family="Aptos" font-size="19.00">• skipped_calls[]</text>
<text xml:space="preserve" text-anchor="middle" x="1421.14" y="-8.65" font-family="Aptos" font-size="19.00">• max_tool_calls</text>
</g>
<!-- draft&#45;&gt;budget -->
<g id="edge6" class="edge">
<title>draft&#45;&gt;budget</title>
<path fill="none" stroke="#687386" stroke-width="1.7" d="M1421.14,-211.79C1421.14,-211.79 1421.14,-122.65 1421.14,-122.65"/>
<polygon fill="#687386" stroke="#687386" stroke-width="1.7" points="1423.67,-122.65 1421.15,-115.45 1418.63,-122.65 1423.67,-122.65"/>
<text xml:space="preserve" text-anchor="middle" x="1514.14" y="-148.53" font-family="Aptos" font-size="12.50" fill="#425466">policy: REQUIRED / OPTIONAL /</text>
<text xml:space="preserve" text-anchor="middle" x="1514.14" y="-135.78" font-family="Aptos" font-size="12.50" fill="#425466">SKIP</text>
</g>
<!-- opt -->
<g id="node8" class="node">
<title>opt</title>
<path fill="#e8f7ed" stroke="#1a7f52" stroke-width="2" d="M1916.66,-102.15C1916.66,-102.15 1683.62,-102.15 1683.62,-102.15 1677.62,-102.15 1671.62,-96.15 1671.62,-90.15 1671.62,-90.15 1671.62,-21.75 1671.62,-21.75 1671.62,-15.75 1677.62,-9.75 1683.62,-9.75 1683.62,-9.75 1916.66,-9.75 1916.66,-9.75 1922.66,-9.75 1928.66,-15.75 1928.66,-21.75 1928.66,-21.75 1928.66,-90.15 1928.66,-90.15 1928.66,-96.15 1922.66,-102.15 1916.66,-102.15"/>
<text xml:space="preserve" text-anchor="middle" x="1800.14" y="-76.9" font-family="Aptos" font-size="19.00">OptimizedPlan</text>
<text xml:space="preserve" text-anchor="middle" x="1800.14" y="-57.4" font-family="Aptos" font-size="19.00">• steps[]</text>
<text xml:space="preserve" text-anchor="middle" x="1800.14" y="-37.9" font-family="Aptos" font-size="19.00">• optimizer_actions[]</text>
<text xml:space="preserve" text-anchor="middle" x="1800.14" y="-18.4" font-family="Aptos" font-size="19.00">• unresolved_placeholders[]</text>
</g>
<!-- budget&#45;&gt;opt -->
<g id="edge7" class="edge">
<title>budget&#45;&gt;opt</title>
<path fill="none" stroke="#687386" stroke-width="1.7" d="M1503.85,-56C1503.85,-56 1660.9,-56 1660.9,-56"/>
<polygon fill="#687386" stroke="#687386" stroke-width="1.7" points="1660.9,-58.52 1668.1,-56 1660.9,-53.48 1660.9,-58.52"/>
</g>
<!-- valid -->
<g id="node9" class="node">
<title>valid</title>
<path fill="#e8f7ed" stroke="#1a7f52" stroke-width="2" d="M2305.54,-102.15C2305.54,-102.15 2116.75,-102.15 2116.75,-102.15 2110.75,-102.15 2104.75,-96.15 2104.75,-90.15 2104.75,-90.15 2104.75,-21.75 2104.75,-21.75 2104.75,-15.75 2110.75,-9.75 2116.75,-9.75 2116.75,-9.75 2305.54,-9.75 2305.54,-9.75 2311.54,-9.75 2317.54,-15.75 2317.54,-21.75 2317.54,-21.75 2317.54,-90.15 2317.54,-90.15 2317.54,-96.15 2311.54,-102.15 2305.54,-102.15"/>
<text xml:space="preserve" text-anchor="middle" x="2211.14" y="-76.9" font-family="Aptos" font-size="19.00">ValidatedPlan</text>
<text xml:space="preserve" text-anchor="middle" x="2211.14" y="-57.4" font-family="Aptos" font-size="19.00">• valid_sql_steps[]</text>
<text xml:space="preserve" text-anchor="middle" x="2211.14" y="-37.9" font-family="Aptos" font-size="19.00">• valid_api_steps[]</text>
<text xml:space="preserve" text-anchor="middle" x="2211.14" y="-18.4" font-family="Aptos" font-size="19.00">• validation_warnings[]</text>
</g>
<!-- opt&#45;&gt;valid -->
<g id="edge8" class="edge">
<title>opt&#45;&gt;valid</title>
<path fill="none" stroke="#687386" stroke-width="1.7" d="M1929.62,-56C1929.62,-56 2094.24,-56 2094.24,-56"/>
<polygon fill="#687386" stroke="#687386" stroke-width="1.7" points="2094.24,-58.52 2101.44,-56 2094.24,-53.48 2094.24,-58.52"/>
</g>
</g>
</svg>
