<?xml version="1.0" encoding="UTF-8" standalone="no"?>
<!DOCTYPE svg PUBLIC "-//W3C//DTD SVG 1.1//EN"
 "http://www.w3.org/Graphics/SVG/1.1/DTD/svg11.dtd">
<!-- Generated by graphviz version 14.1.5 (20260411.2331)
 -->
<!-- Title: G Pages: 1 -->
<svg width="1458pt" height="1193pt"
 viewBox="0.00 0.00 1458.00 1193.00" xmlns="http://www.w3.org/2000/svg" xmlns:xlink="http://www.w3.org/1999/xlink">
<g id="graph0" class="graph" transform="scale(1 1) rotate(0) translate(7.2 1186.1)">
<title>G</title>
<polygon fill="white" stroke="none" points="-7.2,7.2 -7.2,-1186.1 1450.85,-1186.1 1450.85,7.2 -7.2,7.2"/>
<!-- raw -->
<g id="node1" class="node">
<title>raw</title>
<path fill="#efe7ff" stroke="#6d5bd0" stroke-width="2" d="M100.29,-1159.4C100.29,-1159.4 12,-1159.4 12,-1159.4 6,-1159.4 0,-1153.4 0,-1147.4 0,-1147.4 0,-1079 0,-1079 0,-1073 6,-1067 12,-1067 12,-1067 100.29,-1067 100.29,-1067 106.29,-1067 112.29,-1073 112.29,-1079 112.29,-1079 112.29,-1147.4 112.29,-1147.4 112.29,-1153.4 106.29,-1159.4 100.29,-1159.4"/>
<text xml:space="preserve" text-anchor="middle" x="56.14" y="-1134.15" font-family="Aptos" font-size="19.00">RawQuery</text>
<text xml:space="preserve" text-anchor="middle" x="56.14" y="-1114.65" font-family="Aptos" font-size="19.00">• text</text>
<text xml:space="preserve" text-anchor="middle" x="56.14" y="-1095.15" font-family="Aptos" font-size="19.00">• query_id</text>
<text xml:space="preserve" text-anchor="middle" x="56.14" y="-1075.65" font-family="Aptos" font-size="19.00">• strategy</text>
</g>
<!-- norm -->
<g id="node2" class="node">
<title>norm</title>
<path fill="#efe7ff" stroke="#6d5bd0" stroke-width="2" d="M208.54,-946.75C208.54,-946.75 61.75,-946.75 61.75,-946.75 55.75,-946.75 49.75,-940.75 49.75,-934.75 49.75,-934.75 49.75,-866.35 49.75,-866.35 49.75,-860.35 55.75,-854.35 61.75,-854.35 61.75,-854.35 208.54,-854.35 208.54,-854.35 214.54,-854.35 220.54,-860.35 220.54,-866.35 220.54,-866.35 220.54,-934.75 220.54,-934.75 220.54,-940.75 214.54,-946.75 208.54,-946.75"/>
<text xml:space="preserve" text-anchor="middle" x="135.14" y="-921.5" font-family="Aptos" font-size="19.00">NormalizedQuery</text>
<text xml:space="preserve" text-anchor="middle" x="135.14" y="-902" font-family="Aptos" font-size="19.00">• original_text</text>
<text xml:space="preserve" text-anchor="middle" x="135.14" y="-882.5" font-family="Aptos" font-size="19.00">• normalized_text</text>
<text xml:space="preserve" text-anchor="middle" x="135.14" y="-863" font-family="Aptos" font-size="19.00">• rewrites[]</text>
</g>
<!-- raw&#45;&gt;norm -->
<g id="edge1" class="edge">
<title>raw&#45;&gt;norm</title>
<path fill="none" stroke="#687386" stroke-width="1.7" d="M81.02,-1066.01C81.02,-1066.01 81.02,-957.39 81.02,-957.39"/>
<polygon fill="#687386" stroke="#687386" stroke-width="1.7" points="83.54,-957.39 81.02,-950.19 78.5,-957.39 83.54,-957.39"/>
<text xml:space="preserve" text-anchor="middle" x="115.39" y="-1012.63" font-family="Aptos" font-size="12.50" fill="#425466">normalize: clean text;</text>
<text xml:space="preserve" text-anchor="middle" x="115.39" y="-999.88" font-family="Aptos" font-size="12.50" fill="#425466">preserve original</text>
</g>
<!-- tok -->
<g id="node3" class="node">
<title>tok</title>
<path fill="#efe7ff" stroke="#6d5bd0" stroke-width="2" d="M369.91,-1178.9C369.91,-1178.9 258.38,-1178.9 258.38,-1178.9 252.38,-1178.9 246.38,-1172.9 246.38,-1166.9 246.38,-1166.9 246.38,-1059.5 246.38,-1059.5 246.38,-1053.5 252.38,-1047.5 258.38,-1047.5 258.38,-1047.5 369.91,-1047.5 369.91,-1047.5 375.91,-1047.5 381.91,-1053.5 381.91,-1059.5 381.91,-1059.5 381.91,-1166.9 381.91,-1166.9 381.91,-1172.9 375.91,-1178.9 369.91,-1178.9"/>
<text xml:space="preserve" text-anchor="middle" x="314.14" y="-1153.65" font-family="Aptos" font-size="19.00">QueryTokens</text>
<text xml:space="preserve" text-anchor="middle" x="314.14" y="-1134.15" font-family="Aptos" font-size="19.00">• entities[]</text>
<text xml:space="preserve" text-anchor="middle" x="314.14" y="-1114.65" font-family="Aptos" font-size="19.00">• ids[]</text>
<text xml:space="preserve" text-anchor="middle" x="314.14" y="-1095.15" font-family="Aptos" font-size="19.00">• dates[]</text>
<text xml:space="preserve" text-anchor="middle" x="314.14" y="-1075.65" font-family="Aptos" font-size="19.00">• metrics[]</text>
<text xml:space="preserve" text-anchor="middle" x="314.14" y="-1056.15" font-family="Aptos" font-size="19.00">• statuses[]</text>
</g>
<!-- norm&#45;&gt;tok -->
<g id="edge2" class="edge">
<title>norm&#45;&gt;tok</title>
<path fill="none" stroke="#687386" stroke-width="1.7" d="M166.41,-947.49C166.41,-993.57 166.41,-1057 166.41,-1057 166.41,-1057 235.7,-1057 235.7,-1057"/>
<polygon fill="#687386" stroke="#687386" stroke-width="1.7" points="235.7,-1059.52 242.9,-1057 235.7,-1054.48 235.7,-1059.52"/>
<text xml:space="preserve" text-anchor="middle" x="293.89" y="-1012.63" font-family="Aptos" font-size="12.50" fill="#425466">tokenize: names, IDs, dates,</text>
<text xml:space="preserve" text-anchor="middle" x="293.89" y="-999.88" font-family="Aptos" font-size="12.50" fill="#425466">metrics</text>
</g>
<!-- qa -->
<g id="node4" class="node">
<title>qa</title>
<path fill="#efe7ff" stroke="#6d5bd0" stroke-width="2" d="M479.41,-976C479.41,-976 346.88,-976 346.88,-976 340.88,-976 334.88,-970 334.88,-964 334.88,-964 334.88,-837.1 334.88,-837.1 334.88,-831.1 340.88,-825.1 346.88,-825.1 346.88,-825.1 479.41,-825.1 479.41,-825.1 485.41,-825.1 491.41,-831.1 491.41,-837.1 491.41,-837.1 491.41,-964 491.41,-964 491.41,-970 485.41,-976 479.41,-976"/>
<text xml:space="preserve" text-anchor="middle" x="413.14" y="-950.75" font-family="Aptos" font-size="19.00">QueryAnalysis</text>
<text xml:space="preserve" text-anchor="middle" x="413.14" y="-931.25" font-family="Aptos" font-size="19.00">• route_type</text>
<text xml:space="preserve" text-anchor="middle" x="413.14" y="-911.75" font-family="Aptos" font-size="19.00">• domain_type</text>
<text xml:space="preserve" text-anchor="middle" x="413.14" y="-892.25" font-family="Aptos" font-size="19.00">• answer_family</text>
<text xml:space="preserve" text-anchor="middle" x="413.14" y="-872.75" font-family="Aptos" font-size="19.00">• sql_template</text>
<text xml:space="preserve" text-anchor="middle" x="413.14" y="-853.25" font-family="Aptos" font-size="19.00">• api_templates</text>
<text xml:space="preserve" text-anchor="middle" x="413.14" y="-833.75" font-family="Aptos" font-size="19.00">• confidence</text>
</g>
<!-- tok&#45;&gt;qa -->
<g id="edge3" class="edge">
<title>tok&#45;&gt;qa</title>
<path fill="none" stroke="#687386" stroke-width="1.7" d="M358.39,-1046.79C358.39,-1046.79 358.39,-986.62 358.39,-986.62"/>
<polygon fill="#687386" stroke="#687386" stroke-width="1.7" points="360.92,-986.62 358.4,-979.42 355.88,-986.62 360.92,-986.62"/>
<text xml:space="preserve" text-anchor="middle" x="491.89" y="-1006.25" font-family="Aptos" font-size="12.50" fill="#425466">classify: domain + templates</text>
</g>
<!-- meta -->
<g id="node5" class="node">
<title>meta</title>
<path fill="#f2f4f7" stroke="#687386" stroke-width="2" d="M489.16,-734.1C489.16,-734.1 337.12,-734.1 337.12,-734.1 331.12,-734.1 325.12,-728.1 325.12,-722.1 325.12,-722.1 325.12,-614.7 325.12,-614.7 325.12,-608.7 331.12,-602.7 337.12,-602.7 337.12,-602.7 489.16,-602.7 489.16,-602.7 495.16,-602.7 501.16,-608.7 501.16,-614.7 501.16,-614.7 501.16,-722.1 501.16,-722.1 501.16,-728.1 495.16,-734.1 489.16,-734.1"/>
<text xml:space="preserve" text-anchor="middle" x="413.14" y="-708.85" font-family="Aptos" font-size="19.00">SelectedMetadata</text>
<text xml:space="preserve" text-anchor="middle" x="413.14" y="-689.35" font-family="Aptos" font-size="19.00">• tables[]</text>
<text xml:space="preserve" text-anchor="middle" x="413.14" y="-669.85" font-family="Aptos" font-size="19.00">• columns[]</text>
<text xml:space="preserve" text-anchor="middle" x="413.14" y="-650.35" font-family="Aptos" font-size="19.00">• join_hints[]</text>
<text xml:space="preserve" text-anchor="middle" x="413.14" y="-630.85" font-family="Aptos" font-size="19.00">• api_candidates[]</text>
<text xml:space="preserve" text-anchor="middle" x="413.14" y="-611.35" font-family="Aptos" font-size="19.00">• context_card</text>
</g>
<!-- qa&#45;&gt;meta -->
<g id="edge4" class="edge">
<title>qa&#45;&gt;meta</title>
<path fill="none" stroke="#687386" stroke-width="1.7" d="M413.14,-824.21C413.14,-824.21 413.14,-744.8 413.14,-744.8"/>
<polygon fill="#687386" stroke="#687386" stroke-width="1.7" points="415.67,-744.8 413.15,-737.6 410.63,-744.8 415.67,-744.8"/>
<text xml:space="preserve" text-anchor="middle" x="489.64" y="-790.23" font-family="Aptos" font-size="12.50" fill="#425466">select compact schema/API</text>
<text xml:space="preserve" text-anchor="middle" x="489.64" y="-777.48" font-family="Aptos" font-size="12.50" fill="#425466">context</text>
</g>
<!-- draft -->
<g id="node6" class="node">
<title>draft</title>
<path fill="#efe7ff" stroke="#6d5bd0" stroke-width="2" d="M483.16,-475.7C483.16,-475.7 343.12,-475.7 343.12,-475.7 337.12,-475.7 331.12,-469.7 331.12,-463.7 331.12,-463.7 331.12,-395.3 331.12,-395.3 331.12,-389.3 337.12,-383.3 343.12,-383.3 343.12,-383.3 483.16,-383.3 483.16,-383.3 489.16,-383.3 495.16,-389.3 495.16,-395.3 495.16,-395.3 495.16,-463.7 495.16,-463.7 495.16,-469.7 489.16,-475.7 483.16,-475.7"/>
<text xml:space="preserve" text-anchor="middle" x="413.14" y="-450.45" font-family="Aptos" font-size="19.00">DraftPlan</text>
<text xml:space="preserve" text-anchor="middle" x="413.14" y="-430.95" font-family="Aptos" font-size="19.00">• sql_steps[]</text>
<text xml:space="preserve" text-anchor="middle" x="413.14" y="-411.45" font-family="Aptos" font-size="19.00">• api_steps[]</text>
<text xml:space="preserve" text-anchor="middle" x="413.14" y="-391.95" font-family="Aptos" font-size="19.00">• dependencies[]</text>
</g>
<!-- meta&#45;&gt;draft -->
<g id="edge5" class="edge">
<title>meta&#45;&gt;draft</title>
<path fill="none" stroke="#687386" stroke-width="1.7" d="M413.14,-601.85C413.14,-601.85 413.14,-486.17 413.14,-486.17"/>
<polygon fill="#687386" stroke="#687386" stroke-width="1.7" points="415.67,-486.17 413.15,-478.97 410.63,-486.17 415.67,-486.17"/>
<text xml:space="preserve" text-anchor="middle" x="495.64" y="-548.33" font-family="Aptos" font-size="12.50" fill="#425466">plan: generate SQL/API steps</text>
</g>
<!-- budget -->
<g id="node7" class="node">
<title>budget</title>
<path fill="#efe7ff" stroke="#6d5bd0" stroke-width="2" d="M518.16,-275.8C518.16,-275.8 378.12,-275.8 378.12,-275.8 372.12,-275.8 366.12,-269.8 366.12,-263.8 366.12,-263.8 366.12,-175.9 366.12,-175.9 366.12,-169.9 372.12,-163.9 378.12,-163.9 378.12,-163.9 518.16,-163.9 518.16,-163.9 524.16,-163.9 530.16,-169.9 530.16,-175.9 530.16,-175.9 530.16,-263.8 530.16,-263.8 530.16,-269.8 524.16,-275.8 518.16,-275.8"/>
<text xml:space="preserve" text-anchor="middle" x="448.14" y="-250.55" font-family="Aptos" font-size="19.00">BudgetedPlan</text>
<text xml:space="preserve" text-anchor="middle" x="448.14" y="-231.05" font-family="Aptos" font-size="19.00">• required_calls[]</text>
<text xml:space="preserve" text-anchor="middle" x="448.14" y="-211.55" font-family="Aptos" font-size="19.00">• optional_calls[]</text>
<text xml:space="preserve" text-anchor="middle" x="448.14" y="-192.05" font-family="Aptos" font-size="19.00">• skipped_calls[]</text>
<text xml:space="preserve" text-anchor="middle" x="448.14" y="-172.55" font-family="Aptos" font-size="19.00">• max_tool_calls</text>
</g>
<!-- draft&#45;&gt;budget -->
<g id="edge6" class="edge">
<title>draft&#45;&gt;budget</title>
<path fill="none" stroke="#687386" stroke-width="1.7" d="M430.64,-382.45C430.64,-382.45 430.64,-286.21 430.64,-286.21"/>
<polygon fill="#687386" stroke="#687386" stroke-width="1.7" points="433.17,-286.21 430.65,-279.01 428.13,-286.21 433.17,-286.21"/>
<text xml:space="preserve" text-anchor="middle" x="515.14" y="-299.68" font-family="Aptos" font-size="12.50" fill="#425466">policy: REQUIRED/OPTIONAL/SKIP</text>
</g>
<!-- opt -->
<g id="node8" class="node">
<title>opt</title>
<path fill="#e8f7ed" stroke="#1a7f52" stroke-width="2" d="M660.66,-92.4C660.66,-92.4 427.62,-92.4 427.62,-92.4 421.62,-92.4 415.62,-86.4 415.62,-80.4 415.62,-80.4 415.62,-12 415.62,-12 415.62,-6 421.62,0 427.62,0 427.62,0 660.66,0 660.66,0 666.66,0 672.66,-6 672.66,-12 672.66,-12 672.66,-80.4 672.66,-80.4 672.66,-86.4 666.66,-92.4 660.66,-92.4"/>
<text xml:space="preserve" text-anchor="middle" x="544.14" y="-67.15" font-family="Aptos" font-size="19.00">OptimizedPlan</text>
<text xml:space="preserve" text-anchor="middle" x="544.14" y="-47.65" font-family="Aptos" font-size="19.00">• steps[]</text>
<text xml:space="preserve" text-anchor="middle" x="544.14" y="-28.15" font-family="Aptos" font-size="19.00">• optimizer_actions[]</text>
<text xml:space="preserve" text-anchor="middle" x="544.14" y="-8.65" font-family="Aptos" font-size="19.00">• unresolved_placeholders[]</text>
</g>
<!-- budget&#45;&gt;opt -->
<g id="edge7" class="edge">
<title>budget&#45;&gt;opt</title>
<path fill="none" stroke="#687386" stroke-width="1.7" d="M472.89,-162.99C472.89,-162.99 472.89,-103.09 472.89,-103.09"/>
<polygon fill="#687386" stroke="#687386" stroke-width="1.7" points="475.42,-103.09 472.9,-95.89 470.38,-103.09 475.42,-103.09"/>
<text xml:space="preserve" text-anchor="middle" x="533.27" y="-129.03" font-family="Aptos" font-size="12.50" fill="#425466">optimize: dedupe + drop</text>
<text xml:space="preserve" text-anchor="middle" x="533.27" y="-116.28" font-family="Aptos" font-size="12.50" fill="#425466">placeholders</text>
</g>
<!-- valid -->
<g id="node9" class="node">
<title>valid</title>
<path fill="#e8f7ed" stroke="#1a7f52" stroke-width="2" d="M782.54,-946.75C782.54,-946.75 593.75,-946.75 593.75,-946.75 587.75,-946.75 581.75,-940.75 581.75,-934.75 581.75,-934.75 581.75,-866.35 581.75,-866.35 581.75,-860.35 587.75,-854.35 593.75,-854.35 593.75,-854.35 782.54,-854.35 782.54,-854.35 788.54,-854.35 794.54,-860.35 794.54,-866.35 794.54,-866.35 794.54,-934.75 794.54,-934.75 794.54,-940.75 788.54,-946.75 782.54,-946.75"/>
<text xml:space="preserve" text-anchor="middle" x="688.14" y="-921.5" font-family="Aptos" font-size="19.00">ValidatedPlan</text>
<text xml:space="preserve" text-anchor="middle" x="688.14" y="-902" font-family="Aptos" font-size="19.00">• valid_sql_steps[]</text>
<text xml:space="preserve" text-anchor="middle" x="688.14" y="-882.5" font-family="Aptos" font-size="19.00">• valid_api_steps[]</text>
<text xml:space="preserve" text-anchor="middle" x="688.14" y="-863" font-family="Aptos" font-size="19.00">• validation_warnings[]</text>
</g>
<!-- opt&#45;&gt;valid -->
<g id="edge8" class="edge">
<title>opt&#45;&gt;valid</title>
<path fill="none" stroke="#687386" stroke-width="1.7" d="M627.21,-93.35C627.21,-93.35 627.21,-843.77 627.21,-843.77"/>
<polygon fill="#687386" stroke="#687386" stroke-width="1.7" points="624.69,-843.77 627.21,-850.97 629.73,-843.77 624.69,-843.77"/>
<text xml:space="preserve" text-anchor="middle" x="711.02" y="-430.38" font-family="Aptos" font-size="12.50" fill="#425466">validate SQL safety + API</text>
<text xml:space="preserve" text-anchor="middle" x="711.02" y="-417.62" font-family="Aptos" font-size="12.50" fill="#425466">catalog</text>
</g>
<!-- results -->
<g id="node10" class="node">
<title>results</title>
<path fill="#e8faf8" stroke="#0b8f8a" stroke-width="2" d="M841.29,-724.35C841.29,-724.35 705,-724.35 705,-724.35 699,-724.35 693,-718.35 693,-712.35 693,-712.35 693,-624.45 693,-624.45 693,-618.45 699,-612.45 705,-612.45 705,-612.45 841.29,-612.45 841.29,-612.45 847.29,-612.45 853.29,-618.45 853.29,-624.45 853.29,-624.45 853.29,-712.35 853.29,-712.35 853.29,-718.35 847.29,-724.35 841.29,-724.35"/>
<text xml:space="preserve" text-anchor="middle" x="773.14" y="-699.1" font-family="Aptos" font-size="19.00">ToolResults</text>
<text xml:space="preserve" text-anchor="middle" x="773.14" y="-679.6" font-family="Aptos" font-size="19.00">• sql_rows[]</text>
<text xml:space="preserve" text-anchor="middle" x="773.14" y="-660.1" font-family="Aptos" font-size="19.00">• api_payloads[]</text>
<text xml:space="preserve" text-anchor="middle" x="773.14" y="-640.6" font-family="Aptos" font-size="19.00">• dry_run_flags[]</text>
<text xml:space="preserve" text-anchor="middle" x="773.14" y="-621.1" font-family="Aptos" font-size="19.00">• errors[]</text>
</g>
<!-- valid&#45;&gt;results -->
<g id="edge9" class="edge">
<title>valid&#45;&gt;results</title>
<path fill="none" stroke="#687386" stroke-width="1.7" d="M743.77,-853.57C743.77,-853.57 743.77,-734.93 743.77,-734.93"/>
<polygon fill="#687386" stroke="#687386" stroke-width="1.7" points="746.29,-734.93 743.77,-727.73 741.25,-734.93 746.29,-734.93"/>
<text xml:space="preserve" text-anchor="middle" x="818.02" y="-783.85" font-family="Aptos" font-size="12.50" fill="#425466">execute_sql + call_api/dry&#45;run</text>
</g>
<!-- bus -->
<g id="node11" class="node">
<title>bus</title>
<path fill="#e8faf8" stroke="#0b8f8a" stroke-width="2" d="M1145.66,-753.6C1145.66,-753.6 1026.62,-753.6 1026.62,-753.6 1020.62,-753.6 1014.62,-747.6 1014.62,-741.6 1014.62,-741.6 1014.62,-595.2 1014.62,-595.2 1014.62,-589.2 1020.62,-583.2 1026.62,-583.2 1026.62,-583.2 1145.66,-583.2 1145.66,-583.2 1151.66,-583.2 1157.66,-589.2 1157.66,-595.2 1157.66,-595.2 1157.66,-741.6 1157.66,-741.6 1157.66,-747.6 1151.66,-753.6 1145.66,-753.6"/>
<text xml:space="preserve" text-anchor="middle" x="1086.14" y="-728.35" font-family="Aptos" font-size="19.00">EvidenceBus</text>
<text xml:space="preserve" text-anchor="middle" x="1086.14" y="-708.85" font-family="Aptos" font-size="19.00">• entity_ids{}</text>
<text xml:space="preserve" text-anchor="middle" x="1086.14" y="-689.35" font-family="Aptos" font-size="19.00">• names[]</text>
<text xml:space="preserve" text-anchor="middle" x="1086.14" y="-669.85" font-family="Aptos" font-size="19.00">• counts{}</text>
<text xml:space="preserve" text-anchor="middle" x="1086.14" y="-650.35" font-family="Aptos" font-size="19.00">• timestamps[]</text>
<text xml:space="preserve" text-anchor="middle" x="1086.14" y="-630.85" font-family="Aptos" font-size="19.00">• statuses[]</text>
<text xml:space="preserve" text-anchor="middle" x="1086.14" y="-611.35" font-family="Aptos" font-size="19.00">• sql_rows[]</text>
<text xml:space="preserve" text-anchor="middle" x="1086.14" y="-591.85" font-family="Aptos" font-size="19.00">• api_items[]</text>
</g>
<!-- results&#45;&gt;bus -->
<g id="edge10" class="edge">
<title>results&#45;&gt;bus</title>
<path fill="none" stroke="#687386" stroke-width="1.7" d="M854.16,-668C854.16,-668 1003.98,-668 1003.98,-668"/>
<polygon fill="#687386" stroke="#687386" stroke-width="1.7" points="1003.98,-670.52 1011.18,-668 1003.98,-665.48 1003.98,-670.52"/>
</g>
<!-- slots -->
<g id="node12" class="node">
<title>slots</title>
<path fill="#e8f7ed" stroke="#1a7f52" stroke-width="2" d="M1145.66,-524.45C1145.66,-524.45 1026.62,-524.45 1026.62,-524.45 1020.62,-524.45 1014.62,-518.45 1014.62,-512.45 1014.62,-512.45 1014.62,-346.55 1014.62,-346.55 1014.62,-340.55 1020.62,-334.55 1026.62,-334.55 1026.62,-334.55 1145.66,-334.55 1145.66,-334.55 1151.66,-334.55 1157.66,-340.55 1157.66,-346.55 1157.66,-346.55 1157.66,-512.45 1157.66,-512.45 1157.66,-518.45 1151.66,-524.45 1145.66,-524.45"/>
<text xml:space="preserve" text-anchor="middle" x="1086.14" y="-499.2" font-family="Aptos" font-size="19.00">AnswerSlots</text>
<text xml:space="preserve" text-anchor="middle" x="1086.14" y="-479.7" font-family="Aptos" font-size="19.00">• entity_name</text>
<text xml:space="preserve" text-anchor="middle" x="1086.14" y="-460.2" font-family="Aptos" font-size="19.00">• entity_id</text>
<text xml:space="preserve" text-anchor="middle" x="1086.14" y="-440.7" font-family="Aptos" font-size="19.00">• count</text>
<text xml:space="preserve" text-anchor="middle" x="1086.14" y="-421.2" font-family="Aptos" font-size="19.00">• status</text>
<text xml:space="preserve" text-anchor="middle" x="1086.14" y="-401.7" font-family="Aptos" font-size="19.00">• timestamp</text>
<text xml:space="preserve" text-anchor="middle" x="1086.14" y="-382.2" font-family="Aptos" font-size="19.00">• metric_value</text>
<text xml:space="preserve" text-anchor="middle" x="1086.14" y="-362.7" font-family="Aptos" font-size="19.00">• dry_run</text>
<text xml:space="preserve" text-anchor="middle" x="1086.14" y="-343.2" font-family="Aptos" font-size="19.00">• discrepancy</text>
</g>
<!-- bus&#45;&gt;slots -->
<g id="edge11" class="edge">
<title>bus&#45;&gt;slots</title>
<path fill="none" stroke="#687386" stroke-width="1.7" d="M1086.14,-582.49C1086.14,-582.49 1086.14,-534.95 1086.14,-534.95"/>
<polygon fill="#687386" stroke="#687386" stroke-width="1.7" points="1088.67,-534.95 1086.15,-527.75 1083.63,-534.95 1088.67,-534.95"/>
<text xml:space="preserve" text-anchor="middle" x="1149.89" y="-548.33" font-family="Aptos" font-size="12.50" fill="#425466">forward exact evidence</text>
</g>
<!-- ans -->
<g id="node13" class="node">
<title>ans</title>
<path fill="#e8f7ed" stroke="#1a7f52" stroke-width="2" d="M1352.29,-275.8C1352.29,-275.8 1114,-275.8 1114,-275.8 1108,-275.8 1102,-269.8 1102,-263.8 1102,-263.8 1102,-175.9 1102,-175.9 1102,-169.9 1108,-163.9 1114,-163.9 1114,-163.9 1352.29,-163.9 1352.29,-163.9 1358.29,-163.9 1364.29,-169.9 1364.29,-175.9 1364.29,-175.9 1364.29,-263.8 1364.29,-263.8 1364.29,-269.8 1358.29,-275.8 1352.29,-275.8"/>
<text xml:space="preserve" text-anchor="middle" x="1233.14" y="-250.55" font-family="Aptos" font-size="19.00">VerifiedAnswer</text>
<text xml:space="preserve" text-anchor="middle" x="1233.14" y="-231.05" font-family="Aptos" font-size="19.00">• final_text</text>
<text xml:space="preserve" text-anchor="middle" x="1233.14" y="-211.55" font-family="Aptos" font-size="19.00">• verifier_passed</text>
<text xml:space="preserve" text-anchor="middle" x="1233.14" y="-192.05" font-family="Aptos" font-size="19.00">• unsupported_claims_count</text>
<text xml:space="preserve" text-anchor="middle" x="1233.14" y="-172.55" font-family="Aptos" font-size="19.00">• caveats[]</text>
</g>
<!-- slots&#45;&gt;ans -->
<g id="edge12" class="edge">
<title>slots&#45;&gt;ans</title>
<path fill="none" stroke="#687386" stroke-width="1.7" d="M1129.83,-333.57C1129.83,-333.57 1129.83,-286.29 1129.83,-286.29"/>
<polygon fill="#687386" stroke="#687386" stroke-width="1.7" points="1132.35,-286.29 1129.83,-279.09 1127.31,-286.29 1132.35,-286.29"/>
<text xml:space="preserve" text-anchor="middle" x="1179.77" y="-299.68" font-family="Aptos" font-size="12.50" fill="#425466">verify claims + rerank</text>
</g>
<!-- art -->
<g id="node14" class="node">
<title>art</title>
<path fill="#f2f4f7" stroke="#687386" stroke-width="2" d="M1421.41,-485.45C1421.41,-485.45 1204.88,-485.45 1204.88,-485.45 1198.88,-485.45 1192.88,-479.45 1192.88,-473.45 1192.88,-473.45 1192.88,-385.55 1192.88,-385.55 1192.88,-379.55 1198.88,-373.55 1204.88,-373.55 1204.88,-373.55 1421.41,-373.55 1421.41,-373.55 1427.41,-373.55 1433.41,-379.55 1433.41,-385.55 1433.41,-385.55 1433.41,-473.45 1433.41,-473.45 1433.41,-479.45 1427.41,-485.45 1421.41,-485.45"/>
<text xml:space="preserve" text-anchor="middle" x="1313.14" y="-460.2" font-family="Aptos" font-size="19.00">Artifacts</text>
<text xml:space="preserve" text-anchor="middle" x="1313.14" y="-440.7" font-family="Aptos" font-size="19.00">• metadata.json</text>
<text xml:space="preserve" text-anchor="middle" x="1313.14" y="-421.2" font-family="Aptos" font-size="19.00">• filled_system_prompt.txt</text>
<text xml:space="preserve" text-anchor="middle" x="1313.14" y="-401.7" font-family="Aptos" font-size="19.00">• trajectory.json</text>
<text xml:space="preserve" text-anchor="middle" x="1313.14" y="-382.2" font-family="Aptos" font-size="19.00">• eval reports</text>
</g>
<!-- ans&#45;&gt;art -->
<g id="edge13" class="edge">
<title>ans&#45;&gt;art</title>
<path fill="none" stroke="#687386" stroke-width="1.7" d="M1278.58,-276.58C1278.58,-276.58 1278.58,-362.95 1278.58,-362.95"/>
<polygon fill="#687386" stroke="#687386" stroke-width="1.7" points="1276.06,-362.95 1278.58,-370.15 1281.1,-362.95 1276.06,-362.95"/>
<text xml:space="preserve" text-anchor="middle" x="1378.39" y="-299.68" font-family="Aptos" font-size="12.50" fill="#425466">write reproducible trace</text>
</g>
</g>
</svg>
